<?xml version="1.0" encoding="utf-8"?>
<!-- Generator: Adobe Illustrator 24.1.0, SVG Export Plug-In . SVG Version: 6.00 Build 0)  -->
<svg version="1.1" id="Layer_1" xmlns="http://www.w3.org/2000/svg" xmlns:xlink="http://www.w3.org/1999/xlink" x="0px" y="0px"
	 viewBox="0 0 841.9 595.3" style="enable-background:new 0 0 841.9 595.3;" xml:space="preserve">
<style type="text/css">
	.st0{display:none;fill:#FEFDFD;}
	.st1{fill:#9C0404;}
	.st2{fill:#F69406;}
	.st3{fill:url(#SVGID_1_);}
	.st4{fill:url(#SVGID_2_);}
	.st5{fill:#9B9B9B;}
</style>
<g>
	<path class="st0" d="M42,311.9c0-121.8,0-243.6-0.1-365.4c0-2.8,0.6-3.4,3.4-3.4c245.8,0.1,491.7,0.1,737.5,0
		c2.8,0,3.4,0.6,3.4,3.4c-0.1,243.9-0.1,487.7,0,731.6c0,2.8-0.6,3.4-3.4,3.4c-245.8-0.1-491.7-0.1-737.5,0c-2.8,0-3.4-0.6-3.4-3.4
		C42,556,42,434,42,311.9z M239.8,327.4c1.6,1,2.8,0.7,4.1,0.7c31.9,0,63.7,0,95.6,0c10.3,0,20.1-2.1,29.3-6.5
		c1.4-0.7,2.9-1.2,4.3-0.3c7,4.2,14.8,5.8,22.7,7.2c15,2.7,28.9,0.3,41.5-8.5c1.5-1,2.9-1.1,4.4-0.2c8.6,5.2,18.1,7.3,28,8.6
		c25.6,3.6,46.5-9.2,57.7-31.2c3.6-7.1,5.4-14.7,7.7-22.2c2.6-8.6,5.6-17,8.3-25.5c3.2-10.1,6.1-20.2,9.3-30.3
		c3.7-11.9,7.4-23.9,11.3-35.7c0.8-2.5-0.1-2.6-1.9-2.6c-12.3,0-24.6,0-36.8,0c-1.5,0-2.3,0.5-2.7,1.9c-3.1,10-6.5,19.9-9.4,29.9
		c-2,7-4.3,13.9-6.4,20.9c-2.2,7.4-4.7,14.8-7.1,22.2c-2,6.3-3.7,12.8-7.2,18.6c-6.6,10.9-18.4,11.4-27.1,6.1
		c-1.3-0.8-2.3-1.8-1.7-3.5c2.7-8.2,5-16.5,7.5-24.8c2.3-7.5,4.6-15,7-22.5c1.4-4.5,2.8-9.1,6.8-12.1c-0.8-1.3-1.9-0.8-2.8-0.8
		c-11,0-22.1,0.1-33.1-0.1c-5.2-0.1-8.3,2.5-10.4,6.7c-2.7,5.5-3.8,11.5-5.5,17.2c-2.9,9.6-5.1,19.4-8.9,28.6
		c-4.3,10.6-10.8,16.3-22.3,14.4c-3.4-0.6-4.1-1.9-3.5-4.9c2-9.2,1.1-18.3-1.8-27.2c-6.4-19.8-24.2-35-46.4-34.8c-16,0.1-32,0-48,0
		c-4.1,0-8-1.1-12.3-0.1c-6.2,1.5-10.4,4.5-12.4,10.5c-1.8,5.4-3.6,10.9-5.4,16.3c-1.6,4.9-3,9.9-4.7,15.4c4.2-2.5,8.2-3.1,12.4-3.1
		c20.2,0,40.4,0,60.6,0c4.4,0,7.2,2.2,9.7,5.3c1.3,1.6,1.1,3.7,2,5.3c2.6,4.5-0.9,14.2-4.8,17.2c-5.9,4.5-12.6,5.7-19.7,5.7
		c-21.1,0.1-42.2,0.1-63.3,0c-3,0-4.2,0.6-4.6,4c-0.5,5.7-2.8,11-5.2,16.2C251.2,316.5,246,322.1,239.8,327.4z M567.3,436
		c-0.8-0.7-1.7-1.2-2.1-2.3c-3.7-9.8-7.5-19.5-11.3-29.3c-6-15.3-12-30.5-17.9-45.8c-1.2-3.1-2.8-4.4-6.6-4.4
		c-67.4,0.2-134.7,0.1-202.1,0.1c-2.2,0-4.4,0.2-6.6,0.3c3,1,6,1.8,9,2.2c13.3,2.1,26.7,3.8,40,5.7c16,2.2,32,4.5,47.9,6.9
		c10.3,1.6,20.6,3.2,30.9,4.5c10.4,1.3,20.8,3.2,31.2,4.4c8.6,1,17,2.5,25.6,3.5c3.6,0.4,8.7-0.7,10.3,4.8c0.5,1.6,1.1,3.2,1.8,4.8
		c7.3,18.6,14.6,37.3,22,55.9c3.3,8.3,6.7,16.5,10,24.8c5.3,13.4,10.6,26.9,15.8,40.3c0.2,0.6,0.5,1.1,1.2,1.1
		c0.9,0.1,1.4-0.3,1.5-1.2c0.1-2.3,1.3-4.5,2.1-6.5c3-7.1,5.5-14.3,8.3-21.5c4.1-10.7,8-21.5,12-32.2c5.2-13.7,10.4-27.3,15.6-41
		c3.1-8.2,6.2-16.4,9.2-24.6c0.9-2.5,2.5-3.5,5.3-3.5c15.5,0.4,31,0,46.5,0.4c22.9,0.5,45.9,0.1,68.8,0.1c0.8,0,1.8,0.3,2.3-0.7
		c0.6-1.1-0.5-1.5-1-2.1c-4.5-5.7-8.9-11.4-13.4-17c-12.4-15.7-24.8-31.3-37.2-47c-12.2-15.3-24.4-30.6-36.7-45.9
		c-1.6-1.9-2.2-3.9-1.7-6.4c1-4.6,1.8-9.2,2.5-13.8c2.3-14.1,4.8-28.2,7.1-42.3c1.7-10.2,3.7-20.3,5.1-30.5
		c0.4-3.3,0.9-6.7,1.5-10.1c1.3-7.4,2.8-14.8,4.1-22.2c1.2-6.7,2.3-13.5,3.5-20.4c-1.1,1.1-1.8,2.1-2.1,3.5c-1,3.7-2,7.3-3.2,10.9
		c-3.2,9.9-6.6,19.8-9.8,29.8c-2.7,8.4-5.2,16.9-7.9,25.3c-3.6,11.3-7.4,22.5-10.9,33.8c-3,9.8-6.3,19.5-9.4,29.2
		c-2.7,8.4-5.2,16.8-8.2,25.1c-0.7,1.8-0.4,3.6,1.1,5.4c7.5,8.9,14.7,17.9,22.1,26.9c9.5,11.6,19,23.2,28.5,34.9
		c0.8,1,2.5,2,1.8,3.4c-0.7,1.6-2.7,0.8-4.1,0.8c-4.7,0.1-9.4,0-14.1,0c-18.2,0-36.5,0-54.7,0c-1.4,0-3.1-0.6-3.8,1.3
		c-3.4,9.1-6.9,18.3-10.3,27.4c-3.6,9.6-7.1,19.2-10.7,28.8C573.4,420,570.4,427.8,567.3,436z M131.9,341.6c0.3-1,0.3-1.4,0.5-1.6
		c5.5-5.6,12.2-8.4,20.2-8.3c14.7,0.2,29.5,0.3,44.2,0.4c8.6,0,17-1,25.1-3.9c16.4-6,26.6-17.6,30.4-34.3c2.3-10.3,2.4-20.7-1-31.1
		c-5.9-18.2-18.9-28.3-35.8-29.4c-17.5-1.1-35.2-0.5-52.8-0.1c-6.6,0.1-11.7,3.8-14.1,10.2c-1.7,4.4-3.4,8.9-4.7,13.4
		c-1.1,3.8-3.2,6.2-6.7,8c-10.3,5.3-14.1,17-9.9,28.1c1,2.6,2.5,5.1,1.5,8c-6.4,18.3-13,36.6-19.2,55c-3.4,9.9,2.8,19.7,13.7,19.8
		c7.3,0.1,14.6-0.1,21.9,0.1c2.3,0.1,3.3-0.8,4-2.8c3.4-10.3,6.7-20.6,10.6-30.7c1.6-4.2-0.4-3.8-3.1-3.8
		C148.5,338.3,140.4,339.8,131.9,341.6z M530.9,327.7c6.5,1.7,12.8,1.6,19.2,0.7c16.1-2.1,27.7-10.7,37-23.4
		c6.8-9.3,9.3-20.2,12.8-30.8c2.9-8.5,5.2-17.2,7.8-25.8c3.7-11.9,7.6-23.8,11.3-35.8c3.1-9.7,5.9-19.4,9.3-29
		c0.9-2.6,0.3-2.7-1.7-2.7c-12.4,0-24.8,0-37.2,0c-1.3,0-2.2,0.1-2.6,1.8c-1.1,4.1-2.7,8.1-3.9,12.2c-5.5,17.7-10.7,35.5-16.4,53.2
		c-3.6,11-7.1,22-11.5,32.8C548.4,297.2,542.7,313.9,530.9,327.7z M424.4,448c-3.7,0-7.4,0-11.2,0c-6.9,0-6.9,0-5.9-6.9
		c0.2-1.2,0.4-2.4,0.4-3.7c0.1-9.3-6.7-14.1-15.8-11.7c-7.5,2-11.7,9.6-12.5,16.6c-0.9,8,4.1,13,11.5,12.4c0.6-0.1,1.2,0,1.9,0
		c1.1,0.1,2.4-0.3,3,0.9c0.6,1.3-0.4,2.4-1.1,3.3c-2.6,3.4-6.3,4-10.3,3.5c-2.8-0.4-3.8,0.6-3.9,3.4c-0.1,2.7,1.3,3.4,3.5,3.5
		c8.3,0.5,15.1-3.2,18.6-10.8c1.4-3,3.1-3.8,6.2-3.8c10.8,0.2,21.6,0.1,32.4,0c2.4,0,5.1,1,6.9-1.8c0.4-0.6,1.4-0.3,2.3,0.3
		c3.9,2.7,8.4,2.2,12.4,0.8c3.7-1.3,6.9-3.5,10.2,0.4c0.4,0.4,1.4,0.4,2.1,0.4c5.2,0,10.4,0,15.6,0c1.8,0,2.6-0.6,2.9-2.5
		c1.9-12.2,3.9-24.4,5.8-36.7c0.2-1.2,2-3.6-1.1-3.4c-2.2,0.1-5.6-2.1-6.3,2.5c-1.2,8-2.8,15.9-3.8,24c-1.2,9.2-1.8,10.1-10.5,9.4
		c-3.9-0.3-5.2-2.1-4.9-6.1c0.3-4.1,1.2-8,1.9-11.9c0.8-4.8,1.5-9.6,2.2-14.4c0.2-1.2,1.9-2.9-0.8-3.5c-3.7-0.9-6.6,0.1-7,2.4
		c-1.5,9.4-3,18.9-4.5,28.3c-0.7,4.1-3.8,5.8-9.1,5.3c-4.9-0.5-5.5-1.3-5.5-6.2c0-1.2,0-2.5,0-3.7c-0.2-5.5-4.1-9.9-9.2-12
		c-6.9-2.8-17.2,0.9-22.3,8c-0.9,1.2-2.7,3.2-1.5,4.6c1.3,1.4,3.7,0.5,5.6,0.4c1.1,0,1.4-1.2,2-2c1.5-2,3.4-3.4,5.7-4.4
		c3.5-1.5,6.7-1.2,9.6,1.2c2.5,2.1,3.3,4.7,2.1,7.9c-0.4,1.1-0.6,2.4-0.6,3.6c0,2.1-1,2.7-3,2.7C434.1,447.9,429.3,448,424.4,448z
		 M612.1,169.9c5.8,0,11.6-0.1,17.5,0c2.4,0,4-0.3,4.2-3.2c0.2-2.1,0.9-4.3,1.7-6.3c3.8-10.1,6.3-20.6,9.9-30.7
		c2.1-6.1,2.5-13,7.8-17.9c1.3-1.2,0.7-2.3-1.1-2.2c-2.5,0.1-4.9,0.4-7.4,0.5c-9.3,0.5-18.5,0.2-27.8,1.3c-4.5,0.5-7.7,2.6-9.4,6.6
		c-2.5,6.1-4.1,12.5-6,18.8c-3,9.9-6.3,19.8-9.6,29.6c-0.9,2.6-0.7,3.6,2.3,3.5C600.2,169.8,606.1,169.9,612.1,169.9z M547.7,169.9
		c5.9,0,11.9-0.1,17.8,0.1c2.5,0.1,3.5-1.3,4-3.3c1.1-3.9,1.9-8,3.3-11.8c3.3-9,5.7-18.2,8.8-27.2c1.9-5.6,2.6-11.8,7.3-16.1
		c1.1-1,0.9-2-1-1.9c-2.5,0.2-4.9,0.5-7.4,0.6c-9.4,0.5-18.8,0.2-28.2,1.3c-4,0.5-6.8,2.4-8.9,5.6c-1.7,2.5-1.9,5.4-2.8,8.1
		c-2.3,6.9-4.2,13.9-6.4,20.9c-2.2,6.9-4.5,13.8-6.8,20.7c-0.7,2-0.2,3.2,2.4,3.1C535.8,169.8,541.7,169.9,547.7,169.9z
		 M352.7,171.8c0,0.2,0,0.4,0,0.6c25.5,0,51.1,0,76.6,0c9.3,0,9.3,0,12-8.7c1.3-4.1,1.2-4.3-3.3-4.2c-50.5,0.6-101-1.3-151.5,1.4
		c-4,0.2-7.9,0.2-11.9,0.1c-2.7-0.1-4.5,0.2-4.4,3.6c0.1,1.2-1,2.5-1.7,3.6c-0.6,1-2,2-1.3,3.2c0.5,0.9,2.1,0.4,3.1,0.4
		C297.9,171.8,325.3,171.8,352.7,171.8z M254.1,193c2.7,0.9,5,1,7.4,1c55.3,0.1,110.6,0.3,165.9,0.5c0.7,0,1.5,0,2.2,0
		c1.6,0.1,2.6-0.8,3-2.2c0.6-1.9,1.1-3.7,1.6-5.6c1-4.3,1-4.4-3.6-4.4c-47.4,0.1-94.7,0.2-142.1,0.3c-9.3,0-18.6,0-27.9,0.7
		c-0.9,0.1-2.7-0.4-2.4,0.9C259.1,188,255.9,189.9,254.1,193z M272.9,375.6c5.1,0,10.2,0.2,15.2-0.1c8.1-0.4,14.3-4.1,17.7-11.6
		c6.2-14.2-2.1-24.9-16-24.2c-7,0.4-14.1,0.2-21.2,0c-2.2,0-3.4,0.9-4,2.7c-3.5,10-6.9,20-10.3,30c-0.6,1.8-0.4,3.3,2.3,3.2
		C262,375.5,267.5,375.6,272.9,375.6z M466.2,194.6C466.2,194.6,466.2,194.5,466.2,194.6c4.8-0.1,9.7,0,14.5-0.1
		c2.6-0.1,5.1,0,7.6-1.1c7-2.9,10.1-8.4,12.1-15.4c2.3-8.3-4-18.4-13.3-18.5c-8.9-0.1-17.8,0.1-26.8-0.1c-2.6,0-3.5,1.1-4,3.2
		c-0.7,2.6-1.6,5.1-2.4,7.7c-2.2,7.3-4.3,14.6-6.5,21.9c-0.7,2.1,0,2.5,2,2.5C455.1,194.5,460.6,194.6,466.2,194.6z M227.4,454.7
		c1.2,0,2.1,0,2.9,0c2.2-0.1,4.7,0.5,6.6-0.3c2.3-1,1.2-4,1.5-6.1c2-11.3,3.8-22.7,5.6-34.1c0.1-0.7,0.4-1.4-0.4-2
		c-2.1-1.5-7.1,0.3-7.5,2.8c-1.7,9.9-3.5,19.8-4.9,29.7c-0.4,2.7-1.2,3.7-3.8,3.3c-0.9-0.1-1.7,0-2.6,0c-6.5-0.1-7.6-1.3-6.9-7.7
		c0.6-5.7-1.4-9.9-5.7-12c-9.5-4.7-22,1.9-23.5,12.3c-0.8,5.5-4,7.9-9.4,7.4c-1.9-0.2-2.3-1.1-2-2.7c1.7-9.9,3.5-19.8,5.1-29.7
		c0.2-1.2,1.5-3.3-1.3-3.7c-4.6-0.7-6.2,0-6.6,2.9c-1.8,11.2-3.6,22.5-5.6,33.7c-1.1,6.2-1.2,6.2,5,6.1c4.8-0.1,10,1.2,14.2-2.6
		c0.6-0.6,1.4-0.3,2.3,0.3c7.4,5.5,13.7,5.5,21.7,0.3c0.8-0.6,1.8-1.4,2.6-0.7C218.5,455.8,223.3,454.4,227.4,454.7z M150.6,454.7
		c2.8,0,5.2-0.2,7.5,0.1c2.5,0.3,3.6-0.9,3.8-2.9c0.4-3.8,1.1-7.5,1.8-11.2c1.5-8.3,2.8-16.6,4.1-24.9c0.2-1.3,1.5-3.7-1.2-3.5
		c-2.3,0.1-6.1-2.3-6.9,2.3c-1.6,10-3.1,20.1-4.7,30.2c-0.2,1.4-0.5,3-2,3.2c-3.2,0.3-6.5,0.7-9.6-0.3c-1.9-0.6-3-2-3-4.2
		c0-3.1,1.2-6,1.4-9.1c0.5-6.2,1.5-4.9-4.8-5.2c-1.9-0.1-2.5,0.6-2.8,2.5c-0.4,2.1-0.4,4.2-0.9,6.2c-0.6,3-0.5,6.4-3,8.8
		c-2.1,2-11.1,2-13.5,0.4c-1.3-0.9-1.2-2.1-1.1-3.3c0.6-5,1.2-10,2-14.9c0.3-1.9-0.2-2.5-2-2.4c-3.5,0.1-6.9,0-10.4,0
		c-7.3,0.1-12.4,3.6-14.9,10.3c-1.9,5.2-1,10.6,2.4,13.7c3.4,3,8.2,3.9,12.3,1.5c3.1-1.8,4.9-1.9,6.7,1.3c0.4,0.7,1.6,1.4,2.5,1.4
		c6.7,0,13.6,1.8,19.9-2c1-0.6,2.4-1.3,3.1-0.6C141.4,456.1,146.5,454.2,150.6,454.7z M341.1,454.7c4.1,0,8.2-0.2,12.3,0.1
		c3.1,0.2,4.3-0.9,4.8-3.9c1.6-11.3,3.4-22.5,5.2-33.7c0.8-5.3,0.9-5.3-4.6-5.2c-1.8,0-2.7,0.4-2.6,2.4c0.1,1.2-0.5,2.4-0.7,3.6
		c-1.2,7.5-2.7,14.9-3.6,22.4c-0.8,7.3-1.3,8-8.6,7.7c-2.6-0.1-3.2-1.1-2.8-3.4c1.1-6.1,2.1-12.3,3.2-18.5c0.2-1.4,0.8-3.4-1.7-3.1
		c-2.1,0.3-5.4-1.8-6.1,1.9c-1.2,5.8-2.1,11.6-2.8,17.4c-0.4,3.6-0.8,6.1-5.5,5.7c-3.7-0.3-1.5,3.4-2.3,5.1
		c-0.7,1.7,1.3,1.5,2.4,1.5C332.1,454.7,336.6,454.7,341.1,454.7z M298.6,454.7c6.3,0,12.6,0,19,0c1.6,0,3,0,3.3-2.1
		c1-6.9,2.1-13.8,3-20.7c0.1-0.9,1.6-3.2-1.1-2.7c-2.2,0.4-5.6-2.1-6.5,1.9c-1,4.4-1.9,8.9-2.2,13.4c-0.2,2.8-1.2,3.5-3.8,3.5
		c-8.2-0.1-16.4,0-24.5-0.1c-5.8,0-7.7-2.1-6.8-7.7c0.5-3.1-0.2-3.8-3.2-3.7c-2.6,0.1-3.6,1.1-3.7,3.4c-0.1,2.1-0.2,4.2-0.2,6.3
		c0.2,5.5,3.4,8.5,9,8.5C286.7,454.7,292.7,454.7,298.6,454.7z M224.6,340.3c-1-0.8-2-0.5-3-0.7c-3.5-0.6-5.3,0.6-6.3,4.1
		c-1.7,6-4.1,11.8-6.1,17.7c-0.7,2-1.8,3.7-3.2,5.2c-1.9,2-4.5,2.9-7,1.6c-2.8-1.4-1.9-4.3-1.3-6.3c1.9-6.2,4.3-12.2,6.5-18.2
		c0.5-1.3,1.5-2.8,0-4c-1.1-1-6.3,0.1-6.8,1.3c-1.3,3.1-2.6,6.2-3.7,9.3c-1.7,4.8-3.4,9.6-4.6,14.5c-1.6,6.1,2.4,10.6,8.7,10.9
		c8.2,0.4,15.3-5,18.4-12.5C219.3,355.8,221.8,348,224.6,340.3z M230.6,375.7c2.1,0.6,4.8-0.5,7.2-1.6c5.4-2.4,9.2-6.4,9.7-12.5
		c0.5-5.2-3.8-6.9-7.4-8.9c-0.2-0.1-0.5-0.1-0.7-0.3c-1.8-1.3-1.9-4.3,0.1-5.2c1.8-0.9,3.8-2.2,6-1.1c4.2,2.2,5.9-0.3,7.6-3.5
		c0.9-1.7,0.2-2.3-1-2.8c-6-2.6-17.1,0.7-20.6,6.2c-3.5,5.7-3.1,10.8,2.2,13.6c1,0.5,2,0.9,3,1.5c2.8,1.6,2.8,3.9,0.4,6.1
		c-2.5,2.2-5.9,2.1-8,1c-4.4-2.5-5.4,0.3-6.9,3.1c-1,1.8-1,2.6,1.3,3.4C225.6,375.3,227.7,375.7,230.6,375.7z M171.1,375.4
		c2,0,4-0.3,5.9,0.1c3.8,0.6,5.1-1.5,6.1-4.6c0.7-2.2,0-2.6-1.9-2.5c-2.6,0-5.2-0.1-7.8,0.1c-2.1,0.1-2.6-0.9-1.9-2.4
		c1.6-3,2.3-6.4,3.5-9.5c1.9-4.6,3.4-9.4,4.9-14.1c0.3-1,1.3-2.4-0.9-2.9c-4.2-1-6.7,0.4-7.8,4.6c-0.2,0.7-0.2,1.5-0.5,2.1
		c-3.2,8.8-6.4,17.5-9.6,26.3c-0.6,1.7-0.3,2.9,2,2.8C165.9,375.4,168.5,375.4,171.1,375.4z M375,412c-3.6-1-4.9,0.8-4.6,4.2
		c0.1,0.7-0.1,1.5-0.3,2.2c-1.8,11-3.6,21.9-5.3,32.9c-0.2,1.1-1.5,3.4,1.2,3.2c2.2-0.2,5.5,1.9,6.2-2.4c0.7-4.5,1.5-8.9,2.2-13.4
		c1.3-7.7,2.5-15.4,4-23.1C379.2,412.6,378.5,411.3,375,412z M248.3,454.6c2.9,0.8,4.1-0.4,4.6-3.6c1.8-11.9,4.2-23.8,5.7-35.8
		c0.2-1.3,1.5-3.4-1.1-3.1c-2.1,0.3-5.5-2.4-6.2,2c-0.9,5.3-1.9,10.6-2.8,15.9c-1.2,7-2,14.1-3.5,21
		C244.2,454.3,244.8,455.3,248.3,454.6z M306.5,417.4c-5.2-1.1-4.3,2.5-4.7,4.5c-0.6,2.8,1.8,1.6,3,1.6c2.5,0.2,4.5-2.3,4.1-5
		C308.6,416.4,306.8,417.5,306.5,417.4z M105.7,414.5c0.6-1.4,0.9-2.4-1.3-2.6c-4.1-0.3-5.1,0.4-5.5,4.3c-0.1,1.5,0.2,2.3,1.9,2.4
		C103.8,418.6,106.6,418.7,105.7,414.5z M137.6,467.7c3.9,0.6,3.5-2.5,3.9-4.9c0.4-2.6-1.6-1.7-2.9-1.9c-4.2-0.7-3.5,2.7-4,4.8
		C134,467.9,135.8,467.7,137.6,467.7z M112.8,412c-5.3-1.4-3.7,2.9-4.2,5c-0.5,2.1,1.7,1.3,2.9,1.5c3.9,0.7,3.6-2.5,4.1-4.7
		C116.2,411.1,113.9,412.2,112.8,412z M294.9,417c-2.8-0.7-2.5,2-2.7,4.4c-0.3,2.8,1.6,2,3.1,2.2c3.6,0.6,3.4-2,3.8-4.3
		C299.4,416.5,297.4,417.3,294.9,417z M129,460.9c-3.8-0.8-3.7,1.9-4,4.2c-0.3,2.6,1.3,2.6,3.2,2.6c4,0.2,3.3-2.8,3.6-5.1
		C132.2,460,130.2,461,129,460.9z"/>
</g>
<path class="st1" d="M239.8,327.4c6.2-5.3,11.4-11,14.8-18.1c2.5-5.2,4.7-10.5,5.2-16.2c0.3-3.3,1.5-4,4.6-4
	c21.1,0.1,42.2,0.1,63.3,0c7,0,13.8-1.2,19.7-5.7c3.9-3,7.4-12.6,4.8-17.2c-0.9-1.6-0.7-3.7-2-5.3c-2.6-3.1-5.3-5.3-9.7-5.3
	c-20.2,0.1-40.4,0-60.6,0c-4.2,0-8.2,0.6-12.4,3.1c1.7-5.5,3.2-10.5,4.7-15.4c1.7-5.5,3.5-10.9,5.4-16.3c2-5.9,6.2-9,12.4-10.5
	c4.3-1,8.2,0.1,12.3,0.1c16,0,32,0.1,48,0c22.2-0.2,40,15,46.4,34.8c2.9,8.9,3.8,18,1.8,27.2c-0.6,3,0,4.3,3.5,4.9
	c11.5,1.9,18-3.8,22.3-14.4c3.8-9.3,6-19.1,8.9-28.6c1.7-5.8,2.8-11.8,5.5-17.2c2.1-4.2,5.2-6.8,10.4-6.7c11,0.2,22.1,0.1,33.1,0.1
	c0.9,0,2-0.4,2.8,0.8c-4,3-5.4,7.6-6.8,12.1c-2.4,7.5-4.6,15-7,22.5c-2.6,8.2-4.9,16.5-7.5,24.8c-0.6,1.8,0.4,2.7,1.7,3.5
	c8.7,5.3,20.5,4.8,27.1-6.1c3.5-5.8,5.2-12.3,7.2-18.6c2.4-7.4,4.9-14.8,7.1-22.2c2.1-7,4.4-13.9,6.4-20.9c2.9-10,6.3-20,9.4-29.9
	c0.4-1.4,1.2-1.9,2.7-1.9c12.3,0.1,24.6,0,36.8,0c1.8,0,2.8,0,1.9,2.6c-4,11.8-7.6,23.8-11.3,35.7c-3.1,10.1-6.1,20.2-9.3,30.3
	c-2.7,8.5-5.8,16.9-8.3,25.5c-2.3,7.5-4.1,15.2-7.7,22.2c-11.1,22-32.1,34.8-57.7,31.2c-9.8-1.4-19.4-3.5-28-8.6
	c-1.5-0.9-2.9-0.9-4.4,0.2c-12.6,8.8-26.5,11.2-41.5,8.5c-7.9-1.4-15.7-3-22.7-7.2c-1.4-0.8-2.9-0.3-4.3,0.3
	c-9.3,4.4-19,6.5-29.3,6.5c-31.9-0.1-63.7,0-95.6,0C242.7,328.1,241.4,328.4,239.8,327.4z"/>
<path class="st2" d="M567.3,436c3.1-8.1,6.1-16,9-23.9c3.6-9.6,7.1-19.2,10.7-28.8c3.4-9.2,6.9-18.3,10.3-27.4
	c0.7-1.9,2.5-1.3,3.8-1.3c18.2,0,36.5,0,54.7,0c4.7,0,9.4,0.1,14.1,0c1.4,0,3.3,0.8,4.1-0.8c0.6-1.3-1-2.4-1.8-3.4
	c-9.5-11.7-19-23.3-28.5-34.9c-7.3-9-14.6-18-22.1-26.9c-1.5-1.8-1.8-3.5-1.1-5.4c3-8.3,5.6-16.7,8.2-25.1
	c3.1-9.8,6.3-19.5,9.4-29.2c3.5-11.3,7.3-22.6,10.9-33.8c2.7-8.4,5.2-16.9,7.9-25.3c3.2-9.9,6.6-19.8,9.8-29.8
	c1.2-3.6,2.2-7.3,3.2-10.9c0.4-1.4,1.1-2.4,2.1-3.5c-1.2,6.9-2.3,13.7-3.5,20.4c-1.3,7.4-2.8,14.8-4.1,22.2c-0.6,3.3-1,6.7-1.5,10.1
	c-1.3,10.2-3.4,20.4-5.1,30.5c-2.3,14.1-4.9,28.2-7.1,42.3c-0.7,4.6-1.5,9.2-2.5,13.8c-0.5,2.5,0.1,4.5,1.7,6.4
	c12.3,15.3,24.5,30.6,36.7,45.9c12.4,15.6,24.8,31.3,37.2,47c4.5,5.7,8.9,11.4,13.4,17c0.5,0.6,1.5,1,1,2.1c-0.5,1-1.5,0.7-2.3,0.7
	c-22.9,0-45.9,0.4-68.8-0.1c-15.5-0.4-31,0-46.5-0.4c-2.8-0.1-4.4,0.9-5.3,3.5c-3,8.2-6.1,16.4-9.2,24.6
	c-5.2,13.7-10.4,27.3-15.6,41c-4,10.7-7.9,21.5-12,32.2c-2.7,7.2-5.3,14.4-8.3,21.5c-0.8,2-2,4.1-2.1,6.5c0,0.9-0.6,1.3-1.5,1.2
	c-0.7,0-1-0.5-1.2-1.1c-5.3-13.5-10.5-26.9-15.8-40.3c-3.3-8.3-6.7-16.5-10-24.8c-7.4-18.6-14.7-37.3-22-55.9
	c-0.6-1.6-1.3-3.2-1.8-4.8c-1.5-5.5-6.7-4.4-10.3-4.8c-8.6-1-17-2.5-25.6-3.5c-10.4-1.2-20.8-3.1-31.2-4.4
	c-10.3-1.3-20.6-2.9-30.9-4.5c-16-2.4-31.9-4.7-47.9-6.9c-13.4-1.9-26.7-3.7-40-5.7c-3-0.5-6-1.2-9-2.2c2.2-0.1,4.4-0.3,6.6-0.3
	c67.4,0,134.7,0.1,202.1-0.1c3.8,0,5.4,1.4,6.6,4.4c5.9,15.3,11.9,30.5,17.9,45.8c3.8,9.8,7.6,19.5,11.3,29.3
	C565.7,434.8,566.6,435.3,567.3,436z"/>
<path class="st1" d="M131.9,341.6c8.5-1.8,16.6-3.3,24.8-3.1c2.7,0.1,4.7-0.4,3.1,3.8c-3.9,10.1-7.1,20.4-10.6,30.7
	c-0.7,2-1.7,2.9-4,2.8c-7.3-0.2-14.6,0-21.9-0.1c-10.9-0.1-17.1-9.9-13.7-19.8c6.2-18.4,12.8-36.7,19.2-55c1-3-0.5-5.4-1.5-8
	c-4.2-11.1-0.4-22.8,9.9-28.1c3.5-1.8,5.6-4.3,6.7-8c1.3-4.6,2.9-9,4.7-13.4c2.5-6.3,7.5-10,14.1-10.2c17.6-0.3,35.3-1,52.8,0.1
	c16.8,1,29.8,11.2,35.8,29.4c3.4,10.4,3.4,20.8,1,31.1c-3.8,16.8-14,28.3-30.4,34.3c-8.1,3-16.5,4-25.1,3.9
	c-14.7-0.1-29.5-0.1-44.2-0.4c-8-0.1-14.7,2.7-20.2,8.3C132.2,340.2,132.2,340.6,131.9,341.6z M179.7,269.1c-9.5,0-19.1-0.1-28.6,0
	c-9,0.1-18.2,6.3-16.2,18.2c0.6,3.9,2.8,6.4,6.4,7.9c4.3,1.8,8.8,0.8,13.2,0.9c5.6,0.2,6.4,1.1,4.9,6.6c-0.2,0.7-0.7,1.3-0.9,2
	c-0.8,4.2-2.4,8.5,1.6,12.2c5.9,5.4,16.2,4.2,21.3-3.1c2.8-4,3.8-8.6,5.3-13.1c1.1-3.4,3.3-4.6,6.6-4.5c5.3,0.1,10.6,0.2,15.9-1.1
	c6.2-1.5,12.7-6.3,11.5-15.6c-0.8-5.8-6.5-10.7-13.5-10.4C198.1,269.3,188.9,269.1,179.7,269.1z M185.7,261
	C185.7,261,185.7,260.9,185.7,261c3.6-0.1,7.2,0.1,10.7-0.1c3.1-0.2,4.8-2.9,3.5-5.6c-0.4-0.9-0.7-1.7-1-2.7
	c-1.3-4.8-8.3-8.9-13.1-7.8c-6.6,1.6-10.4,6.3-12.8,12.1c-1,2.5-0.2,4.3,3,4.2C179.2,260.9,182.5,261,185.7,261z"/>
<path class="st1" d="M530.9,327.7c11.8-13.8,17.6-30.5,24.1-46.8c4.3-10.8,7.9-21.8,11.5-32.8c5.7-17.7,11-35.5,16.4-53.2
	c1.3-4.1,2.8-8.1,3.9-12.2c0.4-1.7,1.3-1.8,2.6-1.8c12.4,0,24.8,0,37.2,0c2.1,0,2.6,0.1,1.7,2.7c-3.4,9.6-6.2,19.3-9.3,29
	c-3.8,11.9-7.6,23.8-11.3,35.8c-2.7,8.6-5,17.3-7.8,25.8c-3.5,10.5-6.1,21.5-12.8,30.8c-9.2,12.7-20.9,21.3-37,23.4
	C543.6,329.3,537.4,329.4,530.9,327.7z"/>
<path class="st1" d="M612.1,169.9c-5.9,0-11.9-0.1-17.8,0c-3,0.1-3.2-0.9-2.3-3.5c3.3-9.8,6.6-19.7,9.6-29.6
	c1.9-6.3,3.4-12.7,6-18.8c1.7-4,4.9-6,9.4-6.6c9.2-1.1,18.5-0.9,27.8-1.3c2.5-0.1,4.9-0.4,7.4-0.5c1.8-0.1,2.4,0.9,1.1,2.2
	c-5.3,4.8-5.6,11.8-7.8,17.9c-3.6,10.1-6.1,20.6-9.9,30.7c-0.8,2-1.5,4.2-1.7,6.3c-0.2,2.9-1.8,3.3-4.2,3.2
	C623.7,169.8,617.9,169.9,612.1,169.9z"/>
<path class="st1" d="M547.7,169.9c-5.9,0-11.9-0.1-17.8,0c-2.6,0.1-3-1.1-2.4-3.1c2.2-6.9,4.6-13.8,6.8-20.7
	c2.2-6.9,4.1-14,6.4-20.9c0.9-2.7,1.2-5.6,2.8-8.1c2.2-3.2,4.9-5.1,8.9-5.6c9.4-1.1,18.8-0.9,28.2-1.3c2.5-0.1,4.9-0.4,7.4-0.6
	c1.8-0.1,2.1,0.9,1,1.9c-4.7,4.4-5.4,10.6-7.3,16.1c-3.1,9-5.5,18.3-8.8,27.2c-1.4,3.8-2.2,7.9-3.3,11.8c-0.6,1.9-1.5,3.3-4,3.3
	C559.6,169.8,553.6,169.9,547.7,169.9z"/>
<linearGradient id="SVGID_1_" gradientUnits="userSpaceOnUse" x1="267.1414" y1="165.918" x2="442.0342" y2="165.918">
	<stop  offset="0" style="stop-color:#FFFFFF"/>
	<stop  offset="1" style="stop-color:#F69406"/>
</linearGradient>
<path class="st3" d="M352.7,171.8c-27.4,0-54.8,0-82.2,0c-1.1,0-2.6,0.5-3.1-0.4c-0.7-1.2,0.7-2.1,1.3-3.2c0.7-1.2,1.7-2.5,1.7-3.6
	c-0.2-3.4,1.7-3.7,4.4-3.6c4,0.1,7.9,0.1,11.9-0.1c50.5-2.7,101-0.8,151.5-1.4c4.4-0.1,4.5,0.1,3.3,4.2c-2.7,8.7-2.7,8.7-12,8.7
	c-25.5,0-51.1,0-76.6,0C352.7,172.2,352.7,172,352.7,171.8z"/>
<linearGradient id="SVGID_2_" gradientUnits="userSpaceOnUse" x1="254.1215" y1="188.3167" x2="434.7413" y2="188.3167">
	<stop  offset="0" style="stop-color:#FFFFFF"/>
	<stop  offset="1" style="stop-color:#F69406"/>
</linearGradient>
<path class="st4" d="M254.1,193c1.7-3,5-4.9,4.1-8.9c-0.3-1.2,1.5-0.8,2.4-0.9c9.3-0.7,18.6-0.7,27.9-0.7
	c47.4-0.1,94.7-0.2,142.1-0.3c4.6,0,4.7,0,3.6,4.4c-0.5,1.9-1,3.8-1.6,5.6c-0.4,1.4-1.4,2.3-3,2.2c-0.7,0-1.5,0-2.2,0
	c-55.3-0.2-110.6-0.3-165.9-0.5C259.2,193.9,256.8,193.9,254.1,193z"/>
<path class="st1" d="M272.9,375.6c-5.5,0-10.9-0.1-16.4,0c-2.7,0.1-2.9-1.4-2.3-3.2c3.4-10,6.9-20,10.3-30c0.7-1.9,1.8-2.8,4-2.7
	c7.1,0.2,14.1,0.3,21.2,0c13.9-0.7,22.3,10,16,24.2c-3.3,7.6-9.6,11.2-17.7,11.6C283.1,375.8,278,375.6,272.9,375.6z"/>
<path class="st1" d="M466.2,194.6c-5.6,0-11.1-0.1-16.7,0c-2,0-2.7-0.3-2-2.5c2.2-7.3,4.3-14.6,6.5-21.9c0.8-2.6,1.6-5.1,2.4-7.7
	c0.6-2.1,1.5-3.3,4-3.2c8.9,0.2,17.8,0,26.8,0.1c9.3,0.1,15.6,10.2,13.3,18.5c-2,7-5.1,12.5-12.1,15.4c-2.5,1-5.1,1-7.6,1.1
	C475.9,194.6,471,194.5,466.2,194.6C466.2,194.5,466.2,194.6,466.2,194.6z"/>
<path class="st1" d="M224.6,340.3c-2.8,7.6-5.3,15.4-8.4,23c-3.1,7.5-10.2,12.8-18.4,12.5c-6.4-0.3-10.3-4.8-8.7-10.9
	c1.3-4.9,3-9.7,4.6-14.5c1.1-3.2,2.4-6.2,3.7-9.3c0.5-1.2,5.7-2.3,6.8-1.3c1.4,1.2,0.4,2.7,0,4c-2.2,6.1-4.6,12.1-6.5,18.2
	c-0.6,2-1.5,4.9,1.3,6.3c2.5,1.3,5.1,0.4,7-1.6c1.4-1.5,2.5-3.2,3.2-5.2c2-5.9,4.4-11.7,6.1-17.7c1-3.5,2.8-4.7,6.3-4.1
	C222.6,339.8,223.6,339.5,224.6,340.3z"/>
<path class="st1" d="M230.6,375.7c-2.9,0-5-0.4-7.2-1.2c-2.3-0.8-2.3-1.6-1.3-3.4c1.5-2.7,2.5-5.5,6.9-3.1c2.1,1.2,5.5,1.2,8-1
	c2.5-2.2,2.4-4.5-0.4-6.1c-1-0.5-2-1-3-1.5c-5.3-2.8-5.7-8-2.2-13.6c3.5-5.5,14.5-8.8,20.6-6.2c1.1,0.5,1.9,1.1,1,2.8
	c-1.8,3.2-3.4,5.7-7.6,3.5c-2.1-1.1-4.2,0.2-6,1.1c-1.9,0.9-1.8,4-0.1,5.2c0.2,0.1,0.5,0.1,0.7,0.3c3.6,2,7.9,3.7,7.4,8.9
	c-0.5,6.1-4.4,10.1-9.7,12.5C235.4,375.2,232.8,376.3,230.6,375.7z"/>
<path class="st1" d="M171.1,375.4c-2.6,0-5.2-0.1-7.8,0c-2.2,0.1-2.6-1.2-2-2.8c3.2-8.8,6.4-17.5,9.6-26.3c0.2-0.7,0.3-1.4,0.5-2.1
	c1.1-4.1,3.6-5.6,7.8-4.6c2.1,0.5,1.2,1.9,0.9,2.9c-1.5,4.7-3.1,9.5-4.9,14.1c-1.3,3.1-1.9,6.5-3.5,9.5c-0.8,1.4-0.2,2.5,1.9,2.4
	c2.6-0.2,5.2,0,7.8-0.1c1.9,0,2.7,0.3,1.9,2.5c-1,3.1-2.3,5.2-6.1,4.6C175.1,375.2,173.1,375.4,171.1,375.4z"/>
<g>
	<path class="st5" d="M306.5,417.4c0.2,0.1,2.1-1,2.4,1.1c0.4,2.8-1.6,5.2-4.1,5c-1.1-0.1-3.6,1.2-3-1.6
		C302.3,419.8,301.4,416.3,306.5,417.4z"/>
	<path class="st5" d="M105.7,414.5c0.9,4.2-1.9,4.2-4.8,4c-1.7-0.1-2-0.9-1.9-2.4c0.4-3.9,1.3-4.6,5.5-4.3
		C106.5,412.1,106.3,413.1,105.7,414.5z"/>
	<path class="st5" d="M112.8,412c1,0.2,3.3-0.9,2.8,1.8c-0.5,2.2-0.2,5.3-4.1,4.7c-1.2-0.2-3.4,0.6-2.9-1.5
		C109.2,415,107.6,410.6,112.8,412z"/>
	<path class="st5" d="M294.9,417c2.4,0.3,4.5-0.5,4.1,2.3c-0.3,2.2-0.1,4.9-3.8,4.3c-1.5-0.2-3.4,0.5-3.1-2.2
		C292.4,419,292.1,416.3,294.9,417z"/>
	<g>
		<path class="st5" d="M424.4,448c4.8,0,9.7-0.1,14.5,0c2,0,3-0.6,3-2.7c0-1.2,0.1-2.5,0.6-3.6c1.2-3.2,0.5-5.8-2.1-7.9
			c-2.9-2.4-6.2-2.7-9.6-1.2c-2.3,1-4.2,2.4-5.7,4.4c-0.6,0.7-0.9,1.9-2,2c-1.9,0.1-4.4,1-5.6-0.4c-1.2-1.4,0.6-3.3,1.5-4.6
			c5-7.1,15.4-10.7,22.3-8c5.1,2,9,6.5,9.2,12c0,1.2,0,2.5,0,3.7c-0.1,4.9,0.6,5.7,5.5,6.2c5.3,0.5,8.5-1.2,9.1-5.3
			c1.5-9.4,3-18.9,4.5-28.3c0.4-2.3,3.3-3.3,7-2.4c2.6,0.6,0.9,2.3,0.8,3.5c-0.7,4.8-1.4,9.6-2.2,14.4c-0.7,4-1.6,7.9-1.9,11.9
			c-0.3,4,1,5.8,4.9,6.1c8.7,0.7,9.3-0.2,10.5-9.4c1-8,2.7-16,3.8-24c0.7-4.7,4.1-2.4,6.3-2.5c3.1-0.2,1.3,2.2,1.1,3.4
			c-1.9,12.2-4,24.4-5.8,36.7c-0.3,1.9-1.1,2.5-2.9,2.5c-5.2,0-10.4,0-15.6,0c-0.7,0-1.7,0-2.1-0.4c-3.4-3.9-6.6-1.7-10.2-0.4
			c-4,1.4-8.5,1.9-12.4-0.8c-0.9-0.6-1.9-0.9-2.3-0.3c-1.8,2.9-4.5,1.8-6.9,1.8c-10.8,0.1-21.6,0.2-32.4,0c-3.1-0.1-4.8,0.8-6.2,3.8
			c-3.5,7.7-10.3,11.4-18.6,10.8c-2.3-0.1-3.7-0.8-3.5-3.5c0.1-2.7,1.1-3.7,3.9-3.4c4,0.5,7.6-0.1,10.3-3.5c0.7-0.9,1.7-2,1.1-3.3
			c-0.6-1.2-1.9-0.8-3-0.9c-0.6,0-1.2-0.1-1.9,0c-7.4,0.7-12.5-4.4-11.5-12.4c0.8-7.1,5-14.6,12.5-16.6c9.1-2.4,15.9,2.4,15.8,11.7
			c0,1.2-0.2,2.4-0.4,3.7c-1,6.9-1,6.9,5.9,6.9C417,448,420.7,448,424.4,448z M395.3,448.1c2.5,0.7,3.8-1,4.1-3.9
			c0.3-2.5,0.8-5.1,0.5-7.7c-0.2-2.1-1-3.9-3-4.5c-2-0.6-4-0.2-5.7,1.4c-2.5,2.4-4.5,9.3-3.1,12.2
			C389.3,448.2,392.1,447.8,395.3,448.1z"/>
		<path class="st5" d="M227.4,454.7c-4.1-0.3-8.9,1.2-12.7-2.6c-0.8-0.8-1.8,0.1-2.6,0.7c-7.9,5.2-14.3,5.2-21.7-0.3
			c-0.9-0.6-1.6-0.9-2.3-0.3c-4.2,3.7-9.4,2.5-14.2,2.6c-6.2,0.1-6,0.1-5-6.1c2-11.2,3.8-22.5,5.6-33.7c0.5-2.9,2-3.6,6.6-2.9
			c2.8,0.4,1.5,2.5,1.3,3.7c-1.6,9.9-3.4,19.8-5.1,29.7c-0.3,1.6,0.1,2.5,2,2.7c5.4,0.5,8.7-1.9,9.4-7.4c1.5-10.4,14-17,23.5-12.3
			c4.3,2.2,6.3,6.4,5.7,12c-0.7,6.3,0.4,7.6,6.9,7.7c0.9,0,1.8-0.1,2.6,0c2.6,0.4,3.4-0.5,3.8-3.3c1.4-9.9,3.2-19.8,4.9-29.7
			c0.4-2.6,5.4-4.3,7.5-2.8c0.8,0.6,0.5,1.3,0.4,2c-1.8,11.4-3.6,22.8-5.6,34.1c-0.4,2.1,0.8,5-1.5,6.1c-1.9,0.8-4.4,0.3-6.6,0.3
			C229.4,454.7,228.6,454.7,227.4,454.7z M209.7,441.4c0.2-4.3-0.9-6.7-3.6-7.8c-2.8-1.1-4.8,0.6-6.7,2.4c-2.2,2-2.7,4.8-3.1,7.4
			c-0.4,2.2,0.9,4.6,3,5.8c2.1,1.2,4.5,0.9,6.6-0.6C208.8,446.5,209.6,443.4,209.7,441.4z"/>
		<path class="st5" d="M150.6,454.7c-4.1-0.5-9.3,1.5-13.2-2.8c-0.7-0.8-2.1,0-3.1,0.6c-6.3,3.8-13.2,2-19.9,2
			c-0.8,0-2.1-0.7-2.5-1.4c-1.8-3.2-3.7-3.1-6.7-1.3c-4.1,2.5-9,1.5-12.3-1.5c-3.4-3-4.3-8.4-2.4-13.7c2.5-6.7,7.6-10.2,14.9-10.3
			c3.5,0,6.9,0,10.4,0c1.8,0,2.3,0.6,2,2.4c-0.8,5-1.4,9.9-2,14.9c-0.1,1.2-0.2,2.4,1.1,3.3c2.4,1.6,11.4,1.6,13.5-0.4
			c2.5-2.4,2.3-5.8,3-8.8c0.4-2,0.5-4.1,0.9-6.2c0.3-1.8,0.9-2.5,2.8-2.5c6.4,0.3,5.3-1.1,4.8,5.2c-0.2,3.1-1.4,6-1.4,9.1
			c0,2.2,1.1,3.6,3,4.2c3.1,0.9,6.4,0.6,9.6,0.3c1.6-0.1,1.8-1.8,2-3.2c1.5-10.1,3-20.1,4.7-30.2c0.8-4.7,4.6-2.2,6.9-2.3
			c2.7-0.2,1.4,2.2,1.2,3.5c-1.3,8.3-2.6,16.6-4.1,24.9c-0.7,3.7-1.4,7.4-1.8,11.2c-0.2,2-1.3,3.2-3.8,2.9
			C155.9,454.5,153.5,454.7,150.6,454.7z M105.9,433.2c-5.9,0-8.8,2.8-8.8,7.9c-0.1,4.3,3.7,6.6,7.6,4.5c3.2-1.8,4.1-4.7,4.5-8.1
			C109.6,434.2,109.3,432.3,105.9,433.2z"/>
		<path class="st5" d="M341.1,454.7c-4.5,0-8.9,0-13.4,0c-1.1,0-3.2,0.2-2.4-1.5c0.8-1.7-1.4-5.4,2.3-5.1c4.7,0.3,5.1-2.1,5.5-5.7
			c0.6-5.8,1.6-11.7,2.8-17.4c0.8-3.7,4-1.6,6.1-1.9c2.4-0.3,1.9,1.6,1.7,3.1c-1,6.2-2.1,12.3-3.2,18.5c-0.4,2.4,0.2,3.3,2.8,3.4
			c7.2,0.3,7.8-0.4,8.6-7.7c0.8-7.5,2.3-14.9,3.6-22.4c0.2-1.2,0.7-2.4,0.7-3.6c-0.1-2,0.8-2.4,2.6-2.4c5.5-0.1,5.5-0.2,4.6,5.2
			c-1.8,11.2-3.6,22.5-5.2,33.7c-0.4,3.1-1.7,4.1-4.8,3.9C349.3,454.5,345.2,454.7,341.1,454.7z"/>
		<path class="st5" d="M298.6,454.7c-5.9,0-11.9,0-17.8,0c-5.6,0-8.8-3-9-8.5c-0.1-2.1,0.1-4.2,0.2-6.3c0.1-2.4,1.1-3.4,3.7-3.4
			c3.1-0.1,3.8,0.6,3.2,3.7c-1,5.7,1,7.7,6.8,7.7c8.2,0.1,16.4,0,24.5,0.1c2.6,0,3.6-0.7,3.8-3.5c0.3-4.5,1.2-9,2.2-13.4
			c0.9-4,4.3-1.5,6.5-1.9c2.7-0.5,1.2,1.8,1.1,2.7c-0.9,6.9-2,13.8-3,20.7c-0.3,2.1-1.7,2.1-3.3,2.1
			C311.2,454.7,304.9,454.7,298.6,454.7z"/>
		<path class="st5" d="M375,412c3.5-0.7,4.2,0.6,3.5,3.7c-1.5,7.7-2.7,15.4-4,23.1c-0.8,4.5-1.5,8.9-2.2,13.4
			c-0.7,4.3-4.1,2.2-6.2,2.4c-2.8,0.2-1.4-2.1-1.2-3.2c1.7-11,3.5-22,5.3-32.9c0.1-0.7,0.3-1.5,0.3-2.2
			C370.2,412.8,371.5,411.1,375,412z"/>
		<path class="st5" d="M248.3,454.6c-3.5,0.7-4.1-0.2-3.3-3.6c1.5-6.9,2.3-14,3.5-21c0.9-5.3,1.8-10.6,2.8-15.9
			c0.8-4.4,4.2-1.7,6.2-2c2.6-0.3,1.3,1.8,1.1,3.1c-1.4,12-3.9,23.8-5.7,35.8C252.4,454.2,251.2,455.4,248.3,454.6z"/>
		<path class="st5" d="M137.6,467.7c-1.7,0.1-3.5,0.2-3-2c0.5-2.2-0.2-5.6,4-4.8c1.3,0.2,3.3-0.7,2.9,1.9
			C141.1,465.1,141.4,468.2,137.6,467.7z"/>
		<path class="st5" d="M129,460.9c1.1,0.2,3.2-0.9,2.8,1.8c-0.3,2.3,0.4,5.2-3.6,5.1c-1.9-0.1-3.6-0.1-3.2-2.6
			C125.3,462.7,125.2,460,129,460.9z"/>
	</g>
</g>
</svg>
