<?xml version="1.0" encoding="utf-8"?>
<!-- Generator: Adobe Illustrator 24.1.0, SVG Export Plug-In . SVG Version: 6.00 Build 0)  -->
<svg version="1.1" id="Layer_1" xmlns="http://www.w3.org/2000/svg" xmlns:xlink="http://www.w3.org/1999/xlink" x="0px" y="0px"
	 viewBox="0 0 1000 1000" style="enable-background:new 0 0 1000 1000;" xml:space="preserve">
<style type="text/css">
	.st0{display:none;fill:#FEFEFE;}
	.st1{fill:#2E3577;}
	.st2{fill:#FCFCFD;}
</style>
<g>
	<path class="st0" d="M483.7,804.6c-116.2,0-232.4,0-348.6,0c-2.1,0-2.7-0.3-2.7-2.6c0.1-194.5,0.1-389,0-583.5
		c0-2.4,0.6-2.8,2.9-2.8c232.3,0.1,464.6,0.1,696.9,0c2.2,0,2.9,0.3,2.9,2.8c-0.1,194.5-0.1,389,0,583.5c0,2.2-0.6,2.6-2.7,2.6
		C716,804.6,599.8,804.6,483.7,804.6z M645.4,536.7c2.8-2.9,5.2-5.7,7.9-8.1c1.5-1.4,1.3-2.4,0.5-3.9
		c-16.7-30.4-33.4-60.8-50.1-91.1c-2.9-5.3-2.9-5.3,1-9.8c20.4-24,39.2-49.1,50.3-79.1c3.9-10.6,5.3-21.4,1.6-32
		c-8-23-24.1-37.4-48-42.7c-14.8-3.3-29.7-3.4-44.7-1.8c-2.3,0.2-4.2,1-5.9,2.6c-5.4,5.1-11,10-16.5,15c-2.2,2-2.1,2.8,0.6,4
		c0.7,0.3,1.5,0.4,2.2,0.4c21.1,0.3,42.1,0.6,63.2,0.9c4.9,0.1,6.1,1.3,5.4,6.3c-0.8,6.1-3.4,11.6-6,17.1
		c-6,12.2-13.1,23.8-20.5,35.2c-4.9,7.5-10.1,14.7-16.6,21.3c-3.1-5.6-6.1-11.1-9.1-16.6c-12.8-23.5-25.7-47-38.5-70.5
		c-0.8-1.5-1.5-1.4-2.6-0.6c-3.2,2.1-6.5,4.2-9.8,6.2c-1.4,0.8-1.5,1.5-0.7,2.9c3.3,5.4,6.5,10.9,9.7,16.4
		c13.6,23.2,27.3,46.3,40.9,69.5c0.8,1.3,1.2,2.2-0.2,3.4c-6.1,5.4-12.1,10.8-18,16.3c-1.4,1.3-2,1.1-2.9-0.5
		c-5.5-10.3-11.1-20.5-16.7-30.7c-5.9-10.9-11.9-21.8-17.9-32.7c-0.5-1-0.9-2.3-2.5-1.1c-2.8,2.1-5.6,4.1-8.5,6
		c-1.1,0.7-0.9,1.3-0.3,2.3c2.8,4.8,5.5,9.7,8.2,14.6c9.3,16.5,18.6,33.1,27.9,49.6c0.8,1.3,1.4,2.2-0.4,3.5
		c-3.5,2.5-6.9,5.3-10.2,8.1c-1.1,0.9-1.4,0.7-2-0.5c-2.6-4.9-5.3-9.6-7.9-14.4c-4-7.2-8-14.4-12.1-22c-2.2,3.1-4.1,6-6.3,8.7
		c-1.4,1.7-1.4,2.9-0.4,4.8c5.3,10.1,10.5,20.4,15.8,30.6c0.5,1,1.2,1.8-0.3,2.9c-5.6,3.9-11,8.1-16.5,12.1
		c-0.6-1.3-1.1-2.5-1.7-3.6c-8.8-16.3-17.6-32.5-26.5-48.8c-0.8-1.4-1.1-2.6-0.2-4.2c5.9-10.3,11.6-20.6,17.4-31
		c6.9-12.3,13.7-24.6,20.5-36.8c1.3-2.2,0.9-4.3-0.5-6.2c-1.5-1.9-3.5-1.2-5.3-0.5c-2.2,0.8-3.6,2.3-4.8,4.4
		c-12.9,23-25.9,46-39,68.9c-1.1,1.9-1.1,3.4-0.2,5.2c8.6,17.4,17.1,34.9,25.7,52.4c1.2,2.5,3.8,5.5,3.2,7.4
		c-0.7,2.2-4.4,3.4-6.6,5.2c-1.7,1.3-2.4,0.9-3.5-0.8c-7.3-11.9-14.6-23.8-22-35.7c-2.7-4.4-5.5-8.9-8.5-13.7
		c-12.3,22.3-24.4,44.2-36.9,66.8c10.1,0,19.5,0.1,28.8-0.1c2.4,0,3.1,0.9,3.7,2.9c0.6,2.3-1,2.3-2.3,2.9
		c-10.1,4.6-20.5,8.4-31.2,11.5c-12.2,3.6-24.5,6.4-37.2,6.9c-4.4,0.2-8.8,0.1-13.5-0.7c3.7-6.3,7.2-12.2,10.6-18.2
		c20.5-35,41-70,61.6-105c13.8-23.5,27.6-47,41.4-70.6c1.5-2.6,2.7-2.8,4.8-0.5c1.5,1.5,2.5,3.4,3.5,5.3c1,1.9,2.7,3.5,4.5,3.8
		c1.2,0.2,1.5-2.5,2.3-3.8c0.4-0.7,0.7-1.6,1.2-2.3c0.9-1.5,0.8-2.7-0.1-4.2c-2.2-3.6-4.2-7.4-6.4-11c-0.7-1.2-0.7-2.2,0-3.4
		c3-5.1,5.8-10.2,8.7-15.4c1.9-3.5,3.9-6.9,6-10.7c4.4,6.4,8.6,12.3,12.6,18.2c1.1,1.6,1.8,1.9,3.2,0.5c2.6-2.4,5.3-4.8,8.1-7
		c1.5-1.2,1.4-2.1,0.6-3.5c-4.1-7.6-8.2-15.3-12.3-23c-3.2-6-6.4-12-9.7-18.2c-0.4,0.7-0.7,1.1-0.9,1.5
		c-7.8,13.3-15.5,26.6-23.3,39.9c-21.8,37.5-43.6,74.9-65.5,112.3c-1.6,2.7-2.6,5.9-5.2,7.9c-10.8,8.3-21.1,17.2-30.8,26.8
		c-17.6,17.5-33,36.8-44.4,58.9c-2.5,4.8-4.4,9.7-4.2,15.4c0.2,5.1-0.4,10.2-0.6,15.3c-0.9,17.5-1.7,35.1-2.7,52.6
		c-0.1,2,0.4,3.2,2.3,4.3c20.1,11.9,42,14.6,64.6,11.4c17.1-2.4,33.1-9.1,48.8-16.1c10.8-4.9,21.1-10.7,31.5-16.6
		c15.5-8.7,30.6-17.9,45.4-27.9c0.9-0.6,1.8-2,2.9-1.3c1.2,0.7,0.7,2.3,0.5,3.5c-0.2,2.8-1.6,5.4-1.6,8.2c0,3.8,1.2,5.1,4.9,5.1
		c29.8,0,59.5,0,89.3,0c3.8,0,4.7-1.5,2.9-4.8c-10.7-19.7-21.5-39.4-32.3-59c-1-1.8-1-2.8,0.7-4.3c5.7-4.9,11.3-10,16.7-15.2
		c1.6-1.6,2.1-1,3,0.6c8.9,15.6,17.8,31.1,26.7,46.6C626.7,504.2,636,520.3,645.4,536.7z M529.1,620.9c-1.2,0.4-2.1,0.8-3,0.9
		c-2.9,0.4-3.6,2-3.5,4.7c0.2,4.4,0.1,8.9,0.1,13.3c0,8.7-0.1,8.8-8.7,8.4c-0.1,0-0.2,0-0.3,0c-1.4,0.1-1.9-0.4-1.9-1.8
		c0.1-1,0-1.9-0.1-2.9c-0.9-5.3-2.6-10.1-8.2-12c-5.8-2-10.8-0.4-15.1,3.8c-1.3,1.3-2.5,2.8-4,4.5c0-1.6,0-2.7,0-3.9
		c0-0.7,0.1-1.3-1-1.4c-3.2-0.1-5.3,2-5.4,5.2c-0.1,2.7,1.1,6.2-0.5,7.8c-1.8,1.8-5.3,0.3-8.1,0.6c-2.3,0.3-2.8-0.7-2.7-2.8
		c0.1-4,0.1-7.9,0-11.9c0-0.6,0.4-1.4-0.6-1.7c-2.3-0.5-5.8,2.4-5.8,4.7c0,4.8,0.1,9.7,0,14.5c-0.2,5.2-3.7,7.8-8.8,6.9
		c-2-0.3-3.8-1.2-6.2-2.2c1.4,2.6,1.4,5.5,3.5,6.6c7.1,3.8,15.1,0.4,16.9-5.7c0.7-2.5,1.9-2.7,4-2.7c15.9,0.1,31.9,0,47.8,0
		c2.6,0,5-0.2,7.2-1.8c0.5-0.3,1-0.8,1.6-0.3c3.9,3.1,8.5,2,12.9,2c6.3,0,9.6-3.5,9.7-9.8c0-2.5,0-5,0-7.5c0-5.3,0-10.6,0-16
		c-1.4,0.4-2.4,0.8-3.4,1c-2.5,0.4-3.2,1.7-3.1,4.2c0.2,4.6,0.1,9.3,0.1,13.9c0,8.3,0,8.3-8.3,8.2c-4.7,0-5.3-0.6-5.3-5.4
		C529.1,635.6,529.1,628.4,529.1,620.9z M311.7,631.9c-6.4,1.6-6.4,1.6-6.4,7.6c0,0.3,0,0.6,0,0.9c0,7.9,0,7.9-8,7.9
		c-4.7,0-4.6,0-4.9-4.5c-0.3-5.5-2.1-10.2-7.6-12.3c-5.3-2.1-10.3-0.9-14.6,2.7c-0.7,0.6-2.5,1.5-0.8,2.6c1.3,0.9,1.5,4.4,4.5,2.1
		c2.4-2,5.3-3.1,8.3-1.7c2.9,1.4,3.3,4.3,3.6,7.1c0.1,0.7,0,1.4,0,2c0.2,1.5-0.5,2-2,2c-6.8-0.1-13.5-0.1-20.3,0
		c-1.6,0-2-0.6-1.9-2.1c0.1-2.6,0.1-5.2-0.5-7.8c-0.9-3.8-2.7-6.8-6.7-7.9c-4.2-1.2-8.2-0.6-11.2,2.8c-3.7,4.2-4.1,9.3-2.2,14.4
		c1.6,4.2,4.9,6.3,9.4,6.6c1.4,0.1,2.8,0,4.6,0c-1.4,3.2-3.7,4.1-6.4,4c-2.7-0.1-5.2-0.9-7.7-1.9c1.1,2.1,1,5.1,3,6.1
		c6.3,3.3,14.8,1.7,16.9-5.8c0.6-2.2,1.7-2.5,3.6-2.5c12,0.1,24,0,36,0c2.6,0,5-0.2,7.2-1.8c0.5-0.3,1-0.8,1.6-0.3
		c4,3.1,8.7,2,13.2,2c5.6,0,9.1-3.1,9.3-8.3c0.3-7.8,0.1-15.7,0.2-23.5c0-0.5,0.2-1.2-0.7-1.3c-2.3-0.5-5.7,2.3-5.7,4.8
		c0,6,0,12,0,18c0,3.6-0.9,4.4-4.5,4.4c-1.6,0-3.3,0-4.9,0c-3.1-0.1-4.1-1.1-4.1-4.3C311.6,640,311.7,636.1,311.7,631.9z
		 M643.3,621.3c-2,0-3.3,0.2-4.6,0c-2.8-0.5-4.6,0.8-6.3,2.9c-3.2,4.1-6.7,8-10.2,11.9c-1.4,1.6-1.8,2.6,0.1,4.1
		c1.3,1,2,1.3,3.6,0.3c6.7-4.5,13.8-1.8,14.9,5.3c0.2,1.6,0.2,2.5-1.9,2.5c-7.7-0.1-15.5-0.1-23.2,0c-1.5,0-2-0.4-2-1.9
		c0.1-2.8,0.1-5.6-0.5-8.4c-1.4-6-6.8-9.3-12.8-7.7c-5.8,1.5-8.9,7.1-8.1,14.2c0.7,5.8,4.9,9.6,10.7,9.8c0.9,0,1.7,0,2.6,0
		c1.4,0,1.4,0.7,0.7,1.6c-1.6,2.2-3.9,2.7-6.5,2.4c-2.4-0.3-4.6-0.9-6.9-2c1.1,2.2,0.9,5.2,3.1,6.3c6.7,3.4,14.8,1.4,16.9-5.9
		c0.6-2.1,1.5-2.4,3.4-2.4c8.3,0.1,16.6,0,24.9,0c6,0,6,0,6.4-5.9c0.5-7.3-3-13.1-9.1-15.1c-1.7-0.6-3.5-0.3-5.7-0.6
		C636.5,628.8,639.7,625.3,643.3,621.3z M754.4,621.3c-2.7,0-4.7,0-6.7,0c-1.1,0-1.8,0.3-2.5,1.1c-4.2,4.9-8.4,9.8-12.6,14.7
		c-0.3,0.4-0.9,0.7-0.6,1.5c0.7,1.8,3.6,2.8,5.2,1.8c1.6-1.1,3.4-1.8,5.4-2c4.9-0.7,9.3,2.9,9.6,7.8c0.1,1.6-0.4,2.2-2.1,2.2
		c-7.5-0.1-15.1,0-22.6,0c-3.2,0-4.3-1.1-4.3-4.4c0-3.8-0.1-7.5,0-11.3c0-1.5-0.4-2-1.9-2c-2.9,0.1-5.8-0.1-8.7,0.1
		c-4.2,0.2-7.3,2.2-8.8,6.4c-1.3,3.7-1.2,7.4,0.1,11.1c1.5,4,4.9,6.1,9.2,6.3c2.9,0.1,5.3-2.9,7.6-2.2c2.6,0.8,5,2.2,7.9,2.2
		c7.5-0.1,15.1,0,22.6,0c8.4,0,8.4-0.1,7.8-8.7c-0.5-7.7-5.4-12.4-13-12.8c-0.5,0-1,0.1-1.3-0.8c1.5-1.6,3-3.3,4.6-5
		C750.8,625.3,752.4,623.5,754.4,621.3z M759.5,655.9c1.5,2.7,1.4,5.6,3.6,6.7c6.6,3.5,14.9,0.8,17-6c0.6-2.1,1.5-2.4,3.4-2.4
		c10.7,0.1,21.4,0.1,32.2,0c6.4,0,9.9-3.4,10-9.4c0-4.2,0-8.3,0-12.5c0-0.6,0.3-1.4-0.4-1.8c-1.3-0.7-5.9,1.9-5.9,3.5
		c0,3.7,0.1,7.3-0.1,11c-0.1,2.6-1.6,3.3-5.4,3.2c-2.8,0-1.8-1.9-1.9-3.2c-0.1-3.8,0-7.5,0-11.3c0-0.8,0.3-1.7-1.3-1.5
		c-4.2,0.7-5.1,1.6-5.1,5.8c0,1.8,0,3.7,0,5.5c-0.1,5.3,1.1,4.5-4.8,4.7c-2,0.1-2.4-0.7-2.4-2.5c0.1-3.8,0-7.7,0-11.6
		c-1.4-0.1-2.4,0.6-3.5,0.8c-2.3,0.4-3.2,1.5-2.9,4c0.2,2-0.2,4.1,0.1,6.1c0.4,2.8-0.9,3.5-3.4,3.2c-1.4-0.2-2.9-0.2-4.3,0
		c-2.7,0.4-3.7-0.4-3.5-3.4c0.3-4.3,0.1-8.6,0.1-13.2c-1.3,0.4-2.2,0.9-3.3,1c-2.6,0.3-3.3,1.7-3.2,4.3c0.2,4.6,0.1,9.3,0,13.9
		c-0.1,5.1-3.7,8-8.6,7.1C763.9,657.8,762,657.1,759.5,655.9z M415.3,654.1c0,0,0,0.1,0,0.1c2.7,0,5.4,0.1,8.1,0
		c5.9-0.3,9.3-3.8,9.4-9.6c0.1-2.6,0.1-5.2,0-7.8c-0.1-3.1-1.4-5.5-4.2-6.7c-4.2-1.7-8.5-1.8-12.7,0c-3.2,1.3-4.8,4.5-4.4,8.3
		c0.3,3.3,2.3,5.5,5.8,6.3c2.3,0.6,4.6,0.2,6.9,0.3c0.6,0,1.5-0.4,1.8,0.4c0.3,1-0.4,1.6-1.2,2.1c-0.8,0.6-1.8,0.6-2.8,0.6
		c-4.7,0-9.5,0-14.2,0c-3.2,0-4.1-1-4.2-4.2c-0.1-3.9,0-7.7,0-11.6c0-1.3-0.3-1.9-1.7-1.9c-3.1,0.1-6.2-0.1-9.3,0.1
		c-4,0.3-7,2.2-8.4,6.1c-1.4,3.8-1.4,7.8,0.1,11.6c1.7,4.4,6.3,7.1,10.7,5.6c3.8-1.3,6.9-1.5,10.7,0
		C408.6,655,412.1,654.1,415.3,654.1z M214.2,620.9c-1.4,0.4-2.4,0.9-3.4,1c-2.5,0.4-3.2,1.7-3,4.2c0.2,4.2,0.1,8.5,0.1,12.8
		c0,2,0.1,4.1,0,6.1c-0.1,2.6-1.8,3.3-4.1,3.4c-2.8,0.1-1.8-2-1.9-3.2c-0.1-6.3,0-12.6-0.1-18.9c0-0.7,0.4-1.6-0.6-2
		c-2-0.6-5.8,2.3-5.8,4.4c0,5.8-0.1,11.6,0,17.4c0,1.8-0.5,2.5-2.3,2.3c-0.9-0.1-2-0.3-2.5,0.9c-0.8,1.6-1.6,3.2-2.5,5.1
		c5.9,0,11.5,0.1,17.1,0c1.6,0,3.2-0.6,4.6-1.5c0.6-0.4,1.2-1,2.1-0.4c4.5,3.2,9.5,2.1,14.3,1.7c5.3-0.4,8-3.8,8.2-9.1
		c0.1-3.3,0-6.6,0-9.9c0-5.2,0-5.1-4.7-3.4c-1.4,0.5-1.7,1.2-1.7,2.5c0.1,1.8,0,3.7,0,5.5c0,8.6,0,8.6-8.7,8.5
		c-4.4,0-5.1-0.8-5.1-5.3C214.2,635.7,214.2,628.5,214.2,620.9z M350.2,656.2c1.3,2.3,1.3,5.2,3.2,6.3c6.1,3.4,15.6,2.1,17.4-6.6
		c1.2-5.8,1-11.7-0.1-17.6c-0.7-3.7-2.6-6.7-6.5-7.7c-4.4-1.2-8.6-0.6-11.6,3.1c-3.6,4.6-3.9,9.8-1.5,15c2,4.3,5.7,6.1,10.4,5.8
		c1-0.1,2-0.3,3-0.4C362.8,658.9,359.4,659.4,350.2,656.2z M678.3,620.8c-1.2,0.4-2,0.8-2.9,0.9c-2.7,0.5-3.7,1.9-3.5,4.7
		c0.3,5.2,0.1,10.4,0.1,15.7c0,1.1,0.1,2.1-0.1,3.2c-0.3,2.5-2.1,2.9-4.2,2.9c-2.6,0.1-1.6-1.9-1.7-3.1c-0.1-6.3,0-12.6-0.1-18.8
		c0-0.7,0.4-1.6-0.4-2.1c-1.4-0.7-5.9,2-5.9,3.5c0,5.9-0.1,11.8,0,17.7c0,2-0.3,3.2-2.6,2.8c-1.4-0.2-2.1,0.4-2.6,1.7
		c-0.6,1.4-1.3,2.7-2.1,4.3c6,0,11.6,0.2,17.2,0c5.1-0.2,8.7-3.3,8.8-7.9C678.4,638,678.3,629.5,678.3,620.8z M149.8,633.9
		c-3.9,2.8-7.1,5.2-6.5,10.6c0.7,6,3.5,9.6,9.6,9.7c7.1,0.1,14.3,0.2,21.4,0c5.9-0.1,9.3-3.7,9.4-9.5c0.1-4.2,0-8.5,0-12.7
		c0-0.5,0.2-1.2-0.4-1.6c-1.1-0.7-6,2.1-6.1,3.4c0,3.4,0,6.8,0,10.1c-0.1,3.3-0.9,4.2-4.1,4.3c-6.5,0.1-12.9,0.1-19.4,0
		c-3,0-3.9-1-4-4.1C149.8,640.9,149.8,637.6,149.8,633.9z M586.3,644.5c-2.2-3.9-4.4-7-9.1-5.9c-1.7,0.4-2.5-0.3-2.3-2.2
		c0.2-1.9,1.4-3.7,3.1-2.7c2.9,1.6,3.8-0.6,5.3-1.9c0.9-0.8,0.7-1.3-0.1-2.1c-3.9-3.6-10.4-2.5-13,2.1c-1,1.8-1.4,3.8-1.4,5.8
		c0,1.4-0.5,2.2-1.7,2.9c-5.1,3.2-7,9.8-4.8,15.6c2,5.3,8,8.7,13.8,7.9c6-0.9,6.7-1.7,6.5-7.6c0-0.1-0.2-0.3-0.3-0.6
		c-1.9,1-3.9,2.1-6.2,2.3c-4.3,0.3-7.9-2.6-8.1-6.5c-0.2-4.3,2.6-7,7.3-7.1C578.8,644.5,582.3,644.5,586.3,644.5z M220.6,698.1
		c1.7,5.6,3.3,10.9,4.8,16.3c0.5,1.7,1.1,2.8,3.3,2.7c2.3-0.1,1.9-1.8,2.2-3c0.9-3.6,1.6-7.2,2.4-10.8c1.4,4,2.3,8,3.1,11.9
		c0.2,1.1,0.6,2,2,1.8c1.1-0.2,2.4,0.4,2.8-1.2c1.7-5.9,3.5-11.7,5.2-17.5c-3.3-1.1-4.7,0.1-5.2,3.3c-0.4,3.1-1.5,6.1-2.2,9.1
		c-1.2-3.5-2.1-7-2.7-10.5c-0.3-1.7-0.8-2.3-2.6-2.2c-1.5,0.1-2.7-0.1-3,2.1c-0.5,3.6-1.5,7.1-2.2,10.6c-1.2-2.9-2-5.9-2.7-8.9
		C224.9,697.7,224.9,697.7,220.6,698.1z M737.2,711.7c-0.2,0-0.3,0.1-0.5,0.1c-0.8-3.2-1.6-6.5-2.4-9.7c-1.1-4.5-1.1-4.4-5.6-4.3
		c-1.4,0-1.8,0.4-1.8,1.8c0.1,5.1,0.1,10.2,0,15.4c0,1.5,0.4,2,2,2c1.6,0,2.2-0.3,2.2-2.1c-0.1-4,0-8.1,0-12.1
		c1.3,3.6,2.1,7.3,3.1,11c0.4,1.4,0.2,3.2,2.8,3.2c2.5,0,2.5-1.6,2.8-3.1c0.9-3.5,1.7-7,2.5-10.5c0.5,3.8,0.6,7.6,0.5,11.3
		c0,1.5,0.3,2.2,2,2.2c1.7,0,2.1-0.6,2.1-2.2c-0.1-4.8,0-9.7-0.1-14.5c0-1,0.7-2.8-1.3-2.4c-1.8,0.4-4.4-1.7-5.2,1.7
		C739.3,703.7,738.2,707.7,737.2,711.7z M343.9,637.8c0-4.9,0-9.8,0-14.8c0-0.7,0.4-1.7-0.6-2c-1.9-0.6-5.8,2.4-5.8,4.4
		c0,8.3,0,16.6,0,24.9c0,4.5-0.9,3.9,4.2,4.1c1.9,0.1,2.2-0.7,2.2-2.4C343.8,647.2,343.9,642.5,343.9,637.8z M444.8,637.7
		c0-4.9,0-9.8,0-14.8c0-0.7,0.5-1.7-0.6-2c-2.2-0.6-5.8,2.4-5.8,4.7c0,8.1,0,16.2,0,24.3c0,4.8-1,4.1,4.3,4.3c2,0.1,2.2-0.8,2.2-2.4
		C444.8,647.2,444.8,642.5,444.8,637.7z M444,711.8c0-5.2,0-5.2-5.3-5.2c-0.7,0-1.4,0-2,0c-1.2-0.1-1.4,0.5-1.4,1.6
		c-0.2,2,1.1,1.8,2.4,1.8c0.7,0,1.7-0.4,2.1,0.4c0.4,0.9-0.5,1.6-1,2.2c-0.6,0.8-1.5,1.3-2.5,1.4c-2.5,0.4-4.6-0.2-6.1-2.4
		c-1.4-2.2-1.2-6.7,0.4-8.8c1.5-2,3.6-2.4,6-1.9c1.3,0.3,2.1,1.2,2.9,2.2c1.1,1.3,3,1.1,3.9,0.5c1.1-0.7-0.1-2.1-0.8-2.9
		c-2.1-3-7-4.1-11.4-2.8c-4,1.3-5.9,4.2-6.3,8.2c-0.4,3.9,0.3,7.6,4,9.9c3.3,2.1,6.9,2.4,10.3,0.1c0.8-0.6,1.5-1.4,1.8,0.5
		c0.2,1,1.3,0.5,2,0.6c1.1,0.1,0.9-0.8,0.9-1.4C444,714.3,444,713.1,444,711.8z M363.7,707.4c0,2.3,0,4.6,0,6.9c0,1.6,0,2.6,2.2,2.6
		c2.4,0,2.1-1.2,2.1-2.7c0-1.4,0.1-2.9,0-4.3c-0.1-1.2,0.3-1.6,1.6-1.7c6.4-0.4,6.4-0.5,6.4,5.8c0,0.3,0,0.6,0,0.9
		c-0.3,1.8,0.7,2,2.2,2c1.5,0,2.3-0.3,2.2-2.1c-0.1-4.8-0.2-9.6,0-14.5c0.1-2.3-0.7-2.7-2.8-2.6c-3.1,0.2-1.6,2.5-1.5,3.6
		c0.1,2.6-0.4,3.7-3.4,3.5c-4.7-0.3-4.7-0.1-4.7-4.7c0-1.7-0.2-2.5-2.3-2.5c-2,0-2.1,0.9-2.1,2.4C363.8,702.6,363.7,705,363.7,707.4
		z M486.3,713.5c-0.3-1.8-4.4-2-1.1-4.7c2.1-1.7,2.3-4.3,0.9-6.2c-1.5-2-5.2-2.5-7.7-1c-2.3,1.4-2.8,3.6-1.6,5.7
		c1,1.8,0.5,2.6-0.9,3.6c-2,1.4-2.8,3.5-2.1,5.9c0.6,2.3,2.3,3.4,4.6,3.9c2.4,0.5,4.6,0.2,6.7-0.9c0.6-0.3,1.2-1.1,2-0.2
		c1.6,1.6,3.4,0.7,5.5,0.6c-1.2-1.4-2.5-2.3-3-3.6c-0.7-1.5,1.2-2.7,1.4-4.1c0-0.3,0.1-0.6,0.2-0.8c0.5-1.2,0-1.4-1.1-1.6
		C487.3,709.6,487.6,712,486.3,713.5z M537,716.7c-1.9-2.6,0.5-6.2-2.4-8.6c-0.5-0.4,0-0.8,0.4-1.1c2.1-1.6,2.4-3.7,1.4-6
		c-1.1-2.4-3.3-3.1-5.7-3.2c-2.8-0.1-5.6,0.1-8.4-0.1c-1.8-0.1-2.5,0.4-2.4,2.3c0.1,4.8,0.1,9.6,0,14.5c0,1.7,0.3,2.4,2.2,2.4
		c1.8,0,2.3-0.6,2.3-2.3c0-1.7-0.9-4,0.4-4.9c1.5-1,3.9-0.7,5.9-0.1c1.4,0.4,1.3,1.9,1.4,3.2C532.1,717.2,532.1,717.2,537,716.7z
		 M794.7,704.5c0.2-0.1,0.4-0.1,0.6-0.2c2.3,3.7,4.8,7.4,6.9,11.2c1.1,2,2.8,1.5,4.3,1.3c1.6-0.2,0.9-1.7,0.9-2.6
		c0.1-4.7,0-9.5,0.1-14.2c0-1.5-0.3-2.2-2-2.2c-1.6,0-2.2,0.5-2.1,2.1c0.1,3.4,0,6.8,0,10.3c-0.9-0.1-1-0.6-1.3-1
		c-2.1-3.4-4.3-6.7-6.2-10.1c-1.1-2-2.9-1.3-4.3-1.2c-1.7,0.1-0.9,1.6-0.9,2.5c-0.1,4.8,0,9.7-0.1,14.5c0,1.5,0.4,2,1.9,2
		c1.6,0,2.2-0.4,2.2-2.1C794.7,711.4,794.7,708,794.7,704.5z M654.5,716.7c-1.5-2.9,0.4-6.5-2.5-8.8c-0.3-0.2,0.2-0.6,0.5-0.9
		c2-1.6,2.5-3.6,1.4-5.9c-1.1-2.4-3.3-3.1-5.7-3.2c-3-0.1-6,0-9-0.1c-1.4,0-1.8,0.5-1.8,1.8c0.1,5,0.1,10,0,15.1
		c0,1.9,0.6,2.2,2.3,2.2c2.2,0.1,1.9-1.2,2-2.6c0.1-1.6-0.8-3.9,0.4-4.7c1.6-1,4-0.6,5.9-0.1c1.5,0.4,1.3,1.9,1.4,3.2
		C649.7,717.2,649.7,717.2,654.5,716.7z M573.8,711c-0.7-1-1-1.4-1.2-1.8c-2-3.3-4.2-6.5-6.1-9.8c-1.2-2.1-2.9-1.6-4.5-1.4
		c-2,0.1-0.9,1.8-0.9,2.7c-0.1,4.6,0,9.3-0.1,13.9c0,1.6,0.1,2.4,2.1,2.4c2.2,0,2-1.1,2-2.5c0-3.5,0-6.9,0-10.4
		c2.9,3.8,5.4,7.6,7.7,11.6c1.1,1.8,2.7,1.3,4.1,1.2c1.7-0.1,0.9-1.6,1-2.5c0.1-4.7,0-9.5,0.1-14.2c0-1.6-0.2-2.4-2.1-2.4
		c-1.7,0.1-2,0.7-2,2.2C573.9,703.4,573.8,706.7,573.8,711z M417.8,710.2c-0.2,0-0.3,0.1-0.5,0.1c-2.3-3.8-4.7-7.5-7-11.3
		c-1.2-2-2.9-1.2-4.4-1.1c-1.6,0.1-0.8,1.7-0.8,2.6c-0.1,4.8,0,9.6-0.1,14.5c0,1.5,0.4,2,2,2c1.6,0,2.2-0.3,2.2-2.1
		c-0.1-3.6,0-7.2,0-10.8c2.9,3.7,5.3,7.5,7.6,11.4c1.1,1.9,2.8,1.5,4.3,1.3c1.5-0.2,0.8-1.7,0.8-2.6c0.1-4.7,0-9.5,0.1-14.2
		c0-1.5-0.2-2.2-2-2.2c-1.9,0-2.2,0.7-2.2,2.3C417.9,703.5,417.8,706.8,417.8,710.2z M713.9,717.5c6,0,10-4,9.9-10
		c-0.1-6.1-3.9-10.1-9.8-10.1c-5.9,0-9.8,3.9-9.9,10C703.9,713.4,707.9,717.5,713.9,717.5z M305,707.2c0,2.6,0.1,5.2,0,7.8
		c-0.1,1.5,0.5,2,2,1.9c3.9-0.1,7.7-0.1,11.6,0c1.3,0,2.2-0.1,2.2-1.8c0-1.6-0.9-1.6-2-1.6c-2.3,0-4.6-0.1-7,0
		c-1.8,0.1-2.5-0.4-2.5-2.3c0-1.9,0.3-2.9,2.5-2.6c1.9,0.2,3.9,0,5.8,0.1c1.5,0.1,1.8-0.5,1.8-1.9c0-1.4-0.7-1.5-1.8-1.5
		c-2.1,0.1-4.3-0.1-6.4,0c-1.6,0.1-1.9-0.6-1.9-2c0-1.3,0.1-2.2,1.8-2.1c2.5,0.1,5,0,7.5,0.1c1.3,0,1.6-0.5,1.6-1.7
		c0-1.2-0.3-1.7-1.6-1.7c-4,0.1-7.9,0.1-11.9,0c-1.4,0-1.9,0.4-1.8,1.8C305,702.1,305,704.7,305,707.2z M690.5,637.7
		c0-4.9,0-9.8,0-14.8c0-0.6,0.3-1.5-0.4-1.9c-1.3-0.8-6,2.2-6,3.8c0,9.1,0.1,18.1-0.1,27.2c0,2.9,1.7,2.2,3.2,2.2
		c1.4,0,3.4,0.9,3.3-2.1C690.4,647.3,690.5,642.5,690.5,637.7z M448.1,707.2c0,2.6,0.1,5.2,0,7.8c-0.1,1.5,0.5,2,2,2
		c4-0.1,7.9-0.1,11.9,0c1.3,0,1.9-0.2,1.9-1.7c0-1.5-0.5-1.8-1.9-1.7c-2.5,0.1-5-0.1-7.5,0.1c-1.9,0.1-2-0.9-1.9-2.3
		c0.1-1.2-0.5-2.9,1.8-2.7c1.7,0.1,3.5,0.1,5.2,0c1.2-0.1,3,0.9,3-1.7c0-2.5-1.8-1.4-2.9-1.5c-1.8-0.2-3.7-0.1-5.5,0
		c-1.9,0.1-1.6-1.1-1.7-2.2c-0.1-1.3,0.3-1.9,1.8-1.9c2.5,0.1,5,0,7.5,0c1.4,0,1.6-0.6,1.6-1.8c0-1.2-0.4-1.7-1.7-1.7
		c-4,0.1-7.9,0.1-11.9,0c-1.4,0-1.9,0.4-1.8,1.8C448.1,702.1,448.1,704.6,448.1,707.2z M665.6,697.3c-0.5,0-1,0-1.4,0
		c-3.8,0.4-6.5,2.6-6.7,5.6c-0.2,2.9,1.3,4.4,5.5,5.6c1.9,0.5,3.8,0.9,5.6,1.5c1.6,0.6,2,1.8,0.7,3.1c-1.6,1.6-6.3,1.4-7.3-0.6
		c-1.1-2.2-3.2-2.2-4.2-1.3c-1.2,1.1,0.2,2.8,1.2,3.9c2.9,3.1,10.6,3.1,13.6,0c2.6-2.6,1.9-7-1.6-8.3c-2.4-0.9-5-1.4-7.5-2.1
		c-0.9-0.3-1.9-0.7-1.8-1.9c0.1-1.2,0.9-1.9,2.1-2.1c2-0.3,4.1-0.4,5.4,1.7c1.1,1.8,3.1,1.4,4,0.8c1.2-0.8-0.2-2.2-0.8-3.1
		C670.6,698,668.3,697.3,665.6,697.3z M618.5,707.3c0,2.6,0.1,5.2,0,7.8c0,1.4,0.5,1.8,1.8,1.8c4.1-0.1,8.1-0.1,12.2,0
		c1.5,0,1.7-0.7,1.7-1.9c0.1-1.4-0.7-1.5-1.8-1.5c-2.6,0-5.2-0.1-7.8,0c-2.1,0.1-1.7-1.3-1.7-2.5c0-1.2-0.3-2.6,1.8-2.5
		c2.1,0.1,4.3,0,6.4,0c1.3,0,1.9-0.3,1.9-1.8c0-1.7-0.9-1.6-2-1.6c-2,0-4.1-0.1-6.1,0c-1.6,0.1-2-0.6-2-2c0-1.4,0.3-2.1,1.9-2.1
		c2.5,0.1,5,0,7.5,0.1c1.5,0.1,1.4-0.9,1.4-1.9c0.1-1-0.2-1.6-1.4-1.6c-4.1,0.1-8.1,0.1-12.2,0c-1.3,0-1.7,0.4-1.6,1.7
		C618.6,702.1,618.5,704.7,618.5,707.3z M589.2,697.3c-0.3,0-0.6,0-0.9,0c-3.9,0.2-6.7,2.3-7,5.2c-0.4,3.3,0.9,4.7,5.6,6
		c1.8,0.5,3.6,0.8,5.3,1.4c1.8,0.7,2,2.3,0.6,3.3c-1.9,1.5-6.3,1.1-7.3-1c-1.1-2.2-3.1-1.9-4.1-1.1c-1.2,0.8,0.1,2.4,0.8,3.5
		c0.3,0.5,0.8,0.9,1.2,1.2c3.6,2.2,7.4,2.1,11.1,0.5c2.3-1,3.3-2.8,3.2-5.4c-0.1-2.4-1.5-3.7-3.6-4.4c-2.3-0.7-4.7-1.2-7-1.8
		c-1-0.3-1.9-0.6-1.8-1.9c0.1-1.3,0.9-1.9,2.1-2.1c2.2-0.3,4.2-0.3,5.6,2c0.9,1.5,2.8,1.1,3.9,0.5c0.9-0.6,0-2-0.6-2.8
		C594.5,698.1,592,697.2,589.2,697.3z M219.8,716.6c-2.1-2.7-4-5.2-5.9-7.7c-2.6-3.3-2.6-3.3,0.4-6.1c1.6-1.5,3.1-3,4.9-4.7
		c-3.4-0.7-5.8-0.3-7.8,2.3c-1.4,1.8-3.1,3.3-5.2,5.4c0-2.5-0.1-4.2,0-5.9c0.2-1.9-0.5-2.2-2.3-2.2c-1.9,0-2.2,0.7-2.2,2.4
		c0.1,4.7,0.1,9.5,0,14.2c0,1.6,0,2.6,2.2,2.7c2.2,0,2.3-1.1,2.2-2.7c-0.1-1.1,0-2.1,0-3.2c0-1.2,0.9-1.7,1.7-2.2
		c1-0.5,1.2,0.7,1.6,1.2c1,1.2,2.1,2.4,2.7,3.7C213.7,717.2,216.3,717.3,219.8,716.6z M683.4,707.5c0,5.1,2.4,8.5,6.7,9.6
		c4.4,1.1,8.8-0.4,10.6-3.8c0.5-0.9,1.4-2.1,0.5-2.9c-0.7-0.5-2-0.3-3.1-0.3c-0.9,0-0.9,0.9-1.2,1.5c-1,1.8-2.7,2.5-4.6,2.3
		c-2-0.2-3.4-1.3-4.1-3.2c-0.6-1.8-0.7-3.6-0.3-5.4c0.5-2.2,1.5-3.9,3.7-4.4c2.2-0.5,4.2,0,5.4,2.2c1,1.9,3,1.3,4,0.7
		c1.1-0.6-0.1-2-0.6-3c-0.6-1.1-1.6-1.9-2.8-2.5C690.6,694.7,683.3,699.3,683.4,707.5z M751,707.2c0,2.6,0.1,5.2,0,7.8
		c-0.1,1.9,0.9,2,2.3,1.9c1.3,0,2.1-0.1,2.1-1.8c0.2-4.8,0.3-4.8,4.9-5c0.1,0,0.2,0,0.3,0c4-0.3,6.2-2.4,6.3-6.1
		c0-3.6-2.2-5.9-6.3-6.1c-2.6-0.1-5.2,0-7.8-0.1c-1.4,0-1.9,0.4-1.8,1.8C751.1,702.2,751,704.7,751,707.2z M198.7,716.7
		c-2.3-6-4.6-11.9-6.8-17.8c-0.6-1.6-1.9-1-2.9-1c-1,0-2.3-0.6-2.9,1c-2.2,5.9-4.5,11.8-6.8,17.8c2.5,0.2,4.8,0.8,5.3-2.5
		c0.2-1,0.9-1.3,1.9-1.3c1.6,0.1,3.3,0,4.9,0c0.9,0,1.6,0.2,1.7,1.1C193.7,717.5,196,717.1,198.7,716.7z M402.3,716.8
		c-2.3-6-4.6-11.9-6.8-17.8c-0.6-1.6-1.9-1-2.9-1c-1,0-2.3-0.6-2.9,1c-2.2,5.9-4.5,11.8-6.8,17.8c2.5,0.3,4.7,0.8,5.3-2.4
		c0.2-1,0.9-1.3,1.9-1.3c1.6,0.1,3.3,0,4.9,0c0.9,0,1.6,0.2,1.8,1.1C397.3,717.3,399.4,717.1,402.3,716.8z M342.3,707.4
		c0,5,2.3,8.4,6.3,9.6c4.4,1.3,8.8-0.1,10.8-3.4c0.6-1,1.9-2.5,0.5-3.2c-1.1-0.6-3.2-1.2-4.1,1.1c-0.8,1.9-2.6,2.6-4.5,2.4
		c-2.1-0.2-3.6-1.4-4.2-3.4c-0.6-1.9-0.7-3.8-0.1-5.7c0.5-2,1.6-3.6,3.8-4c2.1-0.4,4.1,0.1,5.2,2.2c1,1.9,3,1.4,4,0.9
		c1.3-0.6-0.1-2-0.5-2.9c-0.5-1.1-1.4-1.8-2.5-2.4c-3.4-1.8-6.9-2-10.2-0.1C343.3,700.5,342.3,703.7,342.3,707.4z M275.7,716.8
		c3.8,0.3,3.8,0.3,5.3-2.6c0.2-0.4,0.6-1,0.9-1c2.2-0.1,4.5-0.2,6.7,0c1.4,0.1,1.2,1.8,1.7,2.8c1,1.8,2.6,1.1,3.9,0.9
		c1.7-0.3,0.4-1.5,0.1-2.2c-1.9-5.1-3.9-10.1-5.7-15.1c-0.6-1.7-1.6-1.6-2.9-1.5c-1.2,0.1-2.6-0.5-3.3,1.4
		C280.3,705.1,278,710.8,275.7,716.8z M539.1,716.7c2.7,0.6,4.9,0.6,5.4-2.6c0.1-0.4,0.4-0.9,1-0.9c2.1,0,4.3-0.2,6.4,0
		c1.6,0.1,1.2,2,1.9,2.9c1,1.6,2.8,1,4,0.7c1.4-0.4,0.2-1.6-0.1-2.4c-1.8-5-3.8-9.9-5.6-14.9c-0.4-1.1-0.9-2-2.2-1.7
		c-1.3,0.3-3-0.9-3.8,1C543.6,704.8,541.4,710.7,539.1,716.7z M141.2,716.7c2.7,0.4,4.9,0.6,5.4-2.5c0.1-0.4,0.5-1,0.9-1
		c2.2-0.1,4.5-0.2,6.6,0c1.4,0.1,1.2,1.8,1.7,2.8c1,1.8,2.7,1.1,3.9,0.9c1.7-0.3,0.4-1.5,0.1-2.2c-1.9-5.1-3.9-10.1-5.7-15.1
		c-0.6-1.7-1.7-1.6-2.9-1.5c-1.2,0.1-2.6-0.5-3.3,1.4C145.7,705.1,143.4,710.8,141.2,716.7z M267,716.7c-2.3-6-4.6-11.8-6.7-17.6
		c-0.5-1.4-1.5-1.3-2.5-1.2c-1.2,0.1-2.8-0.7-3.5,1.1c-2.1,5.5-4.2,11-6.3,16.4c-0.2,0.6-0.6,1.4,0.5,1.4c1.6,0,3.6,0.7,4-1.9
		c0.2-1.4,1.1-2.1,2.7-1.9c1.4,0.1,2.9,0.1,4.3,0c0.8,0,1.7,0.1,1.8,1C261.9,717.4,264.2,717.1,267,716.7z M787.9,716.7
		c-2.3-6-4.6-11.9-6.8-17.8c-0.7-1.9-2.3-0.8-3.5-1c-1.1-0.2-2,0-2.5,1.3c-2,5.4-4.1,10.8-6.1,16.2c-0.2,0.6-0.7,1.5,0.4,1.5
		c1.6,0.1,3.6,0.8,4.1-1.8c0.3-1.6,1.3-2.2,2.9-2c1.3,0.1,2.7,0.1,4,0c1,0,1.8,0.2,2,1.2C783,717.6,785.4,717.1,787.9,716.7z
		 M323.1,698.3c1.6,2.5,3.2,5,4.9,7.4c0.8,1.1,0.8,1.9,0,3c-1.9,2.5-3.6,5.2-5.4,7.8c5.9,2.3,6.3-3.5,8.9-5.9
		c2.4,2.8,2.9,8.1,8.8,5.7c-1.8-2.6-3.4-5.2-5.2-7.7c-0.9-1.3-1-2.3,0-3.6c1.7-2.3,3.2-4.7,4.8-7c-5.5-2.2-6.1,2.8-8.4,5.5
		C329.2,701.1,328.8,696,323.1,698.3z M601,706.6c0,3.1,0.1,5.7,0,8.3c-0.1,1.8,0.8,2,2.3,2c1.4,0,2.1-0.3,2.1-1.9
		c0-2-1-4.7,0.5-5.8c1.3-1,3.9-0.3,5.9-0.4c0.3,0,0.6,0,0.9,0c1.3,0.1,1.9-0.2,1.9-1.7c0-1.5-0.7-1.7-2-1.7c-1.6,0.1-3.3-0.1-4.9,0
		c-1.8,0.1-2.3-0.4-2.3-2.2c0-1.7,0.6-2.1,2.2-2.1c2.1,0.1,4.2,0,6.4,0c1.3,0.1,1.9-0.3,1.9-1.8c0-1.5-0.6-1.8-1.9-1.7
		c-1.2,0.1-2.3,0-3.5,0c-3,0-6.9-1-8.7,0.5C599.7,700.1,601.3,704.1,601,706.6z M810,698.1c0.3,1.5,1.3,2.5,2,3.7
		c2.5,4.3,5.8,8.2,4.8,13.7c-0.3,1.8,1.2,1.3,2.2,1.3c1.1,0.1,2.3,0.1,2-1.5c-0.7-4.4,1.1-8,3.4-11.6c1.2-1.8,2.5-3.6,3-5.7
		c-3.3-1.1-5.1,0.2-6.2,3.2c-0.5,1.4-1,3-2.4,4.3c-0.8-1.6-1.8-2.9-2.3-4.5C815.4,698,813.2,697.2,810,698.1z M509,697.9
		c-2.3,0-4.6,0-7,0c-0.7,0-1.5,0-1.4,1c0.1,0.8-0.5,1.9,0.6,2.3c0.9,0.3,1.9,0.2,2.9,0.1c2.1-0.3,2.9,0.4,2.8,2.6
		c-0.2,3.7,0,7.3-0.1,11c-0.1,1.7,0.6,2.1,2.2,2.1c1.5,0,2.3-0.1,2.2-2c-0.1-2.9,0-5.8,0-8.7c0-4.6,0-4.7,4.6-5
		c1.2-0.1,1.7-0.4,1.7-1.7c0.1-1.5-0.5-1.8-1.9-1.8C513.4,697.9,511.2,697.9,509,697.9z M163.3,707.3c0,2.6,0.1,5.2,0,7.8
		c0,1.4,0.5,1.9,1.8,1.8c3.6-0.1,7.1-0.1,10.7,0c1.5,0,2-0.3,2-1.9c0-1.7-0.9-1.6-2-1.5c-1.9,0-3.9-0.1-5.8,0
		c-2,0.2-2.4-0.7-2.3-2.5c0.1-3.8-0.1-7.5,0.1-11.3c0.1-1.8-0.8-2-2.2-2c-1.4,0-2.4,0-2.3,1.9C163.4,702.3,163.3,704.8,163.3,707.3z
		 M657.3,621.2c2.8,0,5,0,7.2,0c0.9,0,2,0.2,2-1.3c0-1.5-1-1.3-1.9-1.4c-0.7-0.1-1.8,0.5-1.9-0.6c-0.2-1.1,0.6-1.5,1.7-1.3
		c1,0.2,1.6-0.5,1.6-1.3c0.1-1-0.9-1.1-1.6-1.3c-1.3-0.4-2.8-0.1-3.3,1C660.2,617.1,658.8,618.8,657.3,621.2z M218,662.4
		c0.3,2,1.5,3.5,3.6,3.4c1.9-0.1,3.2-1.4,3.2-3.5c0-2.2-1.2-3.5-3.4-3.5C219.1,658.8,218.2,660.3,218,662.4z M226.8,662.3
		c0.2,2.1,1.3,3.5,3.5,3.5c2,0,3.2-1.4,3.3-3.4c0.1-2.1-1.1-3.6-3.3-3.6C228.1,658.7,227.1,660.2,226.8,662.3z M298.9,620
		c-1.8,0.4-3.1,1.5-3,3.7c0.1,2,1.2,3.3,3.3,3.3c2.2,0,3.4-1.5,3.4-3.5C302.6,621.4,301.4,620.2,298.9,620z M816.4,623.6
		c-0.3-2.1-1.4-3.5-3.5-3.4c-2.1,0-3.2,1.5-3.2,3.4c0,2,1.1,3.6,3.3,3.6C815.2,627.2,816.2,625.7,816.4,623.6z M425.4,620.8
		c-0.3-2-1.3-3.5-3.4-3.5c-2.2-0.1-3.4,1.5-3.4,3.5c0,2,1.1,3.5,3.3,3.5C424,624.3,425.1,622.9,425.4,620.8z M807.6,623.8
		c-0.2-2.1-1.2-3.5-3.3-3.6c-2.2-0.1-3.4,1.4-3.5,3.4c-0.1,2,1.1,3.5,3.2,3.6C806.2,627.2,807.3,625.8,807.6,623.8z M308.1,620
		c-2.1,0.2-3.4,1.4-3.4,3.5c0,2.1,1.2,3.5,3.3,3.5c2.1,0,3.4-1.5,3.4-3.5C311.5,621.5,310.3,620.2,308.1,620z M162.6,631.1
		c-0.4-2-1.4-3.4-3.6-3.3c-2.2,0.1-3.3,1.6-3.2,3.6c0.1,2,1.3,3.5,3.5,3.3C161.5,634.6,162.4,633.1,162.6,631.1z M706.3,622.5
		c0.4,1.9,1.3,3.5,3.5,3.4c2.1-0.1,3.3-1.4,3.3-3.6c0-2-1.3-3.2-3.3-3.3C707.7,619,706.7,620.4,706.3,622.5z M395.7,622.6
		c0.4,1.9,1.4,3.3,3.5,3.3c2,0,3.3-1.4,3.3-3.3c0.1-2-1.2-3.5-3.3-3.6C397.1,619,396.1,620.4,395.7,622.6z M168.1,634.8
		c2.3-0.2,3.5-1.5,3.5-3.6c0-2.1-1.3-3.5-3.5-3.4c-2,0-3.2,1.4-3.2,3.4C164.8,633.3,166,634.5,168.1,634.8z M386.9,622.3
		c0.1,2,1.1,3.5,3.1,3.6c2.2,0.1,3.5-1.2,3.6-3.3c0.1-2.1-1.3-3.5-3.4-3.5C388.2,619,387.2,620.4,386.9,622.3z M718.7,618.9
		c-2,0.3-3.3,1.3-3.4,3.3c-0.1,2.2,1.2,3.5,3.3,3.6c2,0.1,3.3-1.3,3.4-3.3C722.1,620.5,720.8,619.3,718.7,618.9z M805.2,616
		c0.2,2,1.2,3.4,3.2,3.4c2,0,3.2-1.4,3.2-3.4c0-1.9-1.2-3.2-3-3.2C806.6,612.7,805.5,614,805.2,616z M273.1,703.9c0-0.6,0-1,0-1.4
		c-0.1-1.1,0.6-2.5-1.6-2.5c-2.2,0-2,1.2-1.9,2.5c0.1,1.2,0.2,2.5,0.2,3.7c0,1.2,0.6,1.5,1.6,1.4C274.4,707.4,272.5,705,273.1,703.9
		z"/>
	<path class="st1" d="M645.4,536.7c-9.4-16.4-18.7-32.5-28-48.6c-8.9-15.5-17.8-31.1-26.7-46.6c-0.9-1.6-1.4-2.1-3-0.6
		c-5.5,5.2-11.1,10.2-16.7,15.2c-1.6,1.4-1.6,2.5-0.7,4.3c10.8,19.7,21.5,39.4,32.3,59c1.8,3.3,0.9,4.8-2.9,4.8
		c-29.8,0-59.5,0-89.3,0c-3.7,0-4.9-1.3-4.9-5.1c0-2.9,1.3-5.4,1.6-8.2c0.1-1.2,0.6-2.8-0.5-3.5c-1.1-0.6-2,0.7-2.9,1.3
		c-14.7,9.9-29.9,19.2-45.4,27.9c-10.3,5.8-20.6,11.7-31.5,16.6c-15.7,7-31.7,13.7-48.8,16.1c-22.6,3.2-44.5,0.4-64.6-11.4
		c-1.9-1.1-2.4-2.3-2.3-4.3c0.9-17.5,1.8-35.1,2.7-52.6c0.3-5.1,0.8-10.2,0.6-15.3c-0.2-5.7,1.7-10.5,4.2-15.4
		c11.5-22.2,26.8-41.4,44.4-58.9c9.7-9.6,20-18.5,30.8-26.8c2.6-2,3.6-5.2,5.2-7.9c21.9-37.4,43.7-74.9,65.5-112.3
		c7.8-13.3,15.5-26.6,23.3-39.9c0.2-0.4,0.5-0.8,0.9-1.5c3.3,6.3,6.5,12.2,9.7,18.2c4.1,7.7,8.1,15.3,12.3,23
		c0.8,1.5,0.9,2.4-0.6,3.5c-2.8,2.2-5.5,4.5-8.1,7c-1.5,1.4-2.2,1.1-3.2-0.5c-4-6-8.2-11.9-12.6-18.2c-2.1,3.8-4.1,7.3-6,10.7
		c-2.9,5.1-5.7,10.3-8.7,15.4c-0.7,1.2-0.8,2.2,0,3.4c2.2,3.6,4.1,7.4,6.4,11c0.9,1.5,1,2.8,0.1,4.2c-0.4,0.7-0.8,1.6-1.2,2.3
		c-0.8,1.3-1.1,4-2.3,3.8c-1.8-0.3-3.5-1.9-4.5-3.8c-1-1.9-2-3.7-3.5-5.3c-2.1-2.2-3.3-2.1-4.8,0.5c-13.8,23.5-27.6,47-41.4,70.6
		c-20.5,35-41,70-61.6,105c-3.5,6-7,11.9-10.6,18.2c4.7,0.8,9.1,0.9,13.5,0.7c12.7-0.5,25-3.3,37.2-6.9c10.7-3.1,21.1-6.9,31.2-11.5
		c1.2-0.6,2.9-0.6,2.3-2.9c-0.6-2-1.3-3-3.7-2.9c-9.4,0.2-18.7,0.1-28.8,0.1c12.5-22.6,24.5-44.4,36.9-66.8c3,4.8,5.8,9.3,8.5,13.7
		c7.3,11.9,14.7,23.8,22,35.7c1.1,1.7,1.8,2.1,3.5,0.8c2.2-1.8,5.9-3,6.6-5.2c0.6-1.9-2-4.9-3.2-7.4c-8.6-17.5-17.1-34.9-25.7-52.4
		c-0.9-1.9-0.9-3.3,0.2-5.2c13.1-22.9,26.1-45.9,39-68.9c1.2-2.1,2.6-3.5,4.8-4.4c1.9-0.7,3.8-1.4,5.3,0.5c1.5,1.9,1.8,3.9,0.5,6.2
		c-6.9,12.3-13.7,24.6-20.5,36.8c-5.8,10.3-11.5,20.7-17.4,31c-0.9,1.6-0.6,2.8,0.2,4.2c8.8,16.2,17.6,32.5,26.5,48.8
		c0.6,1.1,1.1,2.2,1.7,3.6c5.5-4.1,10.9-8.2,16.5-12.1c1.5-1.1,0.8-1.9,0.3-2.9c-5.2-10.2-10.4-20.4-15.8-30.6c-1-1.9-1-3.2,0.4-4.8
		c2.2-2.7,4.1-5.6,6.3-8.7c4.2,7.5,8.1,14.7,12.1,22c2.7,4.8,5.4,9.6,7.9,14.4c0.6,1.2,0.9,1.4,2,0.5c3.3-2.8,6.7-5.6,10.2-8.1
		c1.8-1.2,1.2-2.2,0.4-3.5c-9.3-16.5-18.6-33.1-27.9-49.6c-2.7-4.9-5.4-9.8-8.2-14.6c-0.6-1-0.8-1.6,0.3-2.3c2.9-1.9,5.7-3.9,8.5-6
		c1.6-1.2,2,0.2,2.5,1.1c6,10.9,11.9,21.8,17.9,32.7c5.6,10.2,11.2,20.5,16.7,30.7c0.8,1.6,1.4,1.9,2.9,0.5c5.9-5.5,11.9-11,18-16.3
		c1.4-1.2,1-2.1,0.2-3.4c-13.7-23.1-27.3-46.3-40.9-69.5c-3.2-5.5-6.4-11-9.7-16.4c-0.9-1.4-0.7-2.1,0.7-2.9c3.3-2,6.5-4.1,9.8-6.2
		c1.2-0.8,1.8-0.9,2.6,0.6c12.8,23.5,25.6,47,38.5,70.5c3,5.5,6,10.9,9.1,16.6c6.4-6.6,11.7-13.8,16.6-21.3
		c7.4-11.4,14.5-22.9,20.5-35.2c2.7-5.4,5.2-11,6-17.1c0.7-5-0.5-6.3-5.4-6.3c-21.1-0.3-42.1-0.6-63.2-0.9c-0.8,0-1.5-0.1-2.2-0.4
		c-2.7-1.2-2.8-2-0.6-4c5.5-5,11.1-9.9,16.5-15c1.7-1.6,3.6-2.4,5.9-2.6c15-1.6,29.9-1.5,44.7,1.8c23.9,5.3,40,19.7,48,42.7
		c3.7,10.7,2.4,21.4-1.6,32c-11.1,30-29.9,55.1-50.3,79.1c-3.8,4.5-3.9,4.5-1,9.8c16.7,30.4,33.4,60.8,50.1,91.1
		c0.9,1.6,1,2.5-0.5,3.9C650.6,531,648.2,533.8,645.4,536.7z M385.2,399c-10.5,7.6-19.8,16.5-28.5,26.1c-13.9,15.3-25.4,32.2-34,51
		c-1,2.2-0.9,3.9,1.1,5.6c2.5,2.1,5.2,4,8.1,5.5c1.6,0.9,2.3,0.7,3.3-1c8.5-14.7,17.1-29.2,25.6-43.9c8.3-14.3,16.6-28.6,24.9-42.9
		c0.2-0.2,0.5-0.5,0.1-0.8C385.6,398.6,385.4,398.9,385.2,399z M319.2,484c-1.1,22.9-2.1,45.2-3.2,67.4c-0.1,1.3-0.1,2.4,1.4,3.1
		c3.7,1.9,7.4,3.8,11.3,5.2c23.3,8.1,46.6,7.4,69.8-0.7c19.2-6.7,37.5-15.2,55.1-25.4c15.3-8.9,30.5-17.7,45.2-27.6
		c24.3-16.4,47.1-34.6,69.3-53.7c22.7-19.5,42.7-41.3,59.6-66c9.3-13.6,16.9-28,22.8-43.4c2.8-7.3,4.5-14.7,3-22.4
		c-4.1-20.7-16.1-35-35.7-42.9c-13.4-5.3-27.4-6.2-41.6-5.7c-13.5,0.5-13.5,0.6-23.3,9.6c-0.6,0.6-1.4,1.1-1.9,1.8
		c-0.4,0.5-1.5,0.6-1.2,1.7c19.7,0.3,39.4,0.6,59.1,0.9c4.9,0.1,7.7,2.4,8.4,7.3c0.9,6.2-1.4,11.8-3.7,17.3
		c-7.3,17-17.3,32.5-27.6,47.7c-9.5,14-21.7,25.6-34.2,36.8c-22,19.7-45.6,37.2-69.6,54.2c-25.4,18.1-52.8,32.3-82.9,40.9
		c-11.8,3.4-23.7,6.3-36,6.9c-11.2,0.5-22.2-0.6-32.5-5.3C326.6,490.1,323,487.3,319.2,484z M572.3,507c0.5,0,1.3,0,2.1,0
		c2,0.1,4.3,0.5,5.6-1.4c1.2-1.9-0.8-3.2-1.6-4.6c-5.6-10.2-11.3-20.3-16.9-30.5c-0.9-1.6-1.4-2.2-2.9-0.5c-2.6,3-5.5,5.7-8.4,8.4
		c-1.2,1.1-1.1,1.9-0.5,3.2c3.6,6.9,7.2,13.8,10.6,20.8c1.4,2.8,2.7,4.9,6.3,4.3C568.4,506.4,570.2,506.8,572.3,507z M542,507.3
		c1.6,0.1,3.5,0.3,4.5-1.2c1.2-1.7-0.4-3.1-1.2-4.4c-2.5-4.2-5.3-8.3-7.7-12.5c-1.2-2.1-1.9-1.9-3.5-0.5c-1.5,1.4-3.2,2.4-4.8,3.7
		c-4.6,3.6-9.4,7.1-13,11.8c-0.4,0.6-1.2,1.2-0.9,2c0.4,0.9,1.4,0.5,2.1,0.5C525.7,506.8,533.8,507,542,507.3z M437,429.6
		c-3.4,6-6.5,11.7-9.6,17.3c-1.3,2.3-0.1,4.9,2.5,5c5.7,0.2,11.5,0.1,17.5,0.1C443.9,444.3,440.6,437.1,437,429.6z"/>
	<path class="st1" d="M529.1,620.9c0,7.5,0,14.7,0,22c0,4.8,0.6,5.4,5.3,5.4c8.3,0,8.3,0,8.3-8.2c0-4.6,0.2-9.3-0.1-13.9
		c-0.1-2.5,0.6-3.8,3.1-4.2c1-0.2,2-0.6,3.4-1c0,5.5,0,10.8,0,16c0,2.5,0,5,0,7.5c-0.1,6.2-3.4,9.7-9.7,9.8c-4.4,0-9,1.1-12.9-2
		c-0.6-0.5-1.1,0-1.6,0.3c-2.2,1.5-4.6,1.8-7.2,1.8c-15.9,0-31.9,0-47.8,0c-2.1,0-3.3,0.2-4,2.7c-1.8,6.1-9.8,9.4-16.9,5.7
		c-2.1-1.1-2.1-4.1-3.5-6.6c2.4,1,4.2,1.9,6.2,2.2c5.1,0.8,8.6-1.8,8.8-6.9c0.1-4.8,0-9.7,0-14.5c0-2.4,3.5-5.2,5.8-4.7
		c1,0.2,0.6,1.1,0.6,1.7c0,4,0.1,7.9,0,11.9c-0.1,2.1,0.4,3.1,2.7,2.8c2.7-0.3,6.3,1.2,8.1-0.6c1.6-1.7,0.4-5.2,0.5-7.8
		c0.1-3.2,2.2-5.3,5.4-5.2c1.1,0,1,0.7,1,1.4c0,1.1,0,2.3,0,3.9c1.5-1.7,2.7-3.2,4-4.5c4.3-4.2,9.3-5.8,15.1-3.8
		c5.5,2,7.3,6.8,8.2,12c0.2,0.9,0.2,1.9,0.1,2.9c-0.1,1.4,0.5,2,1.9,1.8c0.1,0,0.2,0,0.3,0c8.6,0.4,8.7,0.2,8.7-8.4
		c0-4.4,0.2-8.9-0.1-13.3c-0.2-2.8,0.6-4.4,3.5-4.7C527,621.6,527.9,621.2,529.1,620.9z M495.8,648.3c2,0,4.1,0,6.1,0
		c3.9,0,4-0.1,3.4-4.1c-0.9-6.5-5.7-9-11.2-5.9c-3.2,1.8-5.5,4.5-7,7.9c-0.8,1.7-0.3,2.2,1.5,2.2C491,648.2,493.4,648.3,495.8,648.3
		z"/>
	<path class="st1" d="M311.7,631.9c0,4.2,0,8.1,0,12.1c0,3.2,1,4.2,4.1,4.3c1.6,0.1,3.3,0,4.9,0c3.6-0.1,4.5-0.9,4.5-4.4
		c0-6,0-12,0-18c0-2.4,3.4-5.2,5.7-4.8c0.8,0.2,0.7,0.8,0.7,1.3c0,7.8,0.2,15.7-0.2,23.5c-0.2,5.2-3.7,8.3-9.3,8.3
		c-4.4,0-9.2,1.1-13.2-2c-0.6-0.5-1.1,0-1.6,0.3c-2.2,1.5-4.6,1.8-7.2,1.8c-12,0-24,0-36,0c-1.9,0-3,0.3-3.6,2.5
		c-2.1,7.5-10.6,9.1-16.9,5.8c-2-1.1-1.9-4-3-6.1c2.6,1,5.1,1.8,7.7,1.9c2.8,0.1,5-0.8,6.4-4c-1.8,0-3.2,0.1-4.6,0
		c-4.5-0.3-7.8-2.4-9.4-6.6c-1.9-5.1-1.5-10.2,2.2-14.4c3-3.4,6.9-3.9,11.2-2.8c4,1.1,5.9,4.1,6.7,7.9c0.6,2.6,0.7,5.2,0.5,7.8
		c-0.1,1.4,0.3,2.1,1.9,2.1c6.8-0.1,13.5-0.1,20.3,0c1.5,0,2.1-0.5,2-2c-0.1-0.7,0-1.4,0-2c-0.3-2.8-0.6-5.8-3.6-7.1
		c-3.1-1.4-5.9-0.3-8.3,1.7c-2.9,2.4-3.2-1.2-4.5-2.1c-1.7-1.1,0.1-2,0.8-2.6c4.3-3.7,9.3-4.8,14.6-2.7c5.4,2.1,7.3,6.8,7.6,12.3
		c0.2,4.5,0.2,4.5,4.9,4.5c8,0,8,0,8-7.9c0-0.3,0-0.6,0-0.9C305.3,633.4,305.3,633.4,311.7,631.9z M255.3,644.4
		c0.1-2.4,0-4.5-1.1-6.4c-1.7-2.9-5-2.9-6.7,0c-1.1,2-1.3,4.2-0.8,6.4c0.7,3.2,2.6,4.2,6.9,3.9C256.9,648,254.5,645.4,255.3,644.4z"
		/>
	<path class="st1" d="M643.3,621.3c-3.6,4-6.8,7.5-10.3,11.3c2.1,0.3,4,0.1,5.7,0.6c6.1,2,9.7,7.8,9.1,15.1
		c-0.4,5.9-0.4,5.9-6.4,5.9c-8.3,0-16.6,0-24.9,0c-1.9,0-2.8,0.3-3.4,2.4c-2.1,7.3-10.2,9.3-16.9,5.9c-2.2-1.1-2-4.1-3.1-6.3
		c2.3,1,4.6,1.7,6.9,2c2.5,0.3,4.8-0.2,6.5-2.4c0.7-0.9,0.7-1.6-0.7-1.6c-0.9,0-1.7,0-2.6,0c-5.8-0.2-10-4-10.7-9.8
		c-0.9-7.1,2.3-12.7,8.1-14.2c6-1.6,11.4,1.7,12.8,7.7c0.7,2.8,0.7,5.6,0.5,8.4c-0.1,1.6,0.5,2,2,1.9c7.7-0.1,15.5-0.1,23.2,0
		c2.1,0,2.2-1,1.9-2.5c-1.1-7.2-8.3-9.8-14.9-5.3c-1.6,1-2.3,0.7-3.6-0.3c-1.9-1.5-1.6-2.5-0.1-4.1c3.5-3.9,7-7.8,10.2-11.9
		c1.7-2.2,3.5-3.4,6.3-2.9C640,621.5,641.3,621.3,643.3,621.3z M607.4,644.6c0.1-2.4,0.2-4.5-0.9-6.3c-1-1.8-2.5-3.1-4.7-2.2
		c-2.4,0.9-3,3.1-3.1,5.4c-0.1,2.4,0,4.9,2.5,6.3c1.8,0.9,3.9,0.9,5.6,0.3C608.4,647.5,607.1,645.5,607.4,644.6z"/>
	<path class="st1" d="M754.4,621.3c-2,2.2-3.6,4-5.2,5.8c-1.6,1.7-3.1,3.4-4.6,5c0.3,0.8,0.8,0.7,1.3,0.8c7.6,0.4,12.5,5.2,13,12.8
		c0.6,8.6,0.5,8.7-7.8,8.7c-7.5,0-15.1-0.1-22.6,0c-2.9,0-5.3-1.3-7.9-2.2c-2.3-0.7-4.7,2.3-7.6,2.2c-4.3-0.2-7.7-2.2-9.2-6.3
		c-1.4-3.6-1.4-7.4-0.1-11.1c1.5-4.1,4.6-6.1,8.8-6.4c2.9-0.2,5.8,0,8.7-0.1c1.5-0.1,2,0.5,1.9,2c-0.1,3.8-0.1,7.5,0,11.3
		c0,3.3,1.1,4.4,4.3,4.4c7.5,0,15.1,0,22.6,0c1.7,0,2.2-0.5,2.1-2.2c-0.3-4.9-4.7-8.5-9.6-7.8c-1.9,0.3-3.7,0.9-5.4,2
		c-1.6,1.1-4.5,0-5.2-1.8c-0.3-0.7,0.3-1.1,0.6-1.5c4.2-4.9,8.4-9.8,12.6-14.7c0.7-0.8,1.4-1.2,2.5-1.1
		C749.7,621.3,751.7,621.3,754.4,621.3z M716.7,640.9c0,0-0.1,0-0.1,0c0-1.1,0-2.1,0-3.2c0-0.6,0.1-1.1-0.7-1.4
		c-2.7-1-5.8,0.6-6.5,3.5c-0.5,1.9-0.3,3.8,0.1,5.7c0.5,1.9,1.7,2.8,3.5,2.8c1.8,0,2.9-1.1,3.2-2.8
		C716.5,644,716.6,642.4,716.7,640.9z"/>
	<path class="st1" d="M759.5,655.9c2.6,1.2,4.4,2,6.4,2.3c5,0.8,8.6-2,8.6-7.1c0.1-4.6,0.2-9.3,0-13.9c-0.1-2.6,0.5-4,3.2-4.3
		c1-0.1,2-0.6,3.3-1c0,4.5,0.2,8.9-0.1,13.2c-0.2,2.9,0.8,3.7,3.5,3.4c1.4-0.2,2.9-0.2,4.3,0c2.5,0.3,3.7-0.4,3.4-3.2
		c-0.3-2,0.1-4.1-0.1-6.1c-0.3-2.4,0.6-3.5,2.9-4c1.1-0.2,2.1-0.9,3.5-0.8c0,3.9,0.1,7.7,0,11.6c-0.1,1.8,0.4,2.6,2.4,2.5
		c5.8-0.2,4.6,0.6,4.8-4.7c0-1.8,0-3.7,0-5.5c0-4.2,0.9-5.2,5.1-5.8c1.6-0.2,1.3,0.7,1.3,1.5c0,3.8-0.1,7.5,0,11.3
		c0,1.3-0.9,3.2,1.9,3.2c3.8,0,5.3-0.6,5.4-3.2c0.1-3.7,0-7.3,0.1-11c0-1.6,4.6-4.2,5.9-3.5c0.7,0.4,0.4,1.2,0.4,1.8
		c0,4.2,0.1,8.3,0,12.5c-0.1,6-3.6,9.4-10,9.4c-10.7,0-21.4,0.1-32.2,0c-1.9,0-2.7,0.3-3.4,2.4c-2.1,6.8-10.4,9.5-17,6
		C760.9,661.5,761,658.5,759.5,655.9z"/>
	<path class="st1" d="M415.3,654.1c-3.2,0-6.7,0.9-9.5-0.2c-3.8-1.5-6.9-1.3-10.7,0c-4.5,1.5-9-1.2-10.7-5.6
		c-1.5-3.8-1.5-7.8-0.1-11.6c1.4-3.8,4.4-5.8,8.4-6.1c3.1-0.2,6.2,0,9.3-0.1c1.5-0.1,1.8,0.6,1.7,1.9c-0.1,3.9-0.1,7.7,0,11.6
		c0,3.2,1,4.2,4.2,4.2c4.7,0.1,9.5,0,14.2,0c1,0,2,0,2.8-0.6c0.7-0.5,1.5-1.2,1.2-2.1c-0.3-0.8-1.1-0.4-1.8-0.4
		c-2.3-0.1-4.6,0.2-6.9-0.3c-3.5-0.8-5.5-3-5.8-6.3c-0.4-3.8,1.2-7,4.4-8.3c4.2-1.7,8.5-1.7,12.7,0c2.9,1.2,4.2,3.6,4.2,6.7
		c0.1,2.6,0.1,5.2,0,7.8c-0.1,5.8-3.5,9.3-9.4,9.6c-2.7,0.1-5.4,0-8.1,0C415.3,654.2,415.3,654.2,415.3,654.1z M397.3,640.7
		c-0.5-1.4,0.8-3.3-0.8-4.3c-2.4-1.4-6,0.5-6.6,3.3c-0.4,1.8-0.3,3.6,0,5.5c0.4,1.9,1.5,3.1,3.6,3.1c2.1,0,3.1-1.4,3.4-3.3
		C397.1,643.5,397.2,642.1,397.3,640.7z M422.9,640.5c3.6,0,3.6,0,3.5-2.1c0-2.9-1.4-4.2-4.4-4.1c-2.1,0.1-4.2,0.3-4.3,3.1
		C417.6,639.8,419,640.5,422.9,640.5z"/>
	<path class="st1" d="M214.2,620.9c0,7.6,0,14.8,0,22.1c0,4.5,0.8,5.3,5.1,5.3c8.7,0,8.7,0,8.7-8.5c0-1.8,0.1-3.7,0-5.5
		c-0.1-1.3,0.3-2,1.7-2.5c4.8-1.7,4.7-1.8,4.7,3.4c0,3.3,0.1,6.6,0,9.9c-0.2,5.3-2.9,8.7-8.2,9.1c-4.8,0.3-9.9,1.4-14.3-1.7
		c-0.9-0.6-1.4,0-2.1,0.4c-1.4,0.9-3,1.5-4.6,1.5c-5.6,0.1-11.2,0-17.1,0c0.9-1.9,1.7-3.5,2.5-5.1c0.6-1.2,1.6-1,2.5-0.9
		c1.8,0.2,2.3-0.5,2.3-2.3c-0.1-5.8,0-11.6,0-17.4c0-2.1,3.8-4.9,5.8-4.4c1.1,0.3,0.6,1.3,0.6,2c0,6.3,0,12.6,0.1,18.9
		c0,1.3-0.9,3.3,1.9,3.2c2.3-0.1,4-0.7,4.1-3.4c0.1-2,0-4.1,0-6.1c0-4.3,0.2-8.5-0.1-12.8c-0.1-2.4,0.6-3.8,3-4.2
		C211.8,621.7,212.8,621.3,214.2,620.9z"/>
	<path class="st1" d="M350.2,656.2c9.2,3.2,12.6,2.7,14.4-2.2c-1.1,0.1-2.1,0.3-3,0.4c-4.7,0.3-8.4-1.5-10.4-5.8
		c-2.4-5.2-2.2-10.4,1.5-15c3-3.7,7.1-4.3,11.6-3.1c3.9,1.1,5.8,4.1,6.5,7.7c1.1,5.8,1.2,11.8,0.1,17.6c-1.8,8.7-11.2,10-17.4,6.6
		C351.4,661.4,351.5,658.5,350.2,656.2z M356,642.5c0,0.4,0.1,1.1,0.2,1.7c0.5,2.3,1.5,4.3,4.2,4.4c2.6,0,3.6-1.9,4.1-4.1
		c0.2-0.7,0.3-1.3,0.3-2c0.2-3.7-1.9-6.7-4.5-6.7C357.9,635.8,356,638.5,356,642.5z"/>
	<path class="st1" d="M678.3,620.8c0,8.7,0.2,17.1-0.1,25.5c-0.1,4.6-3.7,7.7-8.8,7.9c-5.6,0.2-11.2,0-17.2,0
		c0.8-1.6,1.6-2.9,2.1-4.3c0.5-1.2,1.3-1.9,2.6-1.7c2.3,0.4,2.7-0.7,2.6-2.8c-0.1-5.9-0.1-11.8,0-17.7c0-1.6,4.6-4.3,5.9-3.5
		c0.9,0.5,0.4,1.4,0.4,2.1c0,6.3,0,12.6,0.1,18.8c0,1.2-1,3.1,1.7,3.1c2.1,0,3.9-0.4,4.2-2.9c0.1-1,0.1-2.1,0.1-3.2
		c0-5.2,0.2-10.5-0.1-15.7c-0.2-2.9,0.8-4.3,3.5-4.7C676.3,621.6,677.1,621.2,678.3,620.8z"/>
	<path class="st1" d="M149.8,633.9c0,3.7,0,7,0,10.2c0,3,1,4,4,4.1c6.5,0.1,12.9,0.1,19.4,0c3.2,0,4.1-1,4.1-4.3
		c0.1-3.4,0-6.8,0-10.1c0-1.4,5-4.2,6.1-3.4c0.6,0.4,0.4,1.1,0.4,1.6c0,4.2,0.1,8.5,0,12.7c-0.1,5.8-3.6,9.4-9.4,9.5
		c-7.1,0.2-14.3,0.1-21.4,0c-6.1-0.1-8.9-3.7-9.6-9.7C142.7,639.2,145.9,636.8,149.8,633.9z"/>
	<path class="st1" d="M586.3,644.5c-3.9,0-7.5,0-11.1,0c-4.7,0-7.5,2.8-7.3,7.1c0.2,3.9,3.8,6.8,8.1,6.5c2.3-0.2,4.2-1.2,6.2-2.3
		c0.2,0.3,0.3,0.4,0.3,0.6c0.2,5.9-0.5,6.8-6.5,7.6c-5.7,0.8-11.7-2.6-13.8-7.9c-2.2-5.8-0.2-12.4,4.8-15.6c1.2-0.8,1.7-1.5,1.7-2.9
		c0.1-2,0.4-4,1.4-5.8c2.6-4.6,9.1-5.7,13-2.1c0.8,0.7,1,1.2,0.1,2.1c-1.5,1.4-2.3,3.5-5.3,1.9c-1.7-0.9-2.9,0.8-3.1,2.7
		c-0.2,1.9,0.6,2.5,2.3,2.2C581.9,637.6,584.1,640.6,586.3,644.5z"/>
	<path class="st1" d="M220.6,698.1c4.3-0.4,4.3-0.4,5.3,3.6c0.7,3,1.5,5.9,2.7,8.9c0.8-3.5,1.7-7,2.2-10.6c0.3-2.2,1.5-2,3-2.1
		c1.7-0.1,2.3,0.5,2.6,2.2c0.6,3.5,1.5,7,2.7,10.5c0.8-3,1.8-6,2.2-9.1c0.5-3.2,1.9-4.3,5.2-3.3c-1.7,5.8-3.5,11.7-5.2,17.5
		c-0.5,1.6-1.8,1.1-2.8,1.2c-1.4,0.2-1.8-0.7-2-1.8c-0.8-4-1.7-7.9-3.1-11.9c-0.8,3.6-1.5,7.2-2.4,10.8c-0.3,1.2,0.1,2.9-2.2,3
		c-2.2,0.1-2.8-0.9-3.3-2.7C223.8,709,222.2,703.6,220.6,698.1z"/>
	<path class="st1" d="M737.2,711.7c1-4,2.1-8,3-12c0.8-3.4,3.4-1.4,5.2-1.7c2-0.4,1.3,1.4,1.3,2.4c0.1,4.8,0,9.7,0.1,14.5
		c0,1.6-0.4,2.2-2.1,2.2c-1.8,0-2.1-0.7-2-2.2c0.1-3.8,0-7.5-0.5-11.3c-0.8,3.5-1.7,7-2.5,10.5c-0.4,1.5-0.3,3.1-2.8,3.1
		c-2.6,0-2.4-1.8-2.8-3.2c-0.9-3.7-1.7-7.4-3.1-11c0,4-0.1,8.1,0,12.1c0,1.7-0.6,2.1-2.2,2.1c-1.5,0-2-0.4-2-2
		c0.1-5.1,0.1-10.2,0-15.4c0-1.4,0.4-1.8,1.8-1.8c4.5-0.1,4.5-0.2,5.6,4.3c0.8,3.2,1.6,6.5,2.4,9.7
		C736.9,711.8,737,711.7,737.2,711.7z"/>
	<path class="st1" d="M343.9,637.8c0,4.7-0.1,9.5,0,14.2c0,1.7-0.3,2.4-2.2,2.4c-5.1-0.2-4.2,0.4-4.2-4.1c-0.1-8.3,0-16.6,0-24.9
		c0-2,3.9-5,5.8-4.4c1,0.3,0.6,1.3,0.6,2C343.9,627.9,343.9,632.8,343.9,637.8z"/>
	<path class="st1" d="M444.8,637.7c0,4.7,0,9.5,0,14.2c0,1.6-0.2,2.5-2.2,2.4c-5.2-0.2-4.2,0.5-4.3-4.3c-0.1-8.1,0-16.2,0-24.3
		c0-2.3,3.6-5.3,5.8-4.7c1.1,0.3,0.6,1.3,0.6,2C444.8,627.9,444.8,632.8,444.8,637.7z"/>
	<path class="st1" d="M444,711.8c0,1.3,0,2.5,0,3.8c0,0.6,0.1,1.5-0.9,1.4c-0.7-0.1-1.8,0.5-2-0.6c-0.3-1.8-1-1-1.8-0.5
		c-3.4,2.3-7,2-10.3-0.1c-3.6-2.3-4.4-6-4-9.9c0.4-3.9,2.3-6.9,6.3-8.2c4.3-1.4,9.2-0.2,11.4,2.8c0.6,0.9,1.9,2.2,0.8,2.9
		c-1,0.6-2.9,0.9-3.9-0.5c-0.8-1-1.6-2-2.9-2.2c-2.3-0.5-4.4-0.1-6,1.9c-1.6,2.1-1.8,6.7-0.4,8.8c1.4,2.2,3.6,2.8,6.1,2.4
		c1-0.1,1.8-0.6,2.5-1.4c0.5-0.7,1.4-1.3,1-2.2c-0.4-0.8-1.4-0.4-2.1-0.4c-1.3,0-2.6,0.2-2.4-1.8c0.1-1,0.2-1.7,1.4-1.6
		c0.7,0.1,1.4,0,2,0C444,706.6,444,706.6,444,711.8z"/>
	<path class="st1" d="M363.7,707.4c0-2.4,0.1-4.8,0-7.2c0-1.5,0-2.4,2.1-2.4c2.1,0,2.3,0.8,2.3,2.5c-0.1,4.6,0,4.4,4.7,4.7
		c3,0.2,3.5-0.9,3.4-3.5c-0.1-1.1-1.6-3.5,1.5-3.6c2.1-0.1,2.9,0.3,2.8,2.6c-0.2,4.8-0.1,9.6,0,14.5c0,1.8-0.7,2.1-2.2,2.1
		c-1.5,0-2.5-0.2-2.2-2c0-0.3,0-0.6,0-0.9c0-6.3,0-6.2-6.4-5.8c-1.3,0.1-1.7,0.5-1.6,1.7c0.1,1.4,0,2.9,0,4.3c0,1.5,0.3,2.7-2.1,2.7
		c-2.2,0-2.2-1-2.2-2.6C363.8,712.1,363.7,709.8,363.7,707.4z"/>
	<path class="st1" d="M486.3,713.5c1.3-1.5,1-4,3.6-3.4c1.1,0.2,1.6,0.4,1.1,1.6c-0.1,0.3-0.2,0.6-0.2,0.8c-0.2,1.5-2.1,2.6-1.4,4.1
		c0.5,1.3,1.8,2.2,3,3.6c-2,0.1-3.9,1-5.5-0.6c-0.8-0.9-1.4-0.1-2,0.2c-2.1,1.1-4.4,1.4-6.7,0.9c-2.3-0.5-4-1.6-4.6-3.9
		c-0.6-2.4,0.2-4.5,2.1-5.9c1.5-1,1.9-1.8,0.9-3.6c-1.2-2.2-0.6-4.3,1.6-5.7c2.5-1.5,6.2-1,7.7,1c1.4,1.9,1.2,4.5-0.9,6.2
		C481.9,711.5,486,711.7,486.3,713.5z M480.8,717.7c1.1-0.1,2.4-0.1,3-1.5c0.2-0.4-3.4-4.2-3.8-4c-1.3,0.6-2.3,1.6-2.2,3
		C477.8,717,479,717.7,480.8,717.7z M483.4,705.5c0-1.2-0.6-1.7-1.5-1.8c-1.1-0.1-1.9,0.4-1.8,1.7c0.1,1,0.5,2.1,1.5,2.2
		C482.7,707.6,483.2,706.5,483.4,705.5z"/>
	<path class="st1" d="M537,716.7c-4.9,0.5-4.9,0.5-5-3.8c0-1.3,0.1-2.7-1.4-3.2c-1.9-0.6-4.3-1-5.9,0.1c-1.3,0.9-0.5,3.2-0.4,4.9
		c0,1.8-0.5,2.3-2.3,2.3c-1.9,0-2.2-0.7-2.2-2.4c0.1-4.8,0.1-9.6,0-14.5c-0.1-2,0.6-2.4,2.4-2.3c2.8,0.1,5.6,0,8.4,0.1
		c2.4,0.1,4.7,0.8,5.7,3.2c1,2.2,0.6,4.3-1.4,6c-0.4,0.3-0.9,0.7-0.4,1.1C537.5,710.5,535.1,714.1,537,716.7z M527.9,706.1
		c0.6,0,1.2,0,1.7,0c1.6,0,2.9-0.6,2.9-2.4c0-1.8-1.4-2.4-3-2.4c-1.2,0-2.5,0-3.7,0c-1.1,0-1.5,0.3-1.6,1.5
		C523.9,705.9,524,706.1,527.9,706.1z"/>
	<path class="st1" d="M794.7,704.5c0,3.5-0.1,6.9,0,10.4c0.1,1.7-0.6,2.1-2.2,2.1c-1.6,0-2-0.6-1.9-2c0.1-4.8,0-9.7,0.1-14.5
		c0-0.9-0.8-2.4,0.9-2.5c1.5-0.1,3.2-0.8,4.3,1.2c2,3.4,4.1,6.7,6.2,10.1c0.2,0.4,0.4,0.9,1.3,1c0-3.4,0.1-6.9,0-10.3
		c-0.1-1.7,0.5-2.1,2.1-2.1c1.7,0,2.1,0.7,2,2.2c-0.1,4.7,0,9.5-0.1,14.2c0,0.9,0.7,2.4-0.9,2.6c-1.5,0.2-3.2,0.7-4.3-1.3
		c-2.2-3.8-4.6-7.5-6.9-11.2C795.2,704.4,794.9,704.4,794.7,704.5z"/>
	<path class="st1" d="M654.5,716.7c-4.8,0.4-4.8,0.4-5-3.9c0-1.3,0.2-2.8-1.4-3.2c-1.9-0.5-4.3-0.9-5.9,0.1
		c-1.2,0.8-0.4,3.1-0.4,4.7c-0.1,1.4,0.2,2.7-2,2.6c-1.7-0.1-2.4-0.4-2.3-2.2c0.1-5,0.1-10,0-15.1c0-1.3,0.3-1.9,1.8-1.8
		c3,0.1,6,0,9,0.1c2.4,0.1,4.6,0.8,5.7,3.2c1.1,2.3,0.5,4.3-1.4,5.9c-0.3,0.2-0.8,0.6-0.5,0.9C655,710.2,653,713.8,654.5,716.7z
		 M645.6,701.3C645.6,701.3,645.6,701.3,645.6,701.3c-0.9,0-1.7-0.1-2.6,0c-1.8,0.1-1.2,1.5-1.2,2.4c0,0.9-0.7,2.3,1.1,2.4
		c1.7,0.1,3.5,0.1,5.2-0.1c1.3-0.1,2-1.1,1.9-2.4c-0.1-1.3-0.8-2.1-2.2-2.2C647.1,701.3,646.4,701.3,645.6,701.3z"/>
	<path class="st1" d="M573.8,711c0-4.2,0.1-7.6,0-11c0-1.5,0.3-2.1,2-2.2c2-0.1,2.2,0.8,2.1,2.4c-0.1,4.7,0,9.5-0.1,14.2
		c0,0.9,0.8,2.4-1,2.5c-1.4,0.1-3,0.6-4.1-1.2c-2.3-3.9-4.7-7.7-7.7-11.6c0,3.5,0,6.9,0,10.4c0,1.4,0.2,2.6-2,2.5
		c-2,0-2.1-0.9-2.1-2.4c0.1-4.6,0-9.3,0.1-13.9c0-0.9-1-2.6,0.9-2.7c1.6-0.1,3.4-0.7,4.5,1.4c1.8,3.4,4,6.6,6.1,9.8
		C572.9,709.6,573.1,710,573.8,711z"/>
	<path class="st1" d="M417.8,710.2c0-3.4,0.1-6.7,0-10.1c-0.1-1.7,0.3-2.4,2.2-2.3c1.8,0,2,0.8,2,2.2c-0.1,4.7,0,9.5-0.1,14.2
		c0,0.9,0.7,2.4-0.8,2.6c-1.5,0.2-3.2,0.6-4.3-1.3c-2.2-3.9-4.7-7.7-7.6-11.4c0,3.6-0.1,7.2,0,10.8c0.1,1.7-0.6,2.1-2.2,2.1
		c-1.5,0-2-0.5-2-2c0.1-4.8,0-9.6,0.1-14.5c0-0.9-0.8-2.5,0.8-2.6c1.5-0.1,3.2-0.9,4.4,1.1c2.3,3.8,4.6,7.5,7,11.3
		C417.5,710.3,417.6,710.2,417.8,710.2z"/>
	<path class="st1" d="M713.9,717.5c-6,0-9.9-4.1-9.8-10.1c0.1-6.1,4-10.1,9.9-10c5.9,0,9.8,4,9.8,10.1
		C723.9,713.5,719.9,717.5,713.9,717.5z M719.4,707.6c0-4.1-2-6.7-5.4-6.8c-3.4-0.1-5.6,2.4-5.6,6.6c-0.1,4.2,1.9,6.7,5.4,6.8
		C717.2,714.2,719.4,711.7,719.4,707.6z"/>
	<path class="st1" d="M305,707.2c0-2.5,0.1-5,0-7.5c-0.1-1.4,0.5-1.8,1.8-1.8c4,0.1,7.9,0.1,11.9,0c1.3,0,1.6,0.5,1.6,1.7
		c0,1.2-0.3,1.8-1.6,1.7c-2.5-0.1-5,0.1-7.5-0.1c-1.7-0.1-1.8,0.8-1.8,2.1c0,1.4,0.3,2.1,1.9,2c2.1-0.1,4.3,0,6.4,0
		c1.1,0,1.8,0.1,1.8,1.5c0,1.3-0.3,1.9-1.8,1.9c-1.9-0.1-3.9,0.1-5.8-0.1c-2.2-0.2-2.5,0.7-2.5,2.6c0,2,0.6,2.5,2.5,2.3
		c2.3-0.1,4.6,0,7,0c1.1,0,2,0,2,1.6c0,1.7-0.8,1.8-2.2,1.8c-3.9-0.1-7.7-0.1-11.6,0c-1.5,0-2.1-0.4-2-1.9
		C305,712.4,305,709.8,305,707.2z"/>
	<path class="st1" d="M690.5,637.7c0,4.8-0.1,9.7,0,14.5c0.1,2.9-1.8,2-3.3,2.1c-1.5,0-3.3,0.7-3.2-2.2c0.2-9.1,0.1-18.1,0.1-27.2
		c0-1.6,4.7-4.6,6-3.8c0.7,0.4,0.3,1.2,0.4,1.9C690.5,627.9,690.5,632.8,690.5,637.7z"/>
	<path class="st1" d="M448.1,707.2c0-2.5,0.1-5,0-7.5c-0.1-1.4,0.5-1.8,1.8-1.8c4,0.1,7.9,0.1,11.9,0c1.3,0,1.7,0.4,1.7,1.7
		c0,1.1-0.3,1.8-1.6,1.8c-2.5-0.1-5,0.1-7.5,0c-1.4-0.1-1.9,0.5-1.8,1.9c0.1,1.1-0.2,2.4,1.7,2.2c1.8-0.1,3.7-0.1,5.5,0
		c1.1,0.1,2.8-1,2.9,1.5c0,2.6-1.8,1.6-3,1.7c-1.7,0.1-3.5,0.1-5.2,0c-2.3-0.2-1.7,1.5-1.8,2.7c-0.1,1.4,0,2.4,1.9,2.3
		c2.5-0.2,5,0,7.5-0.1c1.3,0,1.9,0.3,1.9,1.7c0,1.5-0.6,1.7-1.9,1.7c-4-0.1-7.9-0.1-11.9,0c-1.5,0-2-0.5-2-2
		C448.1,712.4,448.1,709.8,448.1,707.2z"/>
	<path class="st1" d="M665.6,697.3c2.6-0.1,5,0.7,6.6,2.8c0.7,0.9,2,2.4,0.8,3.1c-0.9,0.6-3,1.1-4-0.8c-1.3-2.1-3.3-2-5.4-1.7
		c-1.2,0.2-2,0.9-2.1,2.1c-0.1,1.2,0.9,1.6,1.8,1.9c2.5,0.7,5.1,1.2,7.5,2.1c3.5,1.4,4.2,5.7,1.6,8.3c-3,3.1-10.7,3.1-13.6,0
		c-1-1.1-2.5-2.8-1.2-3.9c1-0.9,3.1-1,4.2,1.3c1,2,5.7,2.2,7.3,0.6c1.3-1.3,0.9-2.5-0.7-3.1c-1.8-0.7-3.7-1-5.6-1.5
		c-4.2-1.2-5.7-2.7-5.5-5.6c0.2-3.1,2.8-5.3,6.7-5.6C664.6,697.3,665.1,697.3,665.6,697.3z"/>
	<path class="st1" d="M618.5,707.3c0-2.6,0.1-5.2,0-7.8c0-1.3,0.4-1.7,1.6-1.7c4.1,0.1,8.1,0.1,12.2,0c1.2,0,1.5,0.5,1.4,1.6
		c0,1,0.1,1.9-1.4,1.9c-2.5-0.1-5,0.1-7.5-0.1c-1.6-0.1-1.9,0.7-1.9,2.1c0,1.4,0.4,2.1,2,2c2-0.1,4.1,0,6.1,0c1.1,0,2.1-0.1,2,1.6
		c0,1.5-0.6,1.8-1.9,1.8c-2.1-0.1-4.3,0.1-6.4,0c-2-0.1-1.8,1.2-1.8,2.5c0,1.2-0.4,2.6,1.7,2.5c2.6-0.1,5.2,0,7.8,0
		c1.1,0,1.8,0.1,1.8,1.5c-0.1,1.2-0.2,2-1.7,1.9c-4.1-0.1-8.1-0.1-12.2,0c-1.4,0-1.9-0.4-1.8-1.8
		C618.6,712.5,618.5,709.9,618.5,707.3z"/>
	<path class="st1" d="M589.2,697.3c2.9,0,5.4,0.8,7.1,3.2c0.6,0.8,1.5,2.2,0.6,2.8c-1,0.6-2.9,1-3.9-0.5c-1.4-2.2-3.4-2.3-5.6-2
		c-1.1,0.2-2,0.8-2.1,2.1c-0.1,1.3,0.8,1.6,1.8,1.9c2.3,0.6,4.7,1.1,7,1.8c2.1,0.6,3.5,2,3.6,4.4c0.1,2.5-0.9,4.4-3.2,5.4
		c-3.7,1.6-7.5,1.7-11.1-0.5c-0.5-0.3-1-0.7-1.2-1.2c-0.7-1.1-2-2.6-0.8-3.5c1-0.7,3-1.1,4.1,1.1c1,2,5.4,2.4,7.3,1
		c1.4-1.1,1.2-2.7-0.6-3.3c-1.7-0.6-3.5-0.9-5.3-1.4c-4.6-1.3-5.9-2.7-5.6-6c0.3-3,3.1-5,7-5.2C588.6,697.3,588.9,697.3,589.2,697.3
		z"/>
	<path class="st1" d="M219.8,716.6c-3.4,0.7-6,0.5-7.6-2.7c-0.7-1.4-1.7-2.5-2.7-3.7c-0.4-0.5-0.6-1.7-1.6-1.2
		c-0.8,0.4-1.7,1-1.7,2.2c0,1.1-0.1,2.1,0,3.2c0.1,1.6,0.1,2.7-2.2,2.7c-2.2,0-2.3-1-2.2-2.7c0.1-4.7,0.1-9.5,0-14.2
		c0-1.7,0.3-2.4,2.2-2.4c1.7,0,2.5,0.4,2.3,2.2c-0.2,1.7,0,3.4,0,5.9c2.1-2.2,3.9-3.7,5.2-5.4c2-2.6,4.4-3,7.8-2.3
		c-1.8,1.7-3.3,3.2-4.9,4.7c-3,2.8-3,2.8-0.4,6.1C215.8,711.5,217.7,713.9,219.8,716.6z"/>
	<path class="st1" d="M683.4,707.5c0-8.3,7.2-12.8,14.3-9.1c1.1,0.6,2.2,1.3,2.8,2.5c0.5,0.9,1.8,2.3,0.6,3c-1,0.6-3,1.1-4-0.7
		c-1.2-2.2-3.2-2.7-5.4-2.2c-2.2,0.5-3.2,2.2-3.7,4.4c-0.4,1.9-0.3,3.7,0.3,5.4c0.6,1.9,2.1,3,4.1,3.2c2,0.2,3.6-0.5,4.6-2.3
		c0.3-0.6,0.3-1.4,1.2-1.5c1,0,2.4-0.3,3.1,0.3c0.9,0.8,0,2-0.5,2.9c-1.8,3.4-6.3,5-10.6,3.8C685.7,716,683.4,712.6,683.4,707.5z"/>
	<path class="st1" d="M751,707.2c0-2.5,0.1-5,0-7.5c0-1.4,0.5-1.9,1.8-1.8c2.6,0.1,5.2-0.1,7.8,0.1c4,0.2,6.3,2.5,6.3,6.1
		c0,3.7-2.3,5.9-6.3,6.1c-0.1,0-0.2,0-0.3,0c-4.6,0.2-4.7,0.2-4.9,5c-0.1,1.7-0.8,1.8-2.1,1.8c-1.4,0-2.4-0.1-2.3-1.9
		C751.1,712.4,751,709.8,751,707.2z M758.4,701.3c-1.6-0.1-3.5-0.5-3,2.2c0.2,1.5-0.8,3.7,2.3,3.4c2-0.2,4.6,0.4,4.8-2.8
		C762.5,701.3,760.4,701.3,758.4,701.3z"/>
	<path class="st1" d="M198.7,716.7c-2.7,0.4-5,0.8-5.5-2.5c-0.1-0.9-0.9-1.1-1.7-1.1c-1.6,0-3.3,0-4.9,0c-1,0-1.8,0.2-1.9,1.3
		c-0.5,3.3-2.8,2.7-5.3,2.5c2.3-6,4.6-11.9,6.8-17.8c0.6-1.6,1.9-1,2.9-1c1,0,2.3-0.6,2.9,1C194.1,704.8,196.4,710.7,198.7,716.7z
		 M188.9,702.5c-0.4,1.1-0.8,2-1.1,2.9c-1.7,4.7-1.7,4.7,3.2,4.3c0.1,0,0.3-0.2,0.5-0.4c-0.6-1.8-1.2-3.6-1.9-5.3
		C189.5,703.5,189.2,703.1,188.9,702.5z"/>
	<path class="st1" d="M402.3,716.8c-2.9,0.4-5.1,0.5-5.5-2.6c-0.1-0.9-0.9-1.1-1.8-1.1c-1.6,0-3.3,0.1-4.9,0c-1,0-1.7,0.3-1.9,1.3
		c-0.6,3.2-2.8,2.7-5.3,2.4c2.3-6,4.6-11.9,6.8-17.8c0.6-1.6,1.9-1,2.9-1c1,0,2.3-0.6,2.9,1C397.8,704.8,400,710.7,402.3,716.8z
		 M395.2,709.6c-0.7-2-1.2-3.7-1.9-5.4c-0.2-0.5-0.5-1-0.8-1.8c-0.4,1.1-0.8,2-1.1,2.8C389.7,710,389.7,710,395.2,709.6z"/>
	<path class="st1" d="M342.3,707.4c0-3.7,1-6.9,4.4-8.9c3.4-1.9,6.8-1.7,10.2,0.1c1,0.6,2,1.3,2.5,2.4c0.4,0.9,1.8,2.3,0.5,2.9
		c-1.1,0.5-3,1.1-4-0.9c-1.1-2.1-3.1-2.6-5.2-2.2c-2.1,0.4-3.2,1.9-3.8,4c-0.5,1.9-0.5,3.8,0.1,5.7c0.6,2,2.1,3.3,4.2,3.4
		c2,0.1,3.7-0.5,4.5-2.4c0.9-2.3,3-1.7,4.1-1.1c1.3,0.7,0,2.2-0.5,3.2c-2,3.4-6.4,4.7-10.8,3.4C344.6,715.9,342.3,712.4,342.3,707.4
		z"/>
	<path class="st1" d="M275.7,716.8c2.3-6,4.5-11.7,6.6-17.5c0.7-1.9,2.1-1.3,3.3-1.4c1.3-0.1,2.3-0.1,2.9,1.5
		c1.8,5.1,3.8,10.1,5.7,15.1c0.3,0.7,1.6,1.9-0.1,2.2c-1.2,0.2-2.9,0.9-3.9-0.9c-0.5-1-0.3-2.6-1.7-2.8c-2.2-0.2-4.4-0.1-6.7,0
		c-0.3,0-0.7,0.6-0.9,1C279.6,717,279.6,717,275.7,716.8z M285.4,702.2c-0.8,2.3-1.5,4.1-2.1,5.9c-0.2,0.5-0.8,1.4,0.4,1.5
		c1.3,0.1,2.9,0.4,3.9-0.2c0.9-0.5-0.3-1.9-0.6-2.8C286.6,705.4,286.1,704.1,285.4,702.2z"/>
	<path class="st1" d="M539.1,716.7c2.3-6,4.5-11.9,6.8-17.8c0.8-2,2.5-0.7,3.8-1c1.3-0.3,1.8,0.5,2.2,1.7c1.8,5,3.8,9.9,5.6,14.9
		c0.3,0.7,1.5,2,0.1,2.4c-1.2,0.3-2.9,0.9-4-0.7c-0.6-1-0.2-2.8-1.9-2.9c-2.1-0.2-4.2-0.1-6.4,0c-0.6,0-0.9,0.5-1,0.9
		C544,717.3,541.8,717.3,539.1,716.7z M548.7,702.2c-0.8,2.3-1.5,4.1-2.1,6c-0.2,0.5-0.8,1.4,0.4,1.5c1.3,0.1,2.9,0.4,3.9-0.2
		c0.9-0.5-0.3-1.9-0.6-2.8C549.9,705.4,549.4,704.1,548.7,702.2z"/>
	<path class="st1" d="M141.2,716.7c2.3-5.9,4.5-11.7,6.6-17.4c0.7-1.9,2-1.3,3.3-1.4c1.3-0.1,2.3-0.1,2.9,1.5
		c1.8,5.1,3.8,10.1,5.7,15.1c0.3,0.7,1.6,1.9-0.1,2.2c-1.2,0.2-2.9,0.9-3.9-0.9c-0.5-1-0.3-2.6-1.7-2.8c-2.2-0.2-4.4-0.1-6.6,0
		c-0.3,0-0.8,0.6-0.9,1C146.1,717.3,143.9,717.2,141.2,716.7z M150.8,702.3c-0.9,2.4-1.5,4.2-2.1,6.1c-0.2,0.6-0.6,1.4,0.5,1.4
		c1.3,0,2.9,0.6,3.9-0.3c0.7-0.7-0.4-1.9-0.7-2.9C152,705.3,151.4,704,150.8,702.3z"/>
	<path class="st1" d="M267,716.7c-2.8,0.4-5.1,0.6-5.6-2.7c-0.1-0.9-1-1-1.8-1c-1.4,0-2.9,0.1-4.3,0c-1.5-0.1-2.4,0.5-2.7,1.9
		c-0.4,2.6-2.4,2-4,1.9c-1.1,0-0.8-0.8-0.5-1.4c2.1-5.5,4.2-11,6.3-16.4c0.7-1.9,2.3-1,3.5-1.1c1-0.1,2-0.2,2.5,1.2
		C262.5,705,264.7,710.8,267,716.7z M257.4,702.6c-1.3,1.8-1.6,3.9-2.4,5.7c-0.2,0.5-0.5,1.3,0.3,1.4c1.3,0.1,2.7,0.2,4-0.1
		c0.8-0.2,0.2-1,0-1.4C258.8,706.4,258.1,704.6,257.4,702.6z"/>
	<path class="st1" d="M787.9,716.7c-2.6,0.3-4.9,0.9-5.5-2.5c-0.2-1-1-1.2-2-1.2c-1.3,0.1-2.7,0.1-4,0c-1.6-0.2-2.6,0.4-2.9,2
		c-0.5,2.6-2.5,1.9-4.1,1.8c-1.2,0-0.6-0.9-0.4-1.5c2-5.4,4.1-10.8,6.1-16.2c0.5-1.3,1.4-1.5,2.5-1.3c1.2,0.2,2.7-0.9,3.5,1
		C783.3,704.9,785.6,710.7,787.9,716.7z M778.2,702.2c-0.9,2.5-1.6,4.4-2.3,6.3c-0.2,0.5-0.3,1.1,0.3,1.2c1.4,0.2,3,0.6,4.2-0.2
		c0.7-0.4-0.3-1.7-0.6-2.6C779.4,705.6,778.9,704.2,778.2,702.2z"/>
	<path class="st1" d="M323.1,698.3c5.7-2.3,6.1,2.8,8.4,5.4c2.3-2.7,2.9-7.7,8.4-5.5c-1.5,2.3-3.1,4.7-4.8,7c-1,1.3-0.9,2.3,0,3.6
		c1.8,2.5,3.4,5.1,5.2,7.7c-5.9,2.4-6.3-3-8.8-5.7c-2.6,2.3-3,8.2-8.9,5.9c1.8-2.6,3.5-5.3,5.4-7.8c0.8-1.1,0.8-1.9,0-3
		C326.3,703.3,324.7,700.8,323.1,698.3z"/>
	<path class="st1" d="M601,706.6c0.3-2.5-1.3-6.6,0.6-8.3c1.7-1.5,5.7-0.4,8.7-0.5c1.2,0,2.3,0.1,3.5,0c1.3-0.1,1.9,0.2,1.9,1.7
		c0,1.4-0.6,1.8-1.9,1.8c-2.1-0.1-4.2,0.1-6.4,0c-1.6-0.1-2.2,0.3-2.2,2.1c0,1.8,0.6,2.4,2.3,2.2c1.6-0.1,3.3,0,4.9,0
		c1.2,0,2,0.2,2,1.7c0,1.5-0.6,1.9-1.9,1.7c-0.3,0-0.6,0-0.9,0c-2,0.1-4.6-0.6-5.9,0.4c-1.4,1.1-0.5,3.8-0.5,5.8
		c0,1.6-0.7,1.9-2.1,1.9c-1.5,0-2.4-0.2-2.3-2C601.1,712.4,601,709.8,601,706.6z"/>
	<path class="st1" d="M810,698.1c3.2-0.9,5.4-0.2,6.5,3.1c0.5,1.5,1.5,2.9,2.3,4.5c1.4-1.3,1.9-2.9,2.4-4.3c1.1-3.1,2.9-4.4,6.2-3.2
		c-0.5,2.1-1.8,3.9-3,5.7c-2.3,3.5-4.1,7.2-3.4,11.6c0.3,1.6-0.9,1.6-2,1.5c-1-0.1-2.5,0.4-2.2-1.3c1-5.5-2.3-9.5-4.8-13.7
		C811.3,700.6,810.3,699.6,810,698.1z"/>
	<path class="st1" d="M509,697.9c2.2,0,4.4,0.1,6.7,0c1.3,0,1.9,0.3,1.9,1.8c0,1.3-0.5,1.6-1.7,1.7c-4.6,0.3-4.6,0.4-4.6,5
		c0,2.9-0.1,5.8,0,8.7c0.1,1.8-0.8,2-2.2,2c-1.6,0-2.3-0.4-2.2-2.1c0.1-3.7-0.1-7.4,0.1-11c0.1-2.3-0.7-2.9-2.8-2.6
		c-0.9,0.1-2,0.2-2.9-0.1c-1-0.4-0.5-1.5-0.6-2.3c-0.1-1,0.7-1,1.4-1C504.4,697.9,506.7,697.9,509,697.9z"/>
	<path class="st1" d="M163.3,707.3c0-2.5,0.1-5,0-7.5c-0.1-1.9,0.9-1.9,2.3-1.9c1.5,0,2.3,0.2,2.2,2c-0.1,3.8,0,7.5-0.1,11.3
		c-0.1,1.8,0.3,2.6,2.3,2.5c1.9-0.2,3.9,0,5.8,0c1.1,0,2-0.1,2,1.5c0,1.6-0.6,1.9-2,1.9c-3.6-0.1-7.1-0.1-10.7,0
		c-1.4,0-1.9-0.4-1.8-1.8C163.3,712.5,163.3,709.9,163.3,707.3z"/>
	<path class="st1" d="M657.3,621.2c1.4-2.4,2.9-4.1,3.8-6.2c0.5-1.2,2-1.4,3.3-1c0.7,0.2,1.7,0.3,1.6,1.3c-0.1,0.7-0.7,1.4-1.6,1.3
		c-1.1-0.2-1.9,0.2-1.7,1.3c0.2,1.1,1.3,0.5,1.9,0.6c1,0.1,2-0.1,1.9,1.4c0,1.5-1.1,1.3-2,1.3C662.4,621.2,660.1,621.2,657.3,621.2z
		"/>
	<path class="st1" d="M218,662.4c0.2-2.1,1.2-3.6,3.4-3.6c2.1,0,3.4,1.4,3.4,3.5c0,2-1.2,3.4-3.2,3.5
		C219.4,665.9,218.3,664.4,218,662.4z"/>
	<path class="st1" d="M226.8,662.3c0.2-2.2,1.3-3.6,3.5-3.5c2.2,0.1,3.4,1.5,3.3,3.6c-0.1,2-1.3,3.3-3.3,3.4
		C228.1,665.8,227,664.4,226.8,662.3z"/>
	<path class="st1" d="M298.9,620c2.5,0.1,3.7,1.4,3.7,3.5c0,2.1-1.2,3.5-3.4,3.5c-2,0-3.2-1.4-3.3-3.3
		C295.8,621.5,297.1,620.4,298.9,620z"/>
	<path class="st1" d="M816.4,623.6c-0.2,2.1-1.2,3.5-3.4,3.6c-2.3,0-3.4-1.5-3.3-3.6c0-1.9,1.2-3.4,3.2-3.4
		C815.1,620.1,816.2,621.5,816.4,623.6z"/>
	<path class="st1" d="M425.4,620.8c-0.3,2-1.3,3.5-3.5,3.4c-2.2,0-3.4-1.5-3.3-3.5c0-2,1.2-3.5,3.4-3.5
		C424.1,617.3,425.1,618.8,425.4,620.8z"/>
	<path class="st1" d="M807.6,623.8c-0.4,2-1.4,3.4-3.6,3.4c-2.2-0.1-3.3-1.6-3.2-3.6c0.1-2,1.3-3.5,3.5-3.4
		C806.4,620.3,807.4,621.7,807.6,623.8z"/>
	<path class="st1" d="M308.1,620c2.2,0.2,3.4,1.5,3.4,3.5c0,2-1.3,3.5-3.4,3.5c-2.2,0-3.3-1.5-3.3-3.5
		C304.7,621.5,306,620.2,308.1,620z"/>
	<path class="st1" d="M162.6,631.1c-0.2,2-1.1,3.6-3.3,3.7c-2.2,0.1-3.4-1.3-3.5-3.3c-0.1-2,1.1-3.5,3.2-3.6
		C161.2,627.6,162.2,629.1,162.6,631.1z"/>
	<path class="st1" d="M706.3,622.5c0.3-2.1,1.3-3.6,3.5-3.5c1.9,0.1,3.2,1.3,3.3,3.3c0.1,2.1-1.2,3.5-3.3,3.6
		C707.6,626,706.7,624.4,706.3,622.5z"/>
	<path class="st1" d="M395.7,622.6c0.4-2.1,1.4-3.6,3.6-3.5c2.1,0.1,3.4,1.5,3.3,3.6c-0.1,1.9-1.3,3.3-3.3,3.3
		C397.1,625.9,396.1,624.5,395.7,622.6z"/>
	<path class="st1" d="M168.1,634.8c-2.1-0.3-3.3-1.5-3.2-3.6c0.1-2,1.2-3.3,3.2-3.4c2.2-0.1,3.4,1.4,3.5,3.4
		C171.5,633.3,170.3,634.6,168.1,634.8z"/>
	<path class="st1" d="M386.9,622.3c0.3-1.9,1.3-3.3,3.3-3.3c2.1,0,3.5,1.4,3.4,3.5c-0.1,2.1-1.5,3.4-3.6,3.3
		C388,625.8,387.1,624.3,386.9,622.3z"/>
	<path class="st1" d="M718.7,618.9c2.1,0.4,3.4,1.6,3.3,3.7c-0.1,2-1.4,3.3-3.4,3.3c-2.1-0.1-3.4-1.4-3.3-3.6
		C715.4,620.3,716.7,619.2,718.7,618.9z"/>
	<path class="st1" d="M805.2,616c0.2-2,1.3-3.3,3.3-3.2c1.9,0.1,3,1.3,3,3.2c0,2-1.1,3.4-3.2,3.4C806.5,619.4,805.4,618,805.2,616z"
		/>
	<path class="st1" d="M273.1,703.9c-0.6,1.1,1.3,3.5-1.7,3.7c-1,0.1-1.6-0.1-1.6-1.4c0-1.2-0.1-2.5-0.2-3.7
		c-0.1-1.4-0.2-2.6,1.9-2.5c2.2,0,1.5,1.4,1.6,2.5C273.1,702.9,273.1,703.3,273.1,703.9z"/>
	<path class="st2" d="M319.2,484c3.8,3.3,7.3,6.1,11.5,7.9c10.4,4.7,21.3,5.8,32.5,5.3c12.3-0.6,24.2-3.5,36-6.9
		c30.1-8.6,57.4-22.8,82.9-40.9c24-17.1,47.6-34.6,69.6-54.2c12.5-11.2,24.8-22.8,34.2-36.8c10.3-15.2,20.3-30.7,27.6-47.7
		c2.4-5.5,4.6-11.1,3.7-17.3c-0.7-4.9-3.5-7.2-8.4-7.3c-19.7-0.3-39.4-0.6-59.1-0.9c-0.4-1.1,0.7-1.2,1.2-1.7
		c0.5-0.7,1.3-1.2,1.9-1.8c9.8-9.1,9.8-9.2,23.3-9.6c14.2-0.5,28.2,0.3,41.6,5.7c19.6,7.8,31.6,22.2,35.7,42.9
		c1.5,7.6-0.3,15.1-3,22.4c-5.9,15.4-13.5,29.8-22.8,43.4c-16.9,24.7-36.9,46.5-59.6,66c-22.2,19.1-45,37.3-69.3,53.7
		c-14.6,9.9-29.9,18.7-45.2,27.6c-17.6,10.2-35.9,18.7-55.1,25.4c-23.2,8.1-46.4,8.9-69.8,0.7c-3.9-1.4-7.6-3.3-11.3-5.2
		c-1.5-0.7-1.5-1.8-1.4-3.1C317.1,529.2,318.2,507,319.2,484z M537,439c-4-1.9-8.3-2.5-12.7-2c-0.8,0.1-1.9,0-1.5,1.4
		c1.3,4.5,5.9,6.5,9.9,4c2-1.3,3.9-0.5,5.3,0.4c1.3,0.9,0.5,3-0.4,3.9c-2.9,3-0.9,5.4,0.2,8.2c1.8-1.4,3.3-2.7,4.9-4
		c4.2-3.5,4.3-4.5,0-8.2c-2.8-2.5-3.6-5.8-4.2-9.1c-0.4-2.4-0.4-4.5-3.6-4.8c-0.9-0.1-1.8-1-2.8-1.6c0.1,2.6,0.4,4.9,2.6,6.7
		c1.3,1,2.3,2.6,2.8,4.3C537.3,438.6,537.2,438.8,537,439z M551.6,427.8c-0.2-0.2-0.5-0.3-0.7-0.5c-0.1,0.4-0.1,0.7,0.3,0.9
		c1.4,3.6,3.8,6.4,6.7,8.9c1.2,1,2.6,2.3,4.4,1.4c1.9-1,1.5-2.8,1.2-4.4c-0.4-2.5-1-4.9-1.4-7.4c-0.2-1-0.5-2.3,0.4-3
		c0.9-0.7,2,0.1,2.9,0.6c4.1,2,4.9,1.9,8.2-1.5c6.9-7.1,13.5-14.6,20.1-22c2.2-2.4,2.6-4.3,1.2-7.2c-1.9-4-6.2-5.1-9.4-2.1
		c-1.6,1.5-2.9,3.3-4.3,5.1c-3.4,4.7-7.1,9.1-11.8,12.5c-0.2-0.1-0.3-0.3-0.5-0.4c0.6-3.4,1.7-6.8,3.2-9.8c1.4-2.8,0.6-5-0.3-7.9
		c-1,2.2-1.9,3.9-2.5,5.7c-1.7,5-3.1,10.1-2,15.6c0.6,2.9,1.8,3.4,4.2,1.7c2.1-1.5,3.8-3.5,5.7-5.3c0.9-0.8,1.5-2.2,2.9-2.4
		c0.4,0.9,0,1.3-0.4,1.7c-3.2,3.4-6.6,6.7-9.7,10.3c-2.1,2.5-4,2.6-6.7,0.9c-2.6-1.7-3.8-1-4.2,2.1c-0.4,3.1,0.1,6.1,1.1,9.1
		c0.4,1.2,0.6,2.5-0.7,3.4c-1.4,0.9-2.4,0-3.4-0.8C554.4,431.5,552.9,429.7,551.6,427.8z M503.4,464.9c1.4-3.7,3-6.7,5-9.2
		c2-2.5,1.7-5,1.4-7.9c-4.4,4.7-7.5,11.5-8,17.2c-0.2,1.7-0.2,3.5,1.2,4.6c1.4,1.1,2.7-0.3,4-0.9c1.1-0.5,2.2-1.2,3.3-1.9
		c4.8-3,9-6.6,13.4-10.1c1.2-1,2.5-1.9,4.8-1.4c-8.2,6.4-16.3,12-24.4,17.5c-2.1,1.4-3.7,2.1-5.4-0.4c-0.8-1.1-2.1-1.6-3.4-2.1
		c-0.8-0.3-1.6-0.4-2.1,0.3c-1.8,2.7-0.4,5.4,0.3,8.1c0.5,1.9,1.2,3.8,3.5,4.2c0.7,0.1,1.5-0.2,2.2-0.4c0.7-0.2,1.2-1,2.1-0.9
		c0.3,1.7,0.2,3.4-0.9,4.7c-3.9,4.8-8.3,8.9-14.4,10.6c-2.6,0.7-4.7-0.2-5.9-2.9c-1.7-3.9-0.5-7.4,1.7-10.6c1.6-2.3,1.8-4.3,0.2-6.7
		c-1.2,1.7-2.4,3.3-3.6,4.9c-1.3,1.7-3,1.4-4.4,0.7c-1.8-1-0.4-2.4,0.1-3.5c0.8-2,2.6-2.9,4.9-3.3c-4.9-2.3-7.6-0.7-7.6,4.1
		c0,1.5,0.2,2.9,0.5,4.3c0.5,2.2,1.4,3.8,3.9,4.1c1.2,0.1,1.4,0.8,1.5,1.9c0.3,3.1,0.7,6.1,2.1,9c1.7,3.4,3.8,4.4,7.5,3.5
		c4.5-1.1,7.3-4.2,8.8-8.4c0.5-1.4,1.3-2,2.8-2.3c5.7-1.2,7-3.3,6-9.1c-0.1-0.4,0-0.8-0.2-1.1c-0.7-1.5,0-2.1,1.2-2.9
		c8.5-5.5,16.7-11.5,24.9-17.4c2.5-1.9,3.1-3.5,2.2-6.4c-1.4-4.4-5.7-6.3-9.6-3.8c-1.6,1-3.1,2.3-4.5,3.6
		C514.1,458.7,509.3,462,503.4,464.9z M416.6,525.9c1.7,1.1,3.4,0.8,5,0.9c4.7,0.2,6.2-1.4,6.2-6.1c0-0.8,0-1.6-0.2-2.3
		c-0.4-1.2,0.1-1.5,1.2-1.6c2.2-0.2,4.4-0.8,5.9-2.6c0.4-0.4-0.1-1.7,1-1.2c0.7,0.3,1.7,0.6,1.7,1.7c0,0.6-0.3,1.3,0.7,1.7
		c-0.1-2.4,1.1-3.3,3.2-4.1c5.3-2.1,10.4-4.6,15.6-6.9c1.9-0.8,3.4-1.8,2.6-4.9c3.2,3,5.4,0.9,7.9-0.1c2.7-1,3.1-2.6,2.3-5.2
		c-1.2-3.6-4.7-6.6-4.9-10c-0.3-4.8-3.1-6-6.5-7.4c-0.3-0.1-0.5-0.6-0.9-0.2c0.1,1.9-0.4,4.1,1.3,5.4c3.5,2.7,4.9,6.8,7.5,10.1
		c0.4,0.5,0.6,0.8-0.1,1.4c-3.4,2.9-6,2.5-8.4-1.4c-2.4-4-4.7-8.1-7.1-12.3c-1,3.1-0.4,5.7,1.4,8.1c1.1,1.5,2,3.3,3,4.9
		c3.3,5.2,3,4.6-2.1,7.1c-0.1,0.1-0.3,0-0.6-0.1c0.4-2.9-1.3-4.5-3.7-5.4c-2.5-1-4.2,0.6-5.7,2.3c-2.2,2.5-3.7,5.4-4.9,8.4
		c-0.3,0.7-0.4,1.6-1.5,1.5c-0.8,0-1.4-0.6-1.7-1.3c-0.2-0.6-0.4-1.2-1.1-1.5c-0.9,4.6-2.2,6-5.8,6.3c-3.3,0.2-5.8-1.9-9-3.4
		c0.9,3.3,1.2,6.3,4.7,7.4c1.3,0.4,1.2,1.6,1.2,2.7C424.5,522.5,422.1,524.9,416.6,525.9z M379.1,519.6c0.4,4.6,1.6,8.9,4.4,12.6
		c0.8,1.1,1.9,1.9,3.4,1.7c1.8-0.3,2.2-1.8,2.5-3.2c0.3-1.6,0.4-3.3,0.7-4.9c0.3-1.6,0.1-3.8,1.8-4.3c1.6-0.5,2.5,1.5,3.4,2.6
		c1.6,1.9,3.4,2.9,5.8,2.3c2.6-0.7,5.2-1.5,7.8-2.3c1.1-0.3,2-0.9,1.9-2.2c-0.3-5.7-2.5-10.5-7.2-13.9c-2-1.5-3.6-0.9-4.4,1.5
		c-0.8,2.1-0.6,4.2-0.2,6.3c0.4,1.8,0.9,3.5,3.1,3.5c2.1,0,3.6-1,3.7-3.5c1,0.7,1.3,1.5,1.6,2.5c-1,0.4-2,0.8-3,1.2
		c-4,1.5-7.9,2.7-10.7-2.3c-1.1-1.9-2.8-1.1-4,0.5c-1.7,2.4-2,5.2-2.4,7.9c-0.2,1.2-0.2,2.7-1.7,3c-1.6,0.4-2.4-0.8-3.2-2
		C380.9,524.6,380.3,522,379.1,519.6z M610,360.4c1.2,2,1.1,3.7,2.3,4.8c0.4,0.4,1.4,0.7,0.9,1.5c-0.4,0.8-1.2,1.3-2,1.5
		c-1.1,0.3-1.1-0.8-1.5-1.4c-0.5-0.6-0.2-1.6-1.5-1.9c-0.3,3.2,3.2,6.9-1.1,9.5c-1.2-0.7-0.6-2.7-2.7-3.1c1.3,3.5,1.1,6.4-1.5,9.1
		c-2.7,2.8-6.1,1.5-9.7,2.1c1.9,1.8,2.3,4.8,5,4.7c3.2-0.1,3.8,1.6,4.4,4c0.7,3.2-0.5,5.6-2.2,8c-0.2,0.3-1,0.4-0.6,1
		c0.3,0.5,0.7,0.2,1.2,0.1c4.6-1.2,6.5-4.3,5.1-8.8c-0.3-1.1-0.7-2.2-1.4-3.1c-0.9-1.2-0.6-1.7,0.5-2.5c3.2-2.7,5.4-6.2,7.5-9.7
		c1.1-1.9,1.7-4,3.8-5.3c1.1-0.7,1.1-1.9,0.6-3.1C615.5,364.9,613.7,362.4,610,360.4z M537.6,423.3c1.4,9,9.2,13.1,14.2,19.2
		C550,434,542.9,429.3,537.6,423.3z M415.4,521.4c0.3-0.1,0.5-0.2,0.8-0.3c-0.2-8.5-5.6-14.8-9.2-21.9c-0.2,2.4-0.7,4.8,0.4,7
		C409.9,511.3,412.7,516.4,415.4,521.4z M601.2,361.5c-0.4,0.3-0.6,0.5-0.9,0.6c-1.2,0.3-2.5,0.4-1.8,2.3c0.4,1,0.3,2,1.9,1.8
		c1.7-0.2,2.1-1,1.8-2.5c-0.2-0.8,0.1-1.4,0.9-1.5c2.6-0.2,2.4-2.1,1.7-3.5c-0.8-1.5-2.3-0.1-3.5,0c-0.3,0-0.1,0.8-0.6,0.6
		c-0.1,0-0.1-0.3-0.1-0.5c-0.1-2.6-1.9-0.9-2.7-0.9c-1.5,0-0.5,1.3-0.4,2C597.6,362.7,599.7,361,601.2,361.5z M382.2,510.9
		c0.4,0.1,0.8,0.2,1.2,0.4c1.4,0.6,2.7,0.8,3.1-1.1c0.2-0.8,1.4-2.1,0.1-2.4c-1.3-0.2-3.1-2.5-4.4,0.1c-0.8,1.7-2,1.2-3.1,0.6
		c-2.2-1.2-2,1-2.6,1.8c-1,1.5,0.2,1.8,1.2,2.1c1.4,0.4,2.8,1,3.5-1C381.3,511,381.6,510.7,382.2,510.9z M545.5,419.3
		c0.3,0.4-0.9,2,1.1,1.8c1.3-0.1,3.2,0.2,3-2c-0.2-1.6,1-1.7,1.9-1.8c2.4-0.2,2.4-1.7,2.1-3.5c-0.1-0.6,0.3-1.8-1.1-1.4
		c-1.3,0.4-3.6-0.5-3.4,2.3c0.1,1.1-0.7,1.8-1.8,1.7C545.5,416.4,545.1,417.3,545.5,419.3z M399.4,504.5c-1.3-0.8-2.3-1.8-3.5-1.9
		c-1.5-0.1-1.8,1.7-1.9,2.7c-0.2,1.6,1.5,2.2,2.8,2.2C398.6,507.7,398,505.4,399.4,504.5z M523.9,430.5c-1.8,0.6-2.2,2.6-3.9,1.6
		c-0.1,0-0.6,0.3-0.5,0.8c0.2,1.7,2,1.2,2.7,2.2c0.4,0.5,0.4-0.1,0.5-0.1C523.1,433.6,523.5,432.3,523.9,430.5z"/>
	<path class="st2" d="M385.6,399.4c-8.3,14.3-16.6,28.6-24.9,42.9c-8.5,14.6-17.1,29.2-25.6,43.9c-1,1.6-1.6,1.8-3.3,1
		c-2.9-1.6-5.5-3.4-8.1-5.5c-2-1.7-2.1-3.3-1.1-5.6c8.6-18.8,20.1-35.7,34-51c8.7-9.5,18-18.5,28.5-26.1
		C385.3,399.1,385.4,399.3,385.6,399.4z"/>
	<path class="st2" d="M572.3,507c-2.1-0.1-4-0.6-5.7-0.3c-3.7,0.6-5-1.5-6.3-4.3c-3.4-7-7-13.9-10.6-20.8c-0.6-1.2-0.7-2.1,0.5-3.2
		c2.9-2.7,5.8-5.4,8.4-8.4c1.5-1.7,2.1-1.1,2.9,0.5c5.6,10.2,11.3,20.3,16.9,30.5c0.8,1.4,2.8,2.7,1.6,4.6c-1.3,1.9-3.6,1.5-5.6,1.4
		C573.6,507,572.8,507,572.3,507z"/>
	<path class="st2" d="M542,507.3c-8.2-0.2-16.4-0.5-24.5-0.8c-0.7,0-1.7,0.4-2.1-0.5c-0.4-0.8,0.4-1.4,0.9-2
		c3.6-4.7,8.4-8.2,13-11.8c1.6-1.2,3.4-2.3,4.8-3.7c1.5-1.4,2.3-1.6,3.5,0.5c2.4,4.3,5.1,8.3,7.7,12.5c0.8,1.3,2.4,2.7,1.2,4.4
		C545.5,507.6,543.6,507.3,542,507.3z"/>
	<path class="st2" d="M437,429.6c3.5,7.6,6.9,14.8,10.4,22.3c-6,0-11.7,0.1-17.5-0.1c-2.7-0.1-3.8-2.7-2.5-5
		C430.6,441.2,433.7,435.6,437,429.6z"/>
	<path class="st2" d="M385.2,399c0.2-0.1,0.4-0.4,0.5-0.4c0.4,0.3,0.1,0.5-0.1,0.8C385.4,399.3,385.3,399.1,385.2,399z"/>
	<path class="st2" d="M495.8,648.3c-2.4,0-4.8-0.1-7.2,0c-1.8,0.1-2.2-0.5-1.5-2.2c1.5-3.4,3.8-6,7-7.9c5.5-3.1,10.3-0.6,11.2,5.9
		c0.6,4,0.5,4.1-3.4,4.1C499.9,648.3,497.9,648.3,495.8,648.3z"/>
	<path class="st2" d="M255.3,644.4c-0.7,1.1,1.6,3.6-1.7,3.9c-4.3,0.4-6.2-0.7-6.9-3.9c-0.5-2.2-0.3-4.4,0.8-6.4
		c1.7-2.9,4.9-2.9,6.7,0C255.3,639.8,255.4,642,255.3,644.4z"/>
	<path class="st2" d="M607.4,644.6c-0.3,0.9,1,2.9-0.6,3.5c-1.7,0.6-3.9,0.6-5.6-0.3c-2.5-1.3-2.6-3.8-2.5-6.3
		c0.1-2.3,0.8-4.5,3.1-5.4c2.2-0.9,3.7,0.4,4.7,2.2C607.6,640.1,607.6,642.1,607.4,644.6z"/>
	<path class="st2" d="M716.7,640.9c-0.2,1.5-0.2,3.1-0.5,4.6c-0.3,1.7-1.4,2.8-3.2,2.8c-1.9,0-3.1-0.9-3.5-2.8
		c-0.5-1.9-0.6-3.8-0.1-5.7c0.7-2.9,3.8-4.5,6.5-3.5c0.8,0.3,0.7,0.8,0.7,1.4c0,1.1,0,2.1,0,3.2
		C716.7,640.9,716.7,640.9,716.7,640.9z"/>
	<path class="st2" d="M397.3,640.7c-0.1,1.4-0.2,2.8-0.4,4.3c-0.3,1.9-1.3,3.3-3.4,3.3c-2.1,0-3.2-1.2-3.6-3.1
		c-0.4-1.8-0.4-3.6,0-5.5c0.6-2.8,4.1-4.7,6.6-3.3C398.1,637.3,396.8,639.2,397.3,640.7z"/>
	<path class="st2" d="M422.9,640.5c-3.9,0-5.2-0.8-5.1-3c0.1-2.8,2.3-3.1,4.3-3.1c3-0.1,4.3,1.2,4.4,4.1
		C426.4,640.5,426.4,640.5,422.9,640.5z"/>
	<path class="st2" d="M356,642.5c0-4,1.9-6.7,4.4-6.7c2.6,0,4.6,3.1,4.5,6.7c0,0.7-0.2,1.3-0.3,2c-0.5,2.2-1.5,4.1-4.1,4.1
		c-2.7,0-3.7-2-4.2-4.4C356.1,643.6,356.1,642.9,356,642.5z"/>
	<path class="st2" d="M480.8,717.7c-1.8,0-3-0.7-3.1-2.5c0-1.5,1-2.4,2.2-3c0.4-0.2,4,3.6,3.8,4
		C483.1,717.6,481.9,717.6,480.8,717.7z"/>
	<path class="st2" d="M483.4,705.5c-0.2,1-0.7,2.1-1.9,2c-1,0-1.4-1.2-1.5-2.2c-0.1-1.2,0.7-1.7,1.8-1.7
		C482.8,703.8,483.4,704.4,483.4,705.5z"/>
	<path class="st2" d="M527.9,706.1c-3.9,0-4-0.1-3.7-3.4c0.1-1.1,0.5-1.5,1.6-1.5c1.2,0,2.5,0,3.7,0c1.6,0,2.9,0.5,3,2.4
		c0,1.8-1.3,2.4-2.9,2.4C529,706.1,528.5,706.1,527.9,706.1z"/>
	<path class="st2" d="M645.6,701.3c0.8,0,1.5,0,2.3,0c1.4,0.1,2.1,0.9,2.2,2.2c0.1,1.3-0.6,2.3-1.9,2.4c-1.7,0.2-3.5,0.2-5.2,0.1
		c-1.8-0.1-1.1-1.5-1.1-2.4c0-0.9-0.6-2.3,1.2-2.4C643.9,701.2,644.7,701.3,645.6,701.3C645.6,701.3,645.6,701.3,645.6,701.3z"/>
	<path class="st2" d="M719.4,707.6c0,4.1-2.2,6.6-5.6,6.5c-3.4-0.1-5.4-2.6-5.4-6.8c0.1-4.1,2.2-6.6,5.6-6.6
		C717.4,700.8,719.5,703.4,719.4,707.6z"/>
	<path class="st2" d="M758.4,701.3c2,0,4.1,0,4,2.8c-0.2,3.1-2.7,2.5-4.8,2.8c-3.1,0.3-2-1.9-2.3-3.4
		C754.9,700.8,756.8,701.2,758.4,701.3z"/>
	<path class="st2" d="M188.9,702.5c0.3,0.6,0.5,1,0.7,1.4c0.6,1.8,1.3,3.6,1.9,5.3c-0.2,0.2-0.3,0.4-0.5,0.4
		c-4.9,0.3-4.9,0.3-3.2-4.3C188.1,704.5,188.5,703.6,188.9,702.5z"/>
	<path class="st2" d="M395.2,709.6c-5.5,0.4-5.5,0.4-3.8-4.3c0.3-0.9,0.7-1.8,1.1-2.8c0.3,0.7,0.6,1.2,0.8,1.8
		C393.9,705.9,394.5,707.6,395.2,709.6z"/>
	<path class="st2" d="M285.4,702.2c0.7,1.9,1.3,3.1,1.6,4.4c0.3,1,1.5,2.3,0.6,2.8c-1,0.6-2.6,0.3-3.9,0.2c-1.2-0.1-0.5-1-0.4-1.5
		C283.8,706.4,284.5,704.6,285.4,702.2z"/>
	<path class="st2" d="M548.7,702.2c0.7,1.9,1.2,3.1,1.6,4.4c0.3,1,1.4,2.3,0.6,2.8c-1,0.6-2.6,0.3-3.9,0.2c-1.2-0.1-0.6-1-0.4-1.5
		C547.2,706.4,547.9,704.6,548.7,702.2z"/>
	<path class="st2" d="M150.8,702.3c0.7,1.8,1.2,3,1.6,4.3c0.3,1,1.4,2.2,0.7,2.9c-1,0.9-2.6,0.3-3.9,0.3c-1.2,0-0.7-0.8-0.5-1.4
		C149.3,706.5,149.9,704.7,150.8,702.3z"/>
	<path class="st2" d="M257.4,702.6c0.7,2,1.4,3.7,2,5.5c0.1,0.4,0.8,1.3,0,1.4c-1.3,0.2-2.7,0.2-4,0.1c-0.8-0.1-0.6-0.8-0.3-1.4
		C255.9,706.5,256.1,704.4,257.4,702.6z"/>
	<path class="st2" d="M778.2,702.2c0.7,2,1.2,3.3,1.7,4.7c0.3,0.9,1.3,2.1,0.6,2.6c-1.2,0.7-2.8,0.4-4.2,0.2
		c-0.6-0.1-0.5-0.7-0.3-1.2C776.5,706.6,777.2,704.8,778.2,702.2z"/>
	<path class="st1" d="M503.4,464.9c5.9-2.9,10.7-6.2,15-10.3c1.4-1.3,2.9-2.5,4.5-3.6c3.8-2.5,8.2-0.6,9.6,3.8
		c0.9,2.9,0.3,4.6-2.2,6.4c-8.2,6-16.4,11.9-24.9,17.4c-1.2,0.8-2,1.4-1.2,2.9c0.2,0.3,0.1,0.8,0.2,1.1c1,5.8-0.2,7.8-6,9.1
		c-1.5,0.3-2.3,0.9-2.8,2.3c-1.6,4.2-4.3,7.3-8.8,8.4c-3.7,0.9-5.8-0.1-7.5-3.5c-1.4-2.8-1.8-5.9-2.1-9c-0.1-1.1-0.3-1.8-1.5-1.9
		c-2.4-0.3-3.4-1.9-3.9-4.1c-0.3-1.4-0.5-2.8-0.5-4.3c0-4.9,2.7-6.4,7.6-4.1c-2.3,0.5-4.1,1.4-4.9,3.3c-0.5,1.1-1.9,2.5-0.1,3.5
		c1.5,0.8,3.2,1,4.4-0.7c1.2-1.6,2.4-3.2,3.6-4.9c1.6,2.4,1.4,4.4-0.2,6.7c-2.2,3.2-3.4,6.7-1.7,10.6c1.2,2.7,3.3,3.6,5.9,2.9
		c6.1-1.7,10.6-5.8,14.4-10.6c1.1-1.3,1.2-3,0.9-4.7c-0.9-0.1-1.4,0.7-2.1,0.9c-0.7,0.2-1.5,0.5-2.2,0.4c-2.3-0.4-3-2.3-3.5-4.2
		c-0.7-2.6-2.1-5.3-0.3-8.1c0.5-0.7,1.3-0.6,2.1-0.3c1.3,0.5,2.7,1,3.4,2.1c1.7,2.5,3.4,1.8,5.4,0.4c8.1-5.5,16.2-11.1,24.4-17.5
		c-2.3-0.5-3.6,0.4-4.8,1.4c-4.4,3.5-8.6,7.2-13.4,10.1c-1.1,0.7-2.1,1.3-3.3,1.9c-1.3,0.6-2.5,1.9-4,0.9c-1.4-1.1-1.4-2.9-1.2-4.6
		c0.5-5.7,3.6-12.5,8-17.2c0.3,2.9,0.6,5.4-1.4,7.9C506.3,458.2,504.8,461.2,503.4,464.9z"/>
	<path class="st1" d="M569.4,409.2c4.7-3.4,8.4-7.9,11.8-12.5c1.3-1.8,2.7-3.6,4.3-5.1c3.2-3.1,7.5-1.9,9.4,2.1
		c1.4,2.9,1,4.8-1.2,7.2c-6.6,7.4-13.2,14.8-20.1,22c-3.3,3.4-4.1,3.5-8.2,1.5c-0.9-0.5-2-1.3-2.9-0.6c-0.9,0.7-0.5,2-0.4,3
		c0.4,2.5,1.1,4.9,1.4,7.4c0.2,1.6,0.6,3.4-1.2,4.4c-1.8,0.9-3.2-0.3-4.4-1.4c-2.9-2.4-5.3-5.3-6.7-8.9c0.1-0.1,0.3-0.2,0.4-0.4
		c1.4,1.9,2.8,3.7,4.7,5.1c1,0.8,2,1.7,3.4,0.8c1.4-0.9,1.1-2.2,0.7-3.4c-1-3-1.5-6-1.1-9.1c0.4-3.1,1.6-3.8,4.2-2.1
		c2.6,1.7,4.5,1.6,6.7-0.9c3.1-3.6,6.5-6.9,9.7-10.3c0.4-0.4,0.8-0.8,0.4-1.7c-1.5,0.2-2.1,1.5-2.9,2.4c-1.9,1.8-3.5,3.8-5.7,5.3
		c-2.4,1.7-3.5,1.2-4.2-1.7c-1.2-5.4,0.2-10.5,2-15.6c0.6-1.8,1.5-3.5,2.5-5.7c0.9,2.9,1.7,5.2,0.3,7.9c-1.5,3.1-2.7,6.4-3.2,9.8
		c-0.2,0.2-0.3,0.5,0,0.7C569,409.5,569.2,409.3,569.4,409.2z M590.4,395.2c-5,2.3-7.2,7.1-10.2,11.2
		C584.3,403.3,587.4,399.2,590.4,395.2z"/>
	<path class="st1" d="M416.6,525.9c5.5-1,7.9-3.4,8.1-7.8c0.1-1.1,0.1-2.3-1.2-2.7c-3.5-1.1-3.8-4.1-4.7-7.4c3.2,1.4,5.7,3.6,9,3.4
		c3.6-0.3,4.9-1.7,5.8-6.3c0.7,0.3,0.8,0.9,1.1,1.5c0.3,0.8,0.9,1.3,1.7,1.3c1,0.1,1.2-0.8,1.5-1.5c1.3-3,2.8-5.9,4.9-8.4
		c1.5-1.7,3.2-3.3,5.7-2.3c2.4,0.9,4.1,2.5,3.7,5.4c0.3,0.1,0.5,0.2,0.6,0.1c5.1-2.5,5.4-1.9,2.1-7.1c-1-1.6-1.9-3.4-3-4.9
		c-1.8-2.4-2.3-4.9-1.4-8.1c2.4,4.2,4.8,8.2,7.1,12.3c2.3,4,4.9,4.4,8.4,1.4c0.6-0.6,0.5-0.9,0.1-1.4c-2.5-3.3-4-7.4-7.5-10.1
		c-1.7-1.3-1.2-3.5-1.3-5.4c0.5-0.4,0.6,0.1,0.9,0.2c3.4,1.4,6.2,2.5,6.5,7.4c0.2,3.4,3.7,6.3,4.9,10c0.8,2.5,0.4,4.2-2.3,5.2
		c-2.5,1-4.7,3-7.9,0.1c0.8,3.1-0.7,4.1-2.6,4.9c-5.2,2.3-10.3,4.8-15.6,6.9c-2,0.8-3.3,1.8-3.2,4.1c-1-0.4-0.7-1.1-0.7-1.7
		c0-1.2-1-1.4-1.7-1.7c-1.1-0.5-0.6,0.8-1,1.2c-1.6,1.8-3.7,2.4-5.9,2.6c-1.1,0.1-1.6,0.4-1.2,1.6c0.2,0.7,0.2,1.5,0.2,2.3
		c0.1,4.7-1.5,6.3-6.2,6.1C420,526.7,418.3,527,416.6,525.9z M440.7,506.5c2.5-1.2,5-2.3,7.4-3.6c0.5-0.3,1.5-0.5,1.4-1.2
		c-0.1-0.9-1.1-0.9-1.8-1.1c-1.2-0.3-2.2,0-3.3,0.6C442.5,502.4,441.4,504.2,440.7,506.5z"/>
	<path class="st1" d="M379.1,519.6c1.3,2.3,1.8,5,3.4,7.2c0.8,1.1,1.6,2.3,3.2,2c1.6-0.3,1.6-1.8,1.7-3c0.4-2.8,0.7-5.6,2.4-7.9
		c1.1-1.6,2.9-2.4,4-0.5c2.8,5,6.7,3.8,10.7,2.3c1-0.4,2-0.8,3-1.2c-0.3-1-0.7-1.8-1.6-2.5c-0.1,2.5-1.6,3.5-3.7,3.5
		c-2.2,0-2.7-1.8-3.1-3.5c-0.4-2.1-0.6-4.2,0.2-6.3c0.9-2.3,2.4-3,4.4-1.5c4.7,3.4,6.9,8.2,7.2,13.9c0.1,1.3-0.8,1.9-1.9,2.2
		c-2.6,0.8-5.2,1.6-7.8,2.3c-2.4,0.6-4.3-0.4-5.8-2.3c-1-1.1-1.9-3.1-3.4-2.6c-1.6,0.5-1.5,2.7-1.8,4.3c-0.3,1.6-0.3,3.3-0.7,4.9
		c-0.3,1.4-0.7,2.9-2.5,3.2c-1.5,0.2-2.6-0.6-3.4-1.7C380.7,528.5,379.4,524.3,379.1,519.6z M401.8,514.9c0.9-0.1,1.9-0.4,2-1.3
		c0.1-0.9-1-1.1-1.7-1.1c-0.8-0.1-1.5,0.5-1.6,1.3C400.3,514.8,401.2,514.8,401.8,514.9z"/>
	<path class="st1" d="M610,360.4c3.7,2,5.5,4.5,6.8,7.5c0.5,1.2,0.5,2.4-0.6,3.1c-2.1,1.3-2.6,3.3-3.8,5.3c-2,3.5-4.3,7-7.5,9.7
		c-1,0.9-1.3,1.4-0.5,2.5c0.7,0.9,1.1,2.1,1.4,3.1c1.4,4.5-0.5,7.6-5.1,8.8c-0.5,0.1-0.9,0.4-1.2-0.1c-0.4-0.7,0.4-0.7,0.6-1
		c1.7-2.4,2.9-4.9,2.2-8c-0.6-2.5-1.2-4.2-4.4-4c-2.7,0.1-3.1-2.9-5-4.7c3.6-0.6,7,0.7,9.7-2.1c2.6-2.7,2.8-5.7,1.5-9.1
		c2,0.5,1.5,2.5,2.7,3.1c4.3-2.6,0.8-6.3,1.1-9.5c1.2,0.4,1,1.4,1.5,1.9c0.4,0.6,0.5,1.6,1.5,1.4c0.8-0.2,1.6-0.8,2-1.5
		c0.5-0.9-0.4-1.1-0.9-1.5C611.1,364.1,611.2,362.5,610,360.4z"/>
	<path class="st1" d="M537.5,438.4c-0.5-1.7-1.5-3.3-2.8-4.3c-2.3-1.8-2.5-4.1-2.6-6.7c1,0.6,1.9,1.5,2.8,1.6
		c3.2,0.3,3.2,2.4,3.6,4.8c0.6,3.3,1.4,6.6,4.2,9.1c4.2,3.7,4.1,4.7,0,8.2c-1.5,1.3-3.1,2.6-4.9,4c-1.2-2.8-3.1-5.3-0.2-8.2
		c0.9-0.9,1.7-3,0.4-3.9c-1.4-0.9-3.3-1.7-5.3-0.4c-4,2.5-8.6,0.5-9.9-4c-0.4-1.5,0.6-1.3,1.5-1.4c4.4-0.5,8.7,0,12.7,2
		c0.2,0.1,0.6,0.3,0.7,0.2C538,438.9,537.8,438.6,537.5,438.4z"/>
	<path class="st1" d="M537.6,423.3c5.3,6,12.4,10.6,14.2,19.2C546.8,436.4,539,432.3,537.6,423.3z"/>
	<path class="st1" d="M415.4,521.4c-2.7-5.1-5.4-10.1-8-15.2c-1.1-2.2-0.6-4.6-0.4-7c3.6,7.1,9.1,13.4,9.2,21.9
		C415.9,521.2,415.7,521.3,415.4,521.4z"/>
	<path class="st1" d="M601.2,361.5c-1.5-0.6-3.6,1.2-3.8-1.5c0-0.7-1-2,0.4-2c0.8,0,2.6-1.7,2.7,0.9c0,0.2,0.1,0.5,0.1,0.5
		c0.5,0.2,0.4-0.6,0.6-0.6c1.2-0.2,2.7-1.5,3.5,0c0.7,1.4,0.8,3.3-1.7,3.5c-0.8,0.1-1.1,0.7-0.9,1.5c0.3,1.5-0.1,2.3-1.8,2.5
		c-1.6,0.1-1.5-0.8-1.9-1.8c-0.7-1.9,0.6-2,1.8-2.3C600.6,362,600.8,361.8,601.2,361.5z"/>
	<path class="st1" d="M382.2,510.9c-0.5-0.2-0.9,0.1-1,0.6c-0.7,2-2.2,1.5-3.5,1c-1-0.3-2.3-0.7-1.2-2.1c0.6-0.9,0.4-3.1,2.6-1.8
		c1.1,0.6,2.3,1.1,3.1-0.6c1.3-2.7,3-0.4,4.4-0.1c1.3,0.2,0.1,1.6-0.1,2.4c-0.4,1.9-1.7,1.7-3.1,1.1
		C383,511.1,382.6,511,382.2,510.9z"/>
	<path class="st1" d="M545.5,419.3c-0.4-2,0-3,1.9-2.8c1.2,0.1,1.9-0.6,1.8-1.7c-0.2-2.8,2-1.9,3.4-2.3c1.3-0.4,1,0.8,1.1,1.4
		c0.2,1.7,0.2,3.3-2.1,3.5c-1,0.1-2.1,0.1-1.9,1.8c0.2,2.3-1.7,1.9-3,2C544.6,421.4,545.8,419.7,545.5,419.3z"/>
	<path class="st1" d="M399.4,504.5c-1.4,0.9-0.8,3.1-2.6,3c-1.2-0.1-2.9-0.6-2.8-2.2c0.1-1,0.4-2.8,1.9-2.7
		C397,502.7,398.1,503.8,399.4,504.5z"/>
	<path class="st1" d="M523.9,430.5c-0.5,1.8-0.8,3.1-1.2,4.4c0,0.1-0.1,0.7-0.5,0.1c-0.7-0.9-2.5-0.5-2.7-2.2
		c-0.1-0.5,0.4-0.8,0.5-0.8C521.7,433.1,522.2,431.1,523.9,430.5z"/>
	<path class="st1" d="M551.1,428.2c-0.4-0.2-0.5-0.5-0.3-0.9c0.2,0.2,0.5,0.3,0.7,0.5C551.4,428,551.3,428.1,551.1,428.2z"/>
	<path class="st2" d="M590.4,395.2c-3.1,4.1-6.1,8.1-10.2,11.2C583.3,402.3,585.4,397.4,590.4,395.2z"/>
	<path class="st2" d="M569.4,409.2c-0.1,0.1-0.4,0.3-0.4,0.2c-0.3-0.2-0.2-0.4,0-0.7C569.1,408.9,569.2,409,569.4,409.2z"/>
	<path class="st2" d="M440.7,506.5c0.7-2.3,1.8-4.1,3.8-5.3c1-0.6,2.1-0.9,3.3-0.6c0.7,0.2,1.7,0.2,1.8,1.1c0.1,0.8-0.9,1-1.4,1.2
		C445.7,504.2,443.2,505.3,440.7,506.5z"/>
	<path class="st2" d="M401.8,514.9c-0.6-0.2-1.5-0.1-1.3-1.1c0.1-0.8,0.7-1.4,1.6-1.3c0.7,0,1.8,0.2,1.7,1.1
		C403.7,514.6,402.7,514.8,401.8,514.9z"/>
	<path class="st2" d="M537.5,438.4c0.3,0.2,0.5,0.5,0.2,0.8c-0.1,0.1-0.4-0.1-0.7-0.2C537.2,438.8,537.3,438.6,537.5,438.4z"/>
</g>
</svg>
