<?xml version="1.0" encoding="UTF-8"?>
<svg xmlns="http://www.w3.org/2000/svg" xmlns:xlink="http://www.w3.org/1999/xlink" width="963.78pt" height="1417.32pt" viewBox="0 0 963.78 1417.32" version="1.1">
<g id="surface1">
<path style="fill:none;stroke-width:1;stroke-linecap:butt;stroke-linejoin:miter;stroke:rgb(18.03894%,19.219971%,57.249451%);stroke-opacity:1;stroke-miterlimit:10;" d="M 25.785156 386.835625 L 944.105469 386.835625 L 944.105469 951.82 L 25.785156 951.82 Z M 25.785156 386.835625 " transform="matrix(1,0,0,-1,0,1417.32)"/>
<path style=" stroke:none;fill-rule:nonzero;fill:rgb(18.03894%,19.219971%,57.249451%);fill-opacity:1;" d="M 174.257812 884.847656 C 175.402344 885.117188 176.796875 885.195312 178.707031 885.195312 C 185.769531 885.195312 190.132812 881.730469 190.132812 875.929688 C 190.132812 870.691406 186.382812 867.582031 179.753906 867.582031 C 177.058594 867.582031 175.226562 867.824219 174.257812 868.09375 Z M 161.101562 859.070312 C 165.195312 858.386719 170.949219 857.878906 179.0625 857.878906 C 187.261719 857.878906 193.09375 859.410156 197.023438 862.457031 C 200.769531 865.296875 203.300781 870.023438 203.300781 875.582031 C 203.300781 881.128906 201.382812 885.867188 197.886719 889.058594 C 193.355469 893.203125 186.644531 895.054688 178.796875 895.054688 C 177.058594 895.054688 175.484375 894.976562 174.257812 894.808594 L 174.257812 915.109375 L 161.101562 915.109375 Z M 161.101562 859.070312 "/>
<path style=" stroke:none;fill-rule:nonzero;fill:rgb(18.03894%,19.219971%,57.249451%);fill-opacity:1;" d="M 224.949219 883.503906 L 230.1875 883.503906 C 236.8125 883.503906 240.738281 880.304688 240.738281 875.320312 C 240.738281 870.101562 237.082031 867.496094 230.972656 867.417969 C 227.746094 867.417969 225.917969 867.664062 224.949219 867.824219 Z M 211.789062 859.070312 C 216.0625 858.386719 222.421875 857.882812 229.492188 857.882812 C 238.203125 857.882812 244.316406 859.148438 248.496094 862.355469 C 251.980469 865.054688 253.902344 869 253.902344 874.238281 C 253.902344 881.488281 248.585938 886.457031 243.53125 888.222656 L 243.53125 888.472656 C 247.621094 890.074219 249.898438 893.871094 251.378906 899.097656 C 253.207031 905.523438 255.035156 912.90625 256.179688 915.109375 L 242.574219 915.109375 C 241.605469 913.519531 240.214844 908.871094 238.464844 901.878906 C 236.890625 894.808594 234.367188 892.859375 228.972656 892.769531 L 224.949219 892.769531 L 224.949219 915.109375 L 211.789062 915.109375 Z M 211.789062 859.070312 "/>
<path style=" stroke:none;fill-rule:nonzero;fill:rgb(18.03894%,19.219971%,57.249451%);fill-opacity:1;" d="M 298.488281 891.09375 L 276.867188 891.09375 L 276.867188 904.589844 L 301.015625 904.589844 L 301.015625 915.109375 L 263.523438 915.109375 L 263.523438 858.296875 L 299.789062 858.296875 L 299.789062 868.839844 L 276.867188 868.839844 L 276.867188 880.628906 L 298.488281 880.628906 Z M 298.488281 891.09375 "/>
<path style=" stroke:none;fill-rule:nonzero;fill:rgb(18.03894%,19.219971%,57.249451%);fill-opacity:1;" d="M 310.546875 901.878906 C 314.121094 903.648438 319.613281 905.414062 325.285156 905.414062 C 331.382812 905.414062 334.609375 902.976562 334.609375 899.265625 C 334.609375 895.726562 331.828125 893.707031 324.757812 891.269531 C 315.003906 887.984375 308.632812 882.746094 308.632812 874.492188 C 308.632812 864.792969 317 857.378906 330.863281 857.378906 C 337.492188 857.378906 342.375 858.722656 345.855469 860.242188 L 342.898438 870.609375 C 340.546875 869.515625 336.351562 867.921875 330.601562 867.921875 C 324.851562 867.921875 322.050781 870.453125 322.050781 873.40625 C 322.050781 877.035156 325.378906 878.613281 332.960938 881.382812 C 343.332031 885.117188 348.214844 890.320312 348.214844 898.324219 C 348.214844 907.851562 340.636719 915.941406 324.507812 915.941406 C 317.785156 915.941406 311.164062 914.277344 307.847656 912.496094 Z M 310.546875 901.878906 "/>
<path style=" stroke:none;fill-rule:nonzero;fill:rgb(18.03894%,19.219971%,57.249451%);fill-opacity:1;" d="M 357.660156 901.878906 C 361.242188 903.648438 366.722656 905.414062 372.402344 905.414062 C 378.488281 905.414062 381.722656 902.976562 381.722656 899.265625 C 381.722656 895.726562 378.9375 893.707031 371.875 891.269531 C 362.109375 887.984375 355.742188 882.746094 355.742188 874.492188 C 355.742188 864.792969 364.113281 857.378906 377.980469 857.378906 C 384.605469 857.378906 389.480469 858.722656 392.96875 860.242188 L 390.011719 870.609375 C 387.65625 869.515625 383.460938 867.921875 377.707031 867.921875 C 371.957031 867.921875 369.164062 870.453125 369.164062 873.40625 C 369.164062 877.035156 372.488281 878.613281 380.070312 881.382812 C 390.441406 885.117188 395.324219 890.320312 395.324219 898.324219 C 395.324219 907.851562 387.742188 915.941406 371.617188 915.941406 C 364.898438 915.941406 358.273438 914.277344 354.960938 912.496094 Z M 357.660156 901.878906 "/>
<path style=" stroke:none;fill-rule:evenodd;fill:rgb(18.03894%,19.219971%,57.249451%);fill-opacity:1;" d="M 870.425781 615.054688 C 870.425781 612.632812 868.667969 611.554688 866.097656 611.554688 C 864.933594 611.554688 864.113281 611.675781 863.699219 611.785156 L 863.699219 618.628906 L 866.1875 618.628906 C 868.785156 618.628906 870.425781 617.207031 870.425781 615.054688 M 872.105469 623.460938 C 872.71875 626.082031 873.167969 627.910156 873.53125 628.636719 L 871.015625 628.636719 C 870.703125 628.097656 870.292969 626.476562 869.785156 624.136719 C 869.226562 621.546875 868.195312 620.558594 865.984375 620.476562 L 863.699219 620.476562 L 863.699219 628.636719 L 861.265625 628.636719 L 861.265625 610.078125 C 862.488281 609.832031 864.28125 609.660156 865.933594 609.660156 C 868.53125 609.660156 870.234375 610.164062 871.410156 611.226562 C 872.332031 612.035156 872.882812 613.324219 872.882812 614.800781 C 872.882812 617.257812 871.292969 618.914062 869.339844 619.585938 L 869.339844 619.660156 C 870.765625 620.167969 871.628906 621.511719 872.105469 623.460938 M 878.789062 612.070312 C 877.535156 609.816406 875.78125 608.082031 873.535156 606.871094 C 871.292969 605.664062 868.996094 605.054688 866.648438 605.054688 C 864.28125 605.054688 861.984375 605.664062 859.734375 606.871094 C 857.503906 608.082031 855.742188 609.816406 854.488281 612.070312 C 853.226562 614.324219 852.585938 616.671875 852.585938 619.109375 C 852.585938 621.546875 853.207031 623.863281 854.449219 626.082031 C 855.691406 628.308594 857.429688 630.039062 859.660156 631.285156 C 861.894531 632.523438 864.214844 633.148438 866.648438 633.148438 C 869.070312 633.148438 871.398438 632.523438 873.628906 631.285156 C 875.855469 630.039062 877.585938 628.308594 878.824219 626.082031 C 880.0625 623.863281 880.675781 621.546875 880.675781 619.109375 C 880.675781 616.671875 880.046875 614.324219 878.789062 612.070312 M 881.246094 627.480469 C 879.765625 630.164062 877.691406 632.242188 875.023438 633.71875 C 872.355469 635.199219 869.5625 635.929688 866.648438 635.929688 C 863.730469 635.929688 860.9375 635.199219 858.265625 633.71875 C 855.589844 632.242188 853.515625 630.164062 852.03125 627.480469 C 850.535156 624.804688 849.792969 622.015625 849.792969 619.109375 C 849.792969 616.183594 850.550781 613.367188 852.0625 610.664062 C 853.566406 607.96875 855.664062 605.890625 858.367188 604.441406 C 861.054688 602.984375 863.816406 602.261719 866.648438 602.261719 C 869.472656 602.261719 872.226562 602.984375 874.921875 604.441406 C 877.617188 605.890625 879.707031 607.96875 881.214844 610.664062 C 882.722656 613.367188 883.472656 616.183594 883.472656 619.109375 C 883.472656 622.015625 882.730469 624.804688 881.246094 627.480469 "/>
<path style=" stroke:none;fill-rule:nonzero;fill:rgb(96.469116%,52.938843%,7.058716%);fill-opacity:1;" d="M 627.378906 855.675781 L 625.878906 862.964844 L 826.085938 862.964844 L 827.570312 855.675781 Z M 627.378906 855.675781 "/>
<path style=" stroke:none;fill-rule:nonzero;fill:rgb(96.469116%,52.938843%,7.058716%);fill-opacity:1;" d="M 623.195312 875.894531 L 823.441406 875.894531 L 824.925781 868.609375 L 624.703125 868.609375 Z M 623.195312 875.894531 "/>
<path style=" stroke:none;fill-rule:nonzero;fill:rgb(96.469116%,52.938843%,7.058716%);fill-opacity:1;" d="M 620.53125 888.84375 L 820.796875 888.84375 L 822.289062 881.550781 L 622.039062 881.550781 Z M 620.53125 888.84375 "/>
<path style=" stroke:none;fill-rule:nonzero;fill:rgb(18.03894%,19.219971%,57.249451%);fill-opacity:1;" d="M 550.097656 802.714844 L 550.921875 798.769531 L 564.640625 732.976562 L 523.207031 732.976562 C 516.421875 732.976562 510.488281 737.792969 509.113281 744.441406 L 481.796875 871.050781 C 481.28125 873.328125 479.746094 880.078125 474.605469 880.882812 C 473.664062 881.101562 471.75 881.28125 468.972656 881.386719 C 466.363281 881.488281 463.074219 881.550781 459.101562 881.550781 L 457.820312 881.550781 C 450.972656 881.550781 445.007812 886.402344 443.625 893.113281 L 439.160156 914.890625 L 468.691406 914.890625 C 474.785156 914.890625 480.324219 914.757812 485.140625 914.503906 C 489.949219 914.246094 494.261719 913.863281 497.941406 913.367188 C 503.230469 912.503906 507.996094 911.238281 512.007812 909.621094 C 515.816406 908.101562 519.101562 906.011719 521.773438 903.429688 C 524.476562 900.828125 526.773438 897.609375 528.605469 893.894531 C 530.472656 890.121094 531.972656 885.46875 533.058594 880.085938 L 542.570312 838.976562 L 543.117188 836.363281 L 590.785156 836.363281 C 597.765625 836.363281 603.511719 836.3125 608.03125 836.207031 C 612.339844 836.117188 615.535156 835.871094 617.539062 835.492188 C 629.246094 834.027344 636.988281 830.765625 640.734375 825.769531 L 644.320312 820.988281 L 646.429688 826.574219 C 648.871094 833.070312 658.191406 836.363281 674.132812 836.363281 L 699.957031 836.363281 C 712.398438 836.363281 722.683594 835.742188 730.542969 834.542969 C 735.796875 833.667969 740.433594 832.390625 744.292969 830.75 C 748.019531 829.160156 751.242188 827.054688 753.871094 824.464844 C 756.515625 821.859375 758.730469 818.648438 760.464844 814.921875 C 762.257812 811.03125 763.710938 806.429688 764.785156 801.246094 L 794.71875 660.546875 L 754.019531 660.546875 C 746.992188 660.546875 740.84375 665.542969 739.40625 672.421875 L 713.679688 792.519531 C 712.148438 799.847656 707.507812 802.085938 703.886719 802.675781 L 703.621094 802.714844 L 703.359375 802.714844 L 695.171875 803.039062 L 684.894531 803.027344 L 664.605469 803.027344 L 664.214844 802.917969 C 658.722656 801.546875 656.324219 797.273438 657.632812 791.160156 L 669.136719 735.710938 L 628.160156 735.710938 C 621.113281 735.710938 614.953125 740.726562 613.519531 747.628906 L 604.359375 792.214844 C 603.152344 797.695312 599.679688 801.167969 594.300781 802.289062 C 593.617188 802.496094 592.664062 802.578125 590.734375 802.636719 C 589.070312 802.691406 587.179688 802.742188 585.0625 802.789062 L 578.640625 802.949219 L 576.957031 802.984375 L 549.996094 803.378906 L 550.042969 803.039062 Z M 550.097656 802.714844 "/>
<path style=" stroke:none;fill-rule:nonzero;fill:rgb(18.03894%,19.219971%,57.249451%);fill-opacity:1;" d="M 828.105469 660.546875 C 820.742188 660.546875 814.300781 665.78125 812.800781 672.992188 L 778.113281 836.363281 L 819.171875 836.363281 C 826.171875 836.363281 832.296875 831.378906 833.730469 824.527344 L 868.539062 660.546875 Z M 828.105469 660.546875 "/>
<path style=" stroke:none;fill-rule:nonzero;fill:rgb(18.03894%,19.219971%,57.249451%);fill-opacity:1;" d="M 431.648438 675.933594 L 384.664062 675.933594 C 383.242188 675.933594 382 676.941406 381.710938 678.339844 L 375.382812 708.117188 C 375.128906 709.335938 375.65625 710.21875 375.996094 710.628906 C 376.570312 711.347656 377.421875 711.742188 378.335938 711.742188 L 425.316406 711.742188 C 426.738281 711.742188 427.984375 710.726562 428.273438 709.347656 L 434.605469 679.570312 C 434.855469 678.339844 434.328125 677.472656 433.988281 677.046875 C 433.410156 676.34375 432.558594 675.933594 431.648438 675.933594 "/>
<path style=" stroke:none;fill-rule:nonzero;fill:rgb(18.03894%,19.219971%,57.249451%);fill-opacity:1;" d="M 361.277344 675.933594 L 314.296875 675.933594 C 312.871094 675.933594 311.628906 676.941406 311.339844 678.339844 L 305.011719 708.117188 C 304.757812 709.335938 305.28125 710.21875 305.625 710.628906 C 306.199219 711.347656 307.054688 711.742188 307.964844 711.742188 L 354.949219 711.742188 C 356.367188 711.742188 357.613281 710.726562 357.90625 709.347656 L 364.234375 679.570312 C 364.484375 678.339844 363.957031 677.472656 363.617188 677.046875 C 363.042969 676.34375 362.191406 675.933594 361.277344 675.933594 "/>
<path style=" stroke:none;fill-rule:nonzero;fill:rgb(18.03894%,19.219971%,57.249451%);fill-opacity:1;" d="M 608.511719 854.355469 L 561.523438 854.355469 C 560.105469 854.355469 558.867188 855.363281 558.574219 856.761719 L 552.242188 886.542969 C 551.988281 887.761719 552.523438 888.640625 552.859375 889.054688 C 553.429688 889.769531 554.28125 890.167969 555.199219 890.167969 L 602.183594 890.167969 C 603.601562 890.167969 604.84375 889.152344 605.136719 887.769531 L 611.46875 857.992188 C 611.722656 856.761719 611.191406 855.890625 610.847656 855.46875 C 610.273438 854.765625 609.421875 854.355469 608.511719 854.355469 "/>
<path style=" stroke:none;fill-rule:nonzero;fill:rgb(18.03894%,19.219971%,57.249451%);fill-opacity:1;" d="M 464.492188 686.113281 C 457.621094 686.113281 451.613281 690.996094 450.21875 697.726562 L 421.367188 836.363281 L 462.710938 836.363281 C 469.546875 836.363281 475.523438 831.492188 476.921875 824.796875 L 505.78125 686.113281 Z M 464.492188 686.113281 "/>
<path style=" stroke:none;fill-rule:nonzero;fill:rgb(92.939758%,10.978699%,14.118958%);fill-opacity:1;" d="M 238.058594 677.039062 L 149.246094 807.3125 L 75.824219 915.011719 L 102.730469 915.011719 L 147.496094 836.363281 L 191.507812 759.035156 L 196.289062 750.636719 L 238.8125 675.9375 Z M 238.058594 677.039062 "/>
<path style=" stroke:none;fill-rule:nonzero;fill:rgb(18.03894%,19.219971%,57.249451%);fill-opacity:1;" d="M 351.273438 766.417969 L 336.195312 751.3125 L 349.140625 738.351562 L 379.296875 738.351562 Z M 349.140625 817.839844 L 336.65625 805.324219 L 351.738281 790.230469 L 379.296875 817.839844 Z M 300.722656 810.535156 L 319.550781 791.664062 L 290.417969 791.632812 L 290.4375 765.433594 L 319.46875 765.433594 L 300.722656 746.582031 L 322.105469 746.582031 L 354.015625 778.550781 L 322.105469 810.535156 Z M 319.171875 721.679688 C 313.460938 721.679688 308.160156 721.808594 303.421875 722.070312 C 298.773438 722.324219 294.65625 722.695312 291.1875 723.1875 C 285.535156 723.898438 280.636719 725.027344 276.574219 726.570312 C 272.65625 728.058594 269.234375 730.132812 266.421875 732.722656 C 263.585938 735.320312 261.203125 738.5625 259.328125 742.351562 C 257.40625 746.246094 255.886719 750.949219 254.8125 756.316406 L 245.367188 800.128906 L 244.8125 802.714844 L 191.804688 802.714844 L 191.527344 802.660156 C 188.390625 802.121094 186.734375 800.539062 185.894531 799.308594 C 184.5 797.257812 184.152344 794.527344 184.855469 791.175781 L 189.761719 767.480469 L 150.554688 836.363281 L 345.175781 836.363281 C 351.359375 836.363281 356.859375 836.285156 361.535156 836.117188 C 366.175781 835.980469 370.125 835.65625 373.277344 835.15625 C 378.867188 834.273438 383.785156 833.019531 387.890625 831.40625 C 391.832031 829.859375 395.289062 827.738281 398.179688 825.140625 C 401.046875 822.558594 403.425781 819.355469 405.242188 815.628906 C 407.121094 811.757812 408.675781 807.015625 409.855469 801.523438 L 426.796875 721.679688 Z M 319.171875 721.679688 "/>
<path style=" stroke:none;fill-rule:nonzero;fill:rgb(18.03894%,19.219971%,57.249451%);fill-opacity:1;" d="M 267.632812 949.527344 C 268.609375 949.527344 269.421875 949.855469 270.085938 950.5 C 270.753906 951.15625 271.078125 951.984375 271.078125 953.015625 C 271.078125 953.476562 270.992188 953.917969 270.820312 954.332031 C 270.648438 954.746094 270.402344 955.121094 270.085938 955.433594 C 269.777344 955.742188 269.410156 955.992188 268.988281 956.175781 C 268.570312 956.359375 268.121094 956.460938 267.632812 956.460938 C 267.144531 956.460938 266.691406 956.359375 266.261719 956.175781 C 265.824219 955.992188 265.457031 955.742188 265.144531 955.433594 C 264.832031 955.121094 264.589844 954.746094 264.414062 954.332031 C 264.238281 953.917969 264.152344 953.476562 264.152344 953.015625 C 264.152344 951.984375 264.480469 951.15625 265.144531 950.5 C 265.808594 949.855469 266.632812 949.527344 267.632812 949.527344 M 258.753906 949.527344 C 259.726562 949.527344 260.546875 949.855469 261.210938 950.5 C 261.875 951.15625 262.203125 951.984375 262.203125 953.015625 C 262.203125 953.476562 262.121094 953.917969 261.9375 954.332031 C 261.765625 954.746094 261.523438 955.121094 261.210938 955.433594 C 260.894531 955.742188 260.53125 955.992188 260.113281 956.175781 C 259.699219 956.359375 259.242188 956.460938 258.753906 956.460938 C 258.269531 956.460938 257.808594 956.359375 257.378906 956.175781 C 256.945312 955.992188 256.578125 955.742188 256.265625 955.433594 C 255.953125 955.121094 255.707031 954.746094 255.535156 954.332031 C 255.363281 953.917969 255.269531 953.476562 255.269531 953.015625 C 255.269531 951.984375 255.601562 951.15625 256.265625 950.5 C 256.925781 949.855469 257.757812 949.527344 258.753906 949.527344 M 274.144531 981.492188 L 274.144531 968.574219 C 271.339844 968.738281 268.855469 969.0625 266.695312 969.550781 C 264.53125 970.035156 262.660156 970.640625 261.066406 971.339844 C 259.476562 972.050781 258.128906 972.84375 257.015625 973.730469 C 255.902344 974.613281 254.984375 975.503906 254.257812 976.410156 C 253.542969 977.308594 252.980469 978.207031 252.574219 979.089844 C 252.167969 979.972656 251.871094 980.773438 251.683594 981.492188 Z M 274.144531 959.070312 L 280.515625 959.070312 L 280.515625 981.492188 L 285.386719 981.492188 L 285.386719 987.863281 L 245.105469 987.863281 L 244.96875 984.800781 L 244.96875 983.898438 C 244.96875 983.273438 245.050781 982.445312 245.226562 981.4375 C 245.402344 980.429688 245.710938 979.28125 246.148438 977.996094 C 246.585938 976.707031 247.246094 975.382812 248.121094 974.023438 C 248.988281 972.667969 250.113281 971.324219 251.511719 969.980469 C 252.902344 968.648438 254.640625 967.4375 256.722656 966.324219 C 258.789062 965.222656 261.265625 964.304688 264.136719 963.558594 C 267.003906 962.816406 270.339844 962.355469 274.144531 962.167969 Z M 274.144531 959.070312 "/>
<path style=" stroke:none;fill-rule:nonzero;fill:rgb(18.03894%,19.219971%,57.249451%);fill-opacity:1;" d="M 309.421875 981.320312 C 311.070312 980.742188 312.617188 980.035156 314.0625 979.214844 C 315.519531 978.390625 316.789062 977.4375 317.882812 976.355469 C 318.96875 975.28125 319.828125 974.070312 320.453125 972.757812 C 321.082031 971.429688 321.410156 969.976562 321.433594 968.398438 C 321.199219 968.074219 320.695312 967.777344 319.917969 967.5 C 319.136719 967.21875 318.183594 966.980469 317.042969 966.78125 C 315.90625 966.582031 314.648438 966.433594 313.265625 966.3125 C 311.890625 966.199219 310.488281 966.132812 309.070312 966.132812 C 306.816406 966.132812 304.605469 966.230469 302.421875 966.417969 C 300.238281 966.601562 298.257812 966.863281 296.464844 967.1875 C 297.582031 968.113281 298.78125 969.144531 300.070312 970.285156 C 301.359375 971.421875 302.601562 972.597656 303.792969 973.832031 C 304.992188 975.0625 306.089844 976.316406 307.082031 977.59375 C 308.082031 978.871094 308.867188 980.113281 309.421875 981.320312 M 284.800781 987.863281 L 284.800781 981.492188 L 302.421875 981.492188 C 301.886719 980.820312 301.257812 980.105469 300.542969 979.351562 C 299.824219 978.59375 299.050781 977.835938 298.21875 977.070312 C 297.40625 976.300781 296.550781 975.550781 295.679688 974.796875 C 294.816406 974.03125 293.972656 973.328125 293.15625 972.667969 C 292.34375 972.007812 291.589844 971.398438 290.878906 970.84375 C 290.171875 970.285156 289.574219 969.8125 289.082031 969.441406 L 289.082031 962.65625 C 290.058594 962.261719 291.285156 961.886719 292.773438 961.542969 C 294.253906 961.191406 295.890625 960.882812 297.667969 960.621094 C 299.445312 960.355469 301.3125 960.136719 303.253906 959.992188 C 305.210938 959.839844 307.140625 959.765625 309.070312 959.765625 C 311.527344 959.765625 313.890625 959.902344 316.160156 960.1875 C 318.421875 960.460938 320.417969 960.9375 322.148438 961.613281 C 323.878906 962.289062 325.257812 963.171875 326.269531 964.277344 C 327.292969 965.378906 327.800781 966.738281 327.800781 968.363281 C 327.800781 971.085938 327.257812 973.53125 326.171875 975.714844 C 325.074219 977.902344 323.59375 979.820312 321.714844 981.492188 L 331.011719 981.492188 L 331.011719 987.863281 Z M 284.800781 987.863281 "/>
<path style=" stroke:none;fill-rule:nonzero;fill:rgb(18.03894%,19.219971%,57.249451%);fill-opacity:1;" d="M 343.296875 992.53125 C 343.785156 992.53125 344.242188 992.625 344.65625 992.796875 C 345.070312 992.96875 345.4375 993.210938 345.75 993.523438 C 346.0625 993.835938 346.308594 994.207031 346.480469 994.636719 C 346.652344 995.066406 346.742188 995.527344 346.742188 996.011719 C 346.742188 996.476562 346.652344 996.917969 346.480469 997.332031 C 346.308594 997.757812 346.0625 998.117188 345.75 998.4375 C 345.4375 998.746094 345.070312 998.992188 344.65625 999.1875 C 344.242188 999.371094 343.785156 999.460938 343.296875 999.460938 C 342.8125 999.460938 342.351562 999.371094 341.921875 999.1875 C 341.492188 998.992188 341.121094 998.746094 340.808594 998.4375 C 340.492188 998.117188 340.25 997.757812 340.074219 997.332031 C 339.902344 996.917969 339.8125 996.476562 339.8125 996.011719 C 339.8125 995.011719 340.152344 994.183594 340.824219 993.523438 C 341.496094 992.863281 342.324219 992.53125 343.296875 992.53125 M 334.414062 992.53125 C 334.902344 992.53125 335.355469 992.625 335.773438 992.796875 C 336.195312 992.96875 336.5625 993.210938 336.871094 993.523438 C 337.1875 993.835938 337.433594 994.207031 337.605469 994.636719 C 337.777344 995.066406 337.863281 995.527344 337.863281 996.011719 C 337.863281 996.476562 337.777344 996.917969 337.605469 997.332031 C 337.433594 997.757812 337.1875 998.117188 336.871094 998.4375 C 336.5625 998.746094 336.195312 998.992188 335.773438 999.1875 C 335.355469 999.371094 334.902344 999.460938 334.414062 999.460938 C 333.929688 999.460938 333.46875 999.371094 333.039062 999.1875 C 332.609375 998.992188 332.238281 998.746094 331.921875 998.4375 C 331.617188 998.117188 331.371094 997.757812 331.195312 997.332031 C 331.023438 996.917969 330.933594 996.476562 330.933594 996.011719 C 330.933594 995.011719 331.273438 994.183594 331.945312 993.523438 C 332.617188 992.863281 333.445312 992.53125 334.414062 992.53125 M 330.34375 981.492188 L 341.828125 981.492188 L 341.828125 962.375 L 348.207031 962.375 L 348.207031 984.699219 C 348.207031 985.574219 347.898438 986.320312 347.28125 986.941406 C 346.667969 987.554688 345.917969 987.863281 345.039062 987.863281 L 330.34375 987.863281 Z M 330.34375 981.492188 "/>
<path style=" stroke:none;fill-rule:nonzero;fill:rgb(18.03894%,19.219971%,57.249451%);fill-opacity:1;" d="M 351.445312 993.226562 C 352.394531 993.527344 353.296875 993.75 354.148438 993.90625 C 354.992188 994.058594 355.816406 994.132812 356.632812 994.132812 C 358.351562 994.132812 359.910156 993.855469 361.300781 993.300781 C 362.699219 992.742188 363.945312 991.945312 365.058594 990.890625 C 366.125 989.917969 367.0625 988.765625 367.863281 987.425781 C 368.664062 986.097656 369.3125 984.628906 369.800781 983.03125 C 370.214844 981.628906 370.5 980.222656 370.667969 978.796875 C 370.828125 977.363281 370.910156 975.882812 370.910156 974.359375 L 370.875 963.527344 L 377.175781 963.527344 L 377.246094 974.113281 C 377.246094 975.386719 377.207031 976.636719 377.121094 977.851562 C 377.050781 979.074219 376.898438 980.289062 376.691406 981.492188 L 381.84375 981.492188 L 381.84375 987.863281 L 374.742188 987.863281 C 374.089844 989.375 373.316406 990.769531 372.410156 992.0625 C 371.5 993.351562 370.492188 994.527344 369.375 995.59375 C 367.699219 997.105469 365.828125 998.296875 363.738281 999.1875 C 361.644531 1000.058594 359.339844 1000.503906 356.8125 1000.503906 C 355.671875 1000.503906 354.5 1000.402344 353.289062 1000.210938 C 352.085938 1000.011719 350.855469 999.714844 349.597656 999.320312 Z M 351.445312 993.226562 "/>
<path style=" stroke:none;fill-rule:nonzero;fill:rgb(18.03894%,19.219971%,57.249451%);fill-opacity:1;" d="M 381.109375 981.492188 L 388.144531 981.492188 L 388.144531 962.375 L 394.480469 962.375 L 394.480469 981.492188 L 405.34375 981.492188 L 405.34375 962.375 L 411.652344 962.375 L 411.652344 981.492188 L 422.515625 981.492188 L 422.515625 962.375 L 428.886719 962.375 L 428.886719 981.492188 L 436.023438 981.492188 L 436.023438 987.863281 L 381.109375 987.863281 Z M 381.109375 981.492188 "/>
<path style=" stroke:none;fill-rule:nonzero;fill:rgb(18.03894%,19.219971%,57.249451%);fill-opacity:1;" d="M 435.398438 981.492188 L 443.753906 981.492188 L 443.753906 946.089844 L 450.128906 946.089844 L 450.128906 984.699219 C 450.128906 985.574219 449.820312 986.320312 449.207031 986.941406 C 448.589844 987.554688 447.84375 987.863281 446.957031 987.863281 L 435.398438 987.863281 Z M 435.398438 981.492188 "/>
<path style=" stroke:none;fill-rule:nonzero;fill:rgb(18.03894%,19.219971%,57.249451%);fill-opacity:1;" d="M 463.949219 987.828125 L 457.570312 987.828125 L 457.570312 946.089844 L 463.949219 946.089844 Z M 463.949219 987.828125 "/>
<path style=" stroke:none;fill-rule:nonzero;fill:rgb(18.03894%,19.219971%,57.249451%);fill-opacity:1;" d="M 518.132812 953.777344 C 519.101562 953.777344 519.921875 954.105469 520.601562 954.769531 C 521.273438 955.433594 521.609375 956.269531 521.609375 957.285156 C 521.609375 957.757812 521.515625 958.195312 521.335938 958.597656 C 521.148438 959.011719 520.894531 959.363281 520.585938 959.679688 C 520.265625 959.992188 519.902344 960.242188 519.484375 960.429688 C 519.066406 960.613281 518.617188 960.707031 518.132812 960.707031 C 517.632812 960.707031 517.191406 960.613281 516.773438 960.429688 C 516.351562 960.242188 515.980469 959.992188 515.667969 959.679688 C 515.359375 959.363281 515.113281 959.011719 514.941406 958.597656 C 514.769531 958.195312 514.675781 957.757812 514.675781 957.285156 C 514.675781 956.269531 515.011719 955.433594 515.667969 954.769531 C 516.335938 954.105469 517.148438 953.777344 518.132812 953.777344 M 509.246094 953.777344 C 510.226562 953.777344 511.046875 954.105469 511.722656 954.769531 C 512.390625 955.433594 512.734375 956.269531 512.734375 957.285156 C 512.734375 957.757812 512.636719 958.195312 512.449219 958.597656 C 512.261719 959.011719 512.015625 959.363281 511.703125 959.679688 C 511.390625 959.992188 511.023438 960.242188 510.605469 960.429688 C 510.1875 960.613281 509.738281 960.707031 509.246094 960.707031 C 508.761719 960.707031 508.304688 960.613281 507.886719 960.429688 C 507.472656 960.242188 507.105469 959.992188 506.796875 959.679688 C 506.484375 959.363281 506.238281 959.011719 506.066406 958.597656 C 505.886719 958.195312 505.804688 957.757812 505.804688 957.285156 C 505.804688 956.269531 506.128906 955.433594 506.796875 954.769531 C 507.453125 954.105469 508.273438 953.777344 509.246094 953.777344 M 540.238281 962.375 L 540.238281 984.699219 C 540.238281 985.574219 539.925781 986.320312 539.289062 986.941406 C 538.679688 987.554688 537.914062 987.863281 537.035156 987.863281 L 500.058594 987.863281 C 497.015625 987.863281 494.515625 987.492188 492.574219 986.734375 C 490.617188 985.980469 489.074219 985.007812 487.9375 983.8125 C 486.804688 982.613281 486.019531 981.289062 485.585938 979.820312 C 485.152344 978.359375 484.945312 976.910156 484.945312 975.46875 C 484.945312 974.5625 485.003906 973.710938 485.113281 972.914062 C 485.230469 972.105469 485.351562 971.382812 485.464844 970.734375 L 491.734375 971.84375 C 491.640625 972.335938 491.546875 972.882812 491.453125 973.5 C 491.359375 974.117188 491.320312 974.761719 491.320312 975.4375 C 491.320312 976.175781 491.402344 976.910156 491.582031 977.644531 C 491.753906 978.378906 492.136719 979.027344 492.746094 979.59375 C 493.34375 980.171875 494.230469 980.625 495.394531 980.992188 C 496.550781 981.351562 498.109375 981.527344 500.058594 981.527344 L 533.867188 981.492188 L 533.867188 962.375 Z M 540.238281 962.375 "/>
<path style=" stroke:none;fill-rule:nonzero;fill:rgb(18.03894%,19.219971%,57.249451%);fill-opacity:1;" d="M 582.09375 945.941406 L 582.058594 969.546875 C 582.058594 972.078125 581.632812 974.449219 580.773438 976.667969 C 579.910156 978.886719 578.746094 980.828125 577.289062 982.484375 C 575.824219 984.148438 574.117188 985.457031 572.171875 986.421875 C 570.214844 987.382812 568.128906 987.863281 565.902344 987.863281 L 546.230469 987.863281 L 546.230469 981.492188 L 565.902344 981.527344 L 566.148438 981.527344 C 565.617188 978.324219 564.886719 975.351562 563.953125 972.59375 C 563.027344 969.847656 561.828125 967.347656 560.367188 965.085938 C 559.5 963.789062 558.546875 962.578125 557.476562 961.453125 C 556.40625 960.324219 555.207031 959.308594 553.863281 958.390625 C 552.539062 957.476562 551.066406 956.660156 549.449219 955.933594 C 547.839844 955.21875 546.070312 954.613281 544.144531 954.128906 L 545.703125 947.929688 C 548.070312 948.53125 550.242188 949.28125 552.214844 950.171875 C 554.191406 951.066406 556.003906 952.089844 557.648438 953.257812 C 559.300781 954.417969 560.785156 955.695312 562.105469 957.105469 C 563.429688 958.511719 564.628906 960.019531 565.691406 961.648438 C 567.296875 964.101562 568.601562 966.761719 569.613281 969.617188 C 570.617188 972.472656 571.449219 975.542969 572.101562 978.816406 C 573.21875 977.699219 574.097656 976.351562 574.746094 974.753906 C 575.402344 973.167969 575.71875 971.429688 575.71875 969.546875 L 575.71875 945.941406 Z M 582.09375 945.941406 "/>
<path style=" stroke:none;fill-rule:nonzero;fill:rgb(18.03894%,19.219971%,57.249451%);fill-opacity:1;" d="M 595.816406 987.828125 L 589.441406 987.828125 L 589.441406 946.089844 L 595.816406 946.089844 Z M 595.816406 987.828125 "/>
<path style=" stroke:none;fill-rule:nonzero;fill:rgb(18.03894%,19.219971%,57.249451%);fill-opacity:1;" d="M 628.746094 981.492188 C 629.070312 980.539062 629.304688 979.570312 629.445312 978.574219 C 629.589844 977.570312 629.648438 976.550781 629.648438 975.503906 C 629.648438 974.019531 629.398438 972.613281 628.90625 971.292969 C 628.40625 969.972656 627.6875 968.8125 626.742188 967.824219 C 625.808594 966.839844 624.652344 966.066406 623.277344 965.5 C 621.910156 964.925781 620.367188 964.644531 618.648438 964.644531 C 617.007812 964.644531 615.527344 964.90625 614.214844 965.441406 C 612.894531 965.976562 611.796875 966.664062 610.890625 967.511719 C 609.980469 968.363281 609.285156 969.320312 608.792969 970.402344 C 608.308594 971.480469 608.070312 972.578125 608.070312 973.6875 C 608.070312 974.574219 608.246094 975.4375 608.605469 976.273438 C 608.96875 977.101562 609.523438 977.863281 610.28125 978.554688 C 611.03125 979.238281 612.007812 979.820312 613.207031 980.292969 C 614.398438 980.769531 615.835938 981.089844 617.507812 981.253906 C 617.925781 981.296875 618.339844 981.335938 618.761719 981.371094 C 619.179688 981.410156 619.613281 981.425781 620.058594 981.4375 C 620.511719 981.453125 621.015625 981.460938 621.558594 981.476562 C 622.097656 981.492188 622.71875 981.492188 623.390625 981.492188 Z M 640.726562 987.863281 L 632.960938 987.863281 C 631.617188 990.347656 629.835938 992.589844 627.636719 994.589844 C 625.566406 996.402344 623.160156 997.828125 620.410156 998.886719 C 617.65625 999.941406 614.578125 1000.476562 611.160156 1000.476562 C 609.820312 1000.476562 608.429688 1000.382812 607.003906 1000.210938 C 605.585938 1000.039062 604.09375 999.746094 602.5625 999.359375 L 604.058594 993.226562 C 606.664062 993.832031 609.019531 994.132812 611.132812 994.132812 C 613.730469 994.132812 616.050781 993.742188 618.097656 992.96875 C 620.136719 992.191406 621.921875 991.140625 623.457031 989.816406 C 623.777344 989.515625 624.101562 989.199219 624.433594 988.878906 C 624.757812 988.546875 625.0625 988.210938 625.332031 987.863281 L 623.390625 987.863281 C 622.460938 987.863281 621.402344 987.84375 620.21875 987.800781 C 619.03125 987.75 617.925781 987.675781 616.875 987.550781 C 614.28125 987.300781 612.023438 986.734375 610.121094 985.867188 C 608.21875 984.992188 606.636719 983.925781 605.390625 982.664062 C 604.136719 981.394531 603.203125 979.992188 602.601562 978.449219 C 601.992188 976.902344 601.695312 975.332031 601.695312 973.730469 C 601.695312 971.84375 602.085938 969.980469 602.859375 968.140625 C 603.636719 966.292969 604.761719 964.648438 606.21875 963.195312 C 607.683594 961.746094 609.460938 960.570312 611.550781 959.660156 C 613.640625 958.757812 616.007812 958.300781 618.648438 958.300781 C 621.292969 958.300781 623.6875 958.765625 625.824219 959.679688 C 627.964844 960.59375 629.78125 961.839844 631.289062 963.410156 C 632.800781 964.96875 633.96875 966.796875 634.785156 968.867188 C 635.613281 970.949219 636.023438 973.144531 636.023438 975.46875 C 636.023438 977.488281 635.792969 979.503906 635.332031 981.492188 L 640.726562 981.492188 Z M 640.726562 987.863281 "/>
<path style=" stroke:none;fill-rule:nonzero;fill:rgb(18.03894%,19.219971%,57.249451%);fill-opacity:1;" d="M 685.191406 981.492188 C 684.734375 979.355469 683.878906 977.527344 682.648438 976.011719 C 681.421875 974.488281 679.945312 973.234375 678.230469 972.253906 C 676.503906 971.261719 674.628906 970.519531 672.570312 970.023438 C 670.511719 969.523438 668.449219 969.203125 666.359375 969.0625 C 664.359375 968.96875 662.355469 969.023438 660.351562 969.226562 C 658.339844 969.417969 656.40625 969.828125 654.546875 970.457031 C 653.503906 970.785156 652.507812 971.164062 651.558594 971.601562 C 650.605469 972.046875 649.710938 972.570312 648.878906 973.171875 L 645.253906 967.914062 C 646.550781 967.03125 647.96875 966.25 649.507812 965.566406 C 651.039062 964.878906 652.605469 964.34375 654.203125 963.945312 C 656.199219 963.414062 658.265625 963.042969 660.40625 962.828125 C 662.539062 962.621094 664.664062 962.589844 666.777344 962.726562 C 668.769531 962.863281 670.75 963.152344 672.691406 963.582031 C 674.644531 964.007812 676.496094 964.589844 678.261719 965.335938 C 680.03125 966.082031 681.679688 966.980469 683.207031 968.035156 C 684.742188 969.09375 686.09375 970.292969 687.269531 971.644531 C 688.4375 972.988281 689.394531 974.480469 690.140625 976.109375 C 690.878906 977.75 691.359375 979.542969 691.566406 981.492188 L 696.472656 981.492188 L 696.472656 987.863281 L 639.929688 987.863281 L 639.929688 981.492188 Z M 685.191406 981.492188 "/>
<path style=" stroke:none;fill-rule:nonzero;fill:rgb(18.03894%,19.219971%,57.249451%);fill-opacity:1;" d="M 695.804688 981.492188 L 703.167969 981.492188 L 703.167969 946.089844 L 709.535156 946.089844 L 709.535156 981.492188 L 716.847656 981.492188 L 716.847656 987.863281 L 695.804688 987.863281 Z M 695.804688 981.492188 "/>
<path style=" stroke:none;fill-rule:nonzero;fill:rgb(18.03894%,19.219971%,57.249451%);fill-opacity:1;" d="M 716.257812 981.492188 L 724.609375 981.492188 L 724.609375 946.089844 L 730.980469 946.089844 L 730.980469 984.699219 C 730.980469 985.574219 730.671875 986.320312 730.054688 986.941406 C 729.445312 987.554688 728.695312 987.863281 727.8125 987.863281 L 716.257812 987.863281 Z M 716.257812 981.492188 "/>
<path style=" stroke:none;fill-rule:nonzero;fill:rgb(18.03894%,19.219971%,57.249451%);fill-opacity:1;" d="M 654.539062 705.746094 L 653.804688 706.136719 L 653.136719 705.636719 C 649.492188 702.90625 647.636719 699.753906 647.636719 696.296875 C 647.636719 692.070312 651.976562 688.910156 655.859375 688.910156 C 661.28125 688.910156 662.425781 692.328125 662.425781 695.195312 C 662.425781 699.308594 659.625 703.058594 654.539062 705.746094 M 654.746094 682.410156 C 647.433594 682.410156 641.695312 688.394531 641.695312 696.015625 C 641.695312 701.289062 643.617188 705.375 647.554688 708.523438 L 648.78125 709.511719 L 647.601562 710.539062 C 643.144531 714.457031 634.460938 716.675781 621.78125 717.160156 L 622.859375 718.789062 C 624.269531 720.910156 625.441406 722.667969 625.988281 723.410156 C 652.328125 721.554688 668.09375 711.332031 668.09375 696.015625 C 668.09375 687.882812 661.191406 682.410156 654.746094 682.410156 "/>
<path style=" stroke:none;fill-rule:nonzero;fill:rgb(96.469116%,52.938843%,7.058716%);fill-opacity:1;" d="M 146.058594 805.847656 L 235.957031 673.6875 C 235.957031 673.6875 288.28125 584.917969 439.019531 595.628906 C 819.117188 630.078125 881.355469 546.3125 881.355469 546.3125 C 881.355469 546.3125 760.21875 609.433594 487.179688 569.265625 C 401.980469 555.394531 347.527344 548.421875 300.878906 564.972656 C 151.515625 617.957031 146.058594 805.847656 146.058594 805.847656 "/>
<path style=" stroke:none;fill-rule:nonzero;fill:rgb(96.469116%,52.938843%,7.058716%);fill-opacity:1;" d="M 439.019531 605.78125 C 322.664062 597.511719 265.113281 646.832031 244.839844 670.527344 C 274.976562 646.476562 341.988281 615.9375 429.761719 622.175781 C 639.667969 635.824219 715.132812 617.191406 785.507812 596.550781 C 720.175781 610.902344 612.707031 621.519531 439.019531 605.78125 "/>
<path style=" stroke:none;fill-rule:nonzero;fill:rgb(96.469116%,52.938843%,7.058716%);fill-opacity:1;" d="M 392.839844 645.507812 C 424.25 645.695312 448.222656 648.9375 472.085938 649.738281 C 619.761719 654.703125 675.070312 637.574219 735.511719 619.863281 C 672.722656 635.050781 588.851562 642.640625 421.539062 631.757812 C 421.539062 631.757812 398.757812 629.945312 367.789062 632.9375 C 328.742188 638.058594 274.753906 653.980469 227.964844 699.484375 C 227.964844 699.484375 296.519531 644.53125 392.839844 645.507812 "/>
<path style=" stroke:none;fill-rule:nonzero;fill:rgb(92.939758%,10.978699%,14.118958%);fill-opacity:1;" d="M 138.351562 914.886719 L 155.601562 914.886719 L 131.3125 870.046875 L 120.789062 888.527344 Z M 138.351562 914.886719 "/>
<path style=" stroke:none;fill-rule:nonzero;fill:rgb(92.939758%,10.978699%,14.118958%);fill-opacity:1;" d="M 94.285156 801.707031 L 89.183594 841.105469 L 105.851562 866.117188 L 118.851562 847.050781 Z M 94.285156 801.707031 "/>
</g>
</svg>
