<?xml version="1.0" encoding="utf-8"?>
<!-- Generator: Adobe Illustrator 24.1.0, SVG Export Plug-In . SVG Version: 6.00 Build 0)  -->
<svg version="1.1" id="Layer_1" xmlns="http://www.w3.org/2000/svg" xmlns:xlink="http://www.w3.org/1999/xlink" x="0px" y="0px"
	 viewBox="0 0 841.9 595.3" style="enable-background:new 0 0 841.9 595.3;" xml:space="preserve">
<style type="text/css">
	.st0{fill:#3F63AC;}
	.st1{fill:#FAB700;}
	.st2{fill:url(#SVGID_1_);}
	.st3{fill:url(#SVGID_2_);}
	.st4{fill:url(#SVGID_3_);}
	.st5{fill:url(#SVGID_4_);}
	.st6{fill:url(#SVGID_5_);}
	.st7{fill:url(#SVGID_6_);}
	.st8{fill:#FFFFFF;}
</style>
<g>
	<path class="st0" d="M283.7,352.8c6.7-2.7,6.9-8.6,7-13.8c0.4-16.7,0.2-33.3,0.2-50c0-2.2,0.1-3.2,2.9-3.9
		c6.6-1.5,13.2-0.6,19.8-0.7c2.3-0.1,3.6,1.4,3.6,4.2c-0.2,7.5,0.3,15-0.2,22.5c-0.3,5,1.7,6.1,6.2,6c14.2-0.2,28.3-0.1,42.5-0.1
		c17,0,34-0.1,51,0.1c4.1,0.1,5.3-1.2,5-5.1c-0.5-8.5,0.6-17-0.5-25.4c-0.2-1.2-0.1-2,1.6-2.4c7.6-1.8,15.2-0.6,22.8-0.9
		c2.3-0.1,2,1.9,1.8,3.3c-0.8,8.6,0,17.3-0.3,26c-0.1,2.5,0.3,3.7,3.3,4c8,0.8,16,0.1,23.9,0.4c1.6,0.1,2.5-1,3-2.2
		c4.6-11.1,14.2-15.1,24.9-16.3c8.1-0.9,16.4-0.9,24.5,2.2c6.4,2.4,11.5,5.9,14.3,12.2c1.4,3.2,3.5,4.3,7,4.2
		c6.5-0.2,13-0.1,19.5-0.1c2.6,0,5.1-0.4,6.1-3.3c3-8.5,10.2-12.3,18-14.1c11.6-2.7,23.3-2.6,34.5,2.7c4.2,2,8.1,5,9.7,9
		c2.1,5.3,5.6,5.7,10.1,5.7c5,0,10-0.3,15,0.1c4.1,0.3,5.4-0.9,5.3-5.2c-0.1-26.3,0.1-52.7,0-79c0-3.7,0.9-4.9,4.7-4.7
		c5.8,0.4,11.7,0.2,17.5,0c2.7-0.1,3.7,0.4,3.7,3.4c-0.1,34.7,0,69.3,0.1,104c0,3.1-0.9,3.9-3.9,3.8c-15.2-0.2-30.3-0.1-45.5-0.1
		c-2.1,0-4.3-0.4-5.5,2.3c-3.6,8.5-10.6,13.3-19.1,15.2c-12,2.8-24.1,2.5-35.4-3.5c-4.3-2.3-7.9-5.2-9.2-10.3
		c-0.7-2.6-2.4-3.9-5.5-3.8c-7.2,0.3-14.3,0.1-21.5,0.1c-2.1,0-3.8,0-4.7,2.5c-4.5,11.2-14.1,15-24.9,16.2
		c-7.6,0.9-15.2,0.5-22.7-1.8c-7.1-2.1-12-6.6-15.4-12.9c-1.5-2.8-3.4-4.2-7-4.2c-50,0.1-100,0.1-150,0c-4,0-5.4,1.1-5,5
		c0.3,2.8-0.3,5.7,0.1,8.5c0.5,3.7-1.3,6-4,7.9c-5.4,3.9-13.8,3.9-19.1-0.1C290.8,358.2,287.5,355.6,283.7,352.8z M517.8,328.2
		c0-1.7,0.3-3.4-0.1-5c-0.9-4.4-4.2-6.3-8.1-7.6c-1.8-0.6-3.3-0.2-4.5,1.2c-4.8,5.4-5,11.7-3,18.1c1.3,4.1,4.8,5.7,9.2,5
		C516,339.1,517.9,335.7,517.8,328.2z M597.1,328c0,7.7,2,11.7,6.7,12c6.4,0.5,8.8-1.4,9.9-8.3c1.5-8.7-1.5-14.7-7-15.4
		c-0.2,0-0.3,0-0.5,0C599.8,315.8,597.1,319.3,597.1,328z"/>
	<path class="st0" d="M532.6,422.8c-6.3,3.5-12.3,7-18.5,10.3c-25.6,13.5-51.9,25.6-79.2,35.5c-23.4,8.5-47.3,15.6-71.6,20.9
		c-19,4.2-38.1,6.8-57.3,8.6c-17.5,1.6-35.1,1.6-52.7-0.4c-17.3-2-34.4-4.8-50.8-10.4c-24.3-8.3-45.5-21.4-60.9-42.1
		c-13.1-17.6-20.6-37.6-20.5-59.9c0-9.5-0.6-19,0.9-28.4c0.4-2.5,0.9-3.2,3.6-3.2c20.7,0.2,41.3,0.1,62,0c3.4,0,3.6,1.6,3.2,4
		c-1.2,8.3-1.2,16.5,0.4,24.7c3.7,19.5,11.1,37.2,25.2,51.8c21.2,22,48,31.8,77.3,37.1c19.8,3.6,39.7,3.6,59.5,2.5
		c30-1.5,59.3-7.5,88.1-16c30.7-9.1,60.3-20.8,88.9-35.3C530.6,422.2,531.3,421.6,532.6,422.8z"/>
	<path class="st0" d="M745.8,139c-5.1-8-10.4-15.6-17-22.1c-15.2-15.2-33.6-24.7-54.2-30.9c-21.2-6.3-42.9-8.4-64.8-8.2
		c-29.4,0.3-58.3,4.5-86.8,11.8c-35.5,9-69.4,22.1-102.3,38c-22.5,10.9-44,23.4-64.9,37c-4,2.6-8.5,4.7-12.1,7.8
		c-2.7,2.4-4,1.7-5.9-0.4c-7.6-8.3-15.2-16.7-22.9-24.9c-1.9-2-0.9-2.6,0.8-3.6c15.8-9.7,31.9-19,48.4-27.6
		c27.9-14.5,56.7-26.7,86.4-36.9c4.8-1.7,10-2.1,14.6-3.9c10.3-4.1,20.8-7.2,31.5-9.6c18-4,36.1-7.7,54.6-9.5
		c16.3-1.6,32.7-3.3,49.1-2.6c30.5,1.2,60.3,5.9,87.9,19.8c21.5,10.8,39.2,25.7,50.3,47.7C741.6,126.9,743.8,132.9,745.8,139z"/>
	<path class="st1" d="M400.7,153.5c10.6-7.4,23.2-12.3,35.2-18.2c22.4-10.9,45.7-19.4,69.5-26.6c15.1-4.6,30.4-8.8,46-11.1
		c10.1-1.5,20.2-3.1,30.5-3.7c11.8-0.7,23.6-1.1,35.4-0.7c21.6,0.8,42.5,4.6,62.6,13.1c16.1,6.8,29.9,16.7,40.6,30.3
		c8,10.2,13.2,22,16,35c1.6,7.5,1.7,15.1,2.5,22.6c0.3,3-0.9,4.1-4,4.1c-17.2-0.1-34.3-0.1-51.5,0c-2.5,0-3.3-0.7-3.5-3.3
		c-2.1-27-15-47.6-37.8-62c-16.1-10.3-34.1-15.3-52.9-17.8c-12.7-1.7-25.5-2.4-38.2-1.8c-19.8,1-39.3,3.8-58.7,8.1
		c-18.5,4.1-36.5,10-54.3,16.2c-11,3.9-21.9,8.7-32.3,14.3C404.1,153,402.4,154.4,400.7,153.5z"/>
	<path class="st1" d="M219,390.3c5.1,7,9.8,14.3,16.5,20.1c13.4,11.6,28.9,18.8,45.8,23.2c21,5.4,42.4,6.3,64,5
		c15.7-1,31.1-3.7,46.4-6.6c13.2-2.5,26.1-6.6,38.9-10.7c26.4-8.4,51.6-19.6,76-32.6c12.8-6.8,25.3-14.2,37.3-22.4
		c1.7-1.2,4-1.1,5.3-3.4c1.2-2.1,2.3,0.3,3,1c5.6,5.8,11.2,11.6,16.7,17.5c0.2,0.2,0.2,0.7,0.4,0.9c3.6,4.2,3.6,4.7-1.5,7.5
		c-18,10-35.9,20.3-54.7,28.8c-27.8,12.4-56.2,22.9-85.9,30c-21.7,5.2-43.4,9-65.8,10c-14.3,0.6-28.6,0.7-42.7-0.7
		c-14.1-1.4-27.9-4.8-41.2-9.9c-12.9-5-25-11.6-35.3-21c-10.1-9.2-18-20.1-22.9-33C218.9,392.9,218.6,391.6,219,390.3L219,390.3z"/>
	<path class="st1" d="M141.7,326.4c5.4-7.6,10.9-15.1,16.3-22.7c7.2-10.2,14.4-20.4,21.6-30.6c7.8-10.9,15.7-21.7,23.6-32.6
		c4.4-6.1,8.7-12.3,13.1-18.4c1.2-1.7,0.3-2.7-0.6-3.9c-6.3-8.9-12.6-17.7-18.9-26.6c-2.6-3.6-5.1-7.2-8-11.2c5.6-1,10.8,0,15.9-0.3
		c3-0.2,5.9,0,8.9-0.6c5.2-1.1,6.4,4.3,9.2,6.9c2,1.9,3.4,4.4,5,6.8c4.3,6.4,5,6.8,8.7,0.5c8.5-14.4,21.8-23.6,34.1-34
		c15.1-12.8,30.1-25.8,45.1-38.7c0.3-0.3,0.9-0.4,1.7-0.8c0.1,4.5-3.5,6.8-5.5,9.5c-7.9,10.3-15.4,21-22.9,31.6
		c-9.3,13.1-18.8,26.2-27.8,39.5c-3.7,5.4-7.6,10.6-11.6,15.8c-1.9,2.5-2.3,4.6-0.4,7.2c7.7,10.4,15.3,20.8,22.9,31.2
		c1.3,1.8,1.4,4.3,3.3,6.4c-9.1,0-18.1,0-27.2,0c-1.7,0-2.5-0.8-3.5-2.2c-3.5-5.3-7.2-10.5-11-15.7c-1.6-2.2-2.8-0.6-3.8,0.7
		c-3.1,4.3-6.2,8.6-9.2,12.9c-6.3,9.1-15.6,15.1-23.6,22.4c-17,15.5-34.5,30.4-51.7,45.7C144.4,326.1,143.4,326.5,141.7,326.4z"/>
	<path class="st0" d="M714.8,283.8c0-17,0-34,0-50.9c0-3.4,0.7-5,4.7-4.7c6.1,0.5,12.3,0.3,18.5,0.1c2.5-0.1,3.1,0.6,3,3
		c0,35,0,69.9,0.2,104.9c0,2.7-0.9,3.3-3.4,3.3c-6.5-0.2-13-0.2-19.5,0c-3.1,0.1-3.4-1.2-3.4-3.8c0.1-17.3,0.1-34.6,0.1-52
		C714.9,283.8,714.8,283.8,714.8,283.8z"/>
	<path class="st0" d="M335.8,218.5c0-7.1,0.1-14.3-0.1-21.4c-0.1-2.4,0.6-3.5,2.9-3.5c12.5,0.1,24.9-0.6,37.3,0.9
		c5.8,0.7,10.5,5.7,11,10.5c0.7,7.4-1.6,12.1-8.1,14.8c-3.2,1.3-4.4,2-0.6,4.4c6.3,4,8.2,11.5,12.5,17.1c1.2,1.6,0,2.3-1.7,2.3
		c-4.8,0-9.7-0.1-14.5,0c-1.9,0.1-2.7-1-3.5-2.2c-3-4.5-6.1-9.1-9-13.7c-0.9-1.5-1.7-2.7-3.4-3.5c-4.2-1.9-5.6-1.2-5.6,3.4
		c0,4.2-0.1,8.3,0.1,12.5c0.1,2.4-0.4,3.4-3.2,3.5c-14.1,0.5-14.1,0.6-14-13.6c0-3.8,0-7.7,0-11.5
		C335.9,218.5,335.8,218.5,335.8,218.5z M359.2,203.4c-2.4,0.5-6.6-1.8-6.2,4.2c0.4,6.8,0,6.9,7.5,6.3c3.9-0.3,9.1-0.4,9.1-5.4
		c0-5.3-5-5-9-5.1C360.2,203.4,359.9,203.4,359.2,203.4z"/>
	<path class="st0" d="M134.2,218.4c0-6.8,0.1-13.7,0-20.5c-0.1-3.1,0.6-4.5,4.1-4.5c12.7,0.2,25.3,0,38,0.1c5.1,0,7.4,3.8,5.6,8.5
		c-0.7,1.9-2.2,1.2-3.3,1.2c-7.7,0.1-15.3,0.3-23-0.1c-5.7-0.3-3.6,4.2-4.2,6.6c-0.8,3.2,2.3,2.4,4.1,2.5c6.8,0.1,13.7,0,20.5,0
		c2.2,0,5.1-0.1,3.4,3.3c-1.1,2.1,3.3,7.6-3.9,6.4c-7-1.2-14.2,1.2-21.3-0.2c-0.6-0.1-1.7,0.5-2,1.1c-1.6,3-0.3,6.2,0.3,9.1
		c0.3,1.8,2.9,0.8,4.4,0.9c7.5,0.1,15,0.3,22.5-0.1c4.1-0.2,4.1,1.9,3.7,4.5c-0.3,2.4,2.1,6.3-3.5,6.2c-14-0.2-28-0.1-42,0
		c-2.8,0-3.7-0.8-3.7-3.6c0.2-7.2,0.1-14.3,0.1-21.5C134,218.4,134.1,218.4,134.2,218.4z"/>
	<path class="st0" d="M422.9,243.4c-6.8,0-13.7-0.2-20.5,0.1c-3.6,0.1-4.6-1.2-4.5-4.6c0.4-11.9,0.7-23.9,0.9-35.9
		c0.1-9.2,0-9.3,9.1-9.5c11.6-0.2,23.2,0,34.8-0.1c3.8,0,3.4,2.5,3.1,4.7c-0.2,2,1.7,5.3-3,5.1c-7.5-0.2-15,0.1-22.5-0.1
		c-3.5-0.1-4.6,1-4.5,4.5c0.1,3.2,0.5,4.8,4.3,4.6c6.8-0.3,13.7,0.1,20.5-0.1c5.8-0.2,2.8,4,3.3,6.3c0.7,2.8-0.5,3.6-3.6,3.4
		c-6.8-0.4-13.6,0-20.4-0.2c-3-0.1-4.1,0.9-4,4c0.2,9-0.5,7.2,7,7.3c6.8,0.1,13.7,0.3,20.5-0.1c4.8-0.3,3.5,2.8,3.5,5.1
		c0,2.4,1.5,5.8-3.6,5.5C436.6,243.1,429.8,243.4,422.9,243.4z"/>
	<path class="st0" d="M563,206.9c-3.7,0.4-7.1,0.8-10.6,1.2c-3.3,0.4-5.8,0.2-7.6-3.6c-1.8-3.7-9.2-4.3-12.4-1.5
		c-2.4,2.1-1.7,5.2,1.7,6.2c4.4,1.2,9,1.9,13.5,3.1c3.2,0.8,6.4,1.8,9.3,3.3c9.4,4.7,10.8,15.8,2.9,23c-9.4,8.6-33.2,8.4-42.1-0.4
		c-0.2-0.2-0.6-0.4-0.8-0.6c-2-2.7-4.5-6-3.7-8.8c0.9-3.1,5-0.9,7.6-1.4c1.3-0.2,2.7,0.2,4-0.2c3.3-1,4.6-0.5,5.8,3.3
		c1.6,5.4,11.7,6.7,15.9,2.6c2.3-2.2,2-4.3-0.3-6.4c-3.4-3.1-7.9-3-12-4.2c-5.2-1.5-10.6-2.3-14.8-6.2c-6.4-6-5.9-15.1,1.8-19.1
		c11.5-6,23.6-6,35.2-0.2C560.3,198.8,562.3,202.6,563,206.9z"/>
	<path class="st0" d="M480.4,193.4c5.3-0.1,10.4,0.2,15.5,2.3c4.1,1.7,5.5,5.1,7.6,8c1.2,1.7,1.1,3.8-2.2,3.7
		c-2.5-0.1-4.9,0.5-7.4,0.7c-3.2,0.3-6.3,0.6-7.7-3.5c-1-2.8-3.8-3-6.2-3.2c-3.4-0.4-7.2,0.5-7.6,4c-0.5,3.6,3.6,4.2,6.5,4.7
		c6.3,1.2,12.6,2.5,18.6,5c5.5,2.3,8.4,6.3,8.6,12.1c0.2,6.2-2.5,11-8.1,13.7c-10.8,5.1-22,4.8-33.2,1.3c-3-0.9-5.2-2.9-7-5.4
		c-1.8-2.6-3.9-5.7-2.7-8.6c1-2.3,4.5-0.6,6.9-0.9c1.3-0.2,2.7,0,4-0.1c2.6-0.2,4.5-0.9,5.7,3.1c1.7,5.7,12.6,6.9,16.7,2.6
		c2-2.1,1.7-4-0.4-6c-3.4-3.1-7.9-3.1-12-4.3c-3.5-1-7.1-1.5-10.4-3.1c-7.7-3.9-9.7-7.1-8.7-14.3c0.6-4.9,5.3-9.2,11.7-10.8
		c1.4-0.4,2.9-0.8,4.3-0.9C475.4,193.3,477.9,193.4,480.4,193.4z"/>
	<path class="st0" d="M276.2,218.5c0-7.1,0.1-14.3,0-21.4c0-2.6,0.8-3.5,3.4-3.5c10.8,0.1,21.6-0.3,32.3,0.9
		c7.4,0.8,12.3,6,12.9,13.3c0.6,6.8-3.6,12.2-10.2,15c-5.2,2.1-10.4,1.8-15.5,1.6c-4.7-0.2-6.7,0.9-6.1,5.9c0.4,3.3,0,6.6,0.2,10
		c0.1,2.5-0.4,3.6-3.2,3.5c-4.5-0.3-10.2,1.4-13-0.8c-3-2.3-0.7-8.4-0.9-12.8c-0.2-3.8,0-7.6,0-11.5
		C276,218.5,276.1,218.5,276.2,218.5z M297.6,203.4c-2.2-0.4-5.2-0.4-4.2,4c0.6,2.7-2.8,7.6,3.8,7.5c6.5-0.1,10.6-2.1,10.7-5.7
		C307.9,205.5,304.7,203.5,297.6,203.4z"/>
	<path class="st0" d="M732,544.2c0,2.5-0.3,5.1,0.1,7.5c1.3,7.5-4.2,10.1-10.7,10.7c-0.3,0-0.7,0-1,0c-14.4-2-28.8,0.7-43.2,0
		c-3.3-0.2-6.6-0.5-9.9-0.3c-2.5,0.2-6-1.1-6.4,3.8c-0.2,2.9-11.6,6.2-14.2,4.5c-0.4-0.3-0.7-1.1-0.8-1.7c-0.2-1,0.5-1.4,1.4-1.6
		c1.3-0.2,2.6-0.4,3.8-0.9c1.1-0.4,2-1.4,1.7-2.7c-0.3-1.5-1.7-1.4-2.8-1.4c-1.5,0-3,0.4-4.5,0.3c-7.4-0.6-9.3-3.1-8.9-11.7
		c0.2-4.8,3.5-7.3,9.7-7.4c4,0,8,0.1,12-0.1c2.2-0.1,3,0.6,2.9,2.8c-0.1,3.2,0,6.3,0,9.5c0,2.2,0.7,3.6,3.2,3.2
		c6.6-0.9,13.3-0.4,19.9-0.3c2.7,0,4.1-0.6,3.7-3.5c-0.1-1.1-0.2-2.4,0-3.5c0.6-4-1-5.4-5-5.1c-3.6,0.3-7.3,0.1-11,0.1
		c-1.4,0-2.9,0-2.9-1.8c0-1.9,1.6-1.3,2.6-1.3c6.4,0.1,12.9-0.2,19.3,0.4c4.2,0.4,7.1,2.7,6.2,7.7c-0.2,1.1,0,2.3,0,3.5
		c0,1.9-0.3,3.7,2.7,3.6c2.6-0.1,4.6-0.4,4.5-3.8c-0.1-6.8,0-13.7-0.2-20.5c-0.1-3.4,0.7-4.7,4.5-4.6c3.4,0.1,4.6,0.8,4.5,4.4
		c-0.3,6.8,0.1,13.7-0.1,20.5c-0.1,4.2,2.6,3.8,5.3,3.9c2.8,0.1,4.8-0.1,4.7-3.8c-0.2-6.8,0.2-13.7,0-20.5c-0.2-3.8,1.4-4.4,4.7-4.4
		c3.1,0,4.6,0.8,4.4,4.2c-0.3,3.5-0.1,7-0.1,10.5C731.9,544.2,732,544.2,732,544.2z M652.5,552.4c-1.4-1.9,2.2-5.8-2.8-6
		c-3.7-0.1-4.6,2.1-4.5,5.5c0.1,3.2-0.1,6.2,4.2,6.3C654.4,558.3,651.2,554.3,652.5,552.4z"/>
	<path class="st0" d="M307.9,544c0,1.7,0,3.3,0,5c0.1,11.4-6,16.1-17.1,12.9c-2.8-0.8-5.3-1.2-8.1-0.3c-4,1.3-7.9,0.8-11.6-1
		c-0.6-0.3-1.4-1-1.8-0.8c-9.1,4.3-18.9,0-28.2,2c-1.6,0.3-2.1,1-2.5,2.5c-1.2,4.1-9.5,7.7-13.4,6c-0.8-0.4-1.3-0.9-1.4-1.9
		c0-1.1,0.7-1.5,1.6-1.4c4.3,0.4,4.4-2.3,4.4-5.4c-0.1-5,0.3-10,0-15c-0.3-4.4,2.5-3.2,4.8-3.4c2.7-0.3,4.6,0.1,4.1,3.6
		c-0.3,1.8,0,3.7,0.1,5.5c0.1,6.7,0.1,6.6,6.8,6c2.6-0.2,3.5-1.3,3.4-3.7c-0.1-2.3,0-4.7,0-7c0-3.9,4.4-6.2,8-4.4
		c1.2,0.6,1,1.6,1,2.5c0.1,2.8,0.1,5.7,0,8.5c-0.1,2.6,0.5,4.2,3.5,4.1c2.7-0.1,3.4-1.5,3.3-3.9c-0.1-1.8,0-3.7,0-5.5
		c0-5.8,1.6-6.9,7.3-5.8c2,0.4,1.8,1.6,1.8,2.9c0,3,0.1,6-0.1,9c-0.2,2.8,1.3,3.4,3.7,3.3c2.6-0.1,3.5-1.2,3-3.8
		c-0.4-2.1-0.1-4.3-0.3-6.5c-0.5-4,1.3-5,5.1-5c3.2,0.1,4,1.1,3.7,4c-0.2,1.8,0,3.7,0,5.5c0,5.1,3.5,7.3,8.1,5.5
		c1.9-0.7,1.6-2.3,1.6-3.7c0.1-7,0.3-14,0-21c-0.1-3.4,1.4-3.9,4.2-3.8c2.6,0.1,5,0.1,4.7,3.9c-0.3,3.5-0.1,7-0.1,10.5
		C307.8,544,307.9,544,307.9,544z"/>
	<path class="st0" d="M189.4,557.9c3.1,1.4,6.3,1.1,9.4,1.1c6.7-0.1,7.1-0.7,7.1-7.5c0-1.2,0.1-2.3,0-3.5c-0.1-2.7-0.6-5.1,3.8-4.9
		c3.7,0.2,5.1,0.8,5.3,4.9c0.5,12.6-2.1,13.9-13.9,14.3c-12.6,0.4-25.4,0.7-37.9-0.2c-7.5-0.5-14.9-0.3-22.3-0.1
		c-5.9,0.2-8.9-2.4-9.1-7.3c-0.3-9.5,0.9-11.2,8.6-11.5c4.2-0.2,8.3,0.1,12.5-0.1c3.1-0.2,4.3,1,4,4c0,0.5-0.1,1,0,1.5
		c0.7,2.9-2.2,6.7,0.2,8.5c3.3,2.5,7.9,0.9,13.2,1.5c-5.3-4.3-2.8-9.2-3.5-13.6c-0.3-2,1.5-2.2,2.6-2.2c6.8,0,13.6,0.2,20.4,0.4
		c1.3,0,1.8,0.8,1.7,2C191.1,549.5,192.8,554.1,189.4,557.9z M147.1,551.4c-0.7-1.4,1.7-4.4-1.8-4.9c-2.1-0.3-4.8-0.3-4.8,2.7
		c0,3.3-1.9,7.7,2.9,9.4c1.3,0.5,3.5-0.7,3.7-2.9C147.2,554.3,147.1,553,147.1,551.4z M176,551.2c0.1,2.5-0.8,5.6,3.1,5.6
		c4.4-0.1,3.3-3.6,3.5-6.2c0.2-2.6,0-4.3-3.5-4.3C174.6,546.2,176.3,549.2,176,551.2z"/>
	<path class="st0" d="M429,544.3c0-3.3,0.3-6.7-0.1-10c-0.4-3.9,1.2-4.8,4.8-4.9c3.6-0.1,4.5,1.5,4,4.5c-1.1,6.6-0.1,13.3-0.5,19.9
		c-0.2,4.2,2.4,4.3,5.5,4.4c3.4,0.2,4.2-1.4,4.2-4.5c0.2-9.7,1.1-10.5,10.9-10.6c1.3,0,2.7,0,4,0c8.2,0.1,9.7,1.5,9.2,9.6
		c-0.2,3.8,1.4,5.7,5,5.8c3.5,0.1,6-0.8,5.8-5.3c-0.3-6.2,0.1-12.5,0.1-18.8c0-2.8,0.7-4.7,4.1-4.8c3.8-0.1,3.9,2.2,3.9,4.9
		c0,6.8-0.1,13.6,0.2,20.5c0.1,3.5-1.3,5.5-4.4,6.1c-3.5,0.7-7,2.1-10.7,0.7c-1.1-0.4-2.6-0.6-3.9,0.1c-7.7,4.5-15.3,4.7-23.4,0.4
		c-2.6-1.4-6.3-0.5-9.5-0.6c-7.6-0.3-9.3-2-9.3-9.4C428.9,549.6,428.9,547,429,544.3C428.9,544.3,428.9,544.3,429,544.3z M462.6,554
		c-0.8-2.7,2.1-7.7-3.6-7.5c-5.1,0.2-2.8,4.8-2.8,7.4c0,2.7-2.1,7.3,3,7.4C464.4,561.4,461.8,556.7,462.6,554z"/>
	<path class="st0" d="M420,544c0,3.3-0.1,6.7,0,10c0.1,4.2-2.3,6.4-6,7.4c-4.2,1.1-8.5,1.6-12.7,0.2c-5.4-1.8-10.7,0.8-16,0.6
		c-3.1-0.1-6.4,0.6-9.4-0.5c-5.8-2.1-11.3,0.8-17,0.4c-9.4-0.7-13.3-5.9-9.9-14.8c1.1-2.7,4-3.6,6.6-3.8c5-0.4,10-0.4,14.9-0.3
		c1.8,0.1,3.8,0.7,3.5,3.5c-0.2,1.8,0,3.7,0,5.5c0,6.1,0.7,6.8,6.9,6.5c10.5-0.5,10.6-0.5,10.6-11.5c0-3.4,1.1-4.1,4.3-4
		c2.8,0.1,4.9,0.1,4.4,3.9c-0.3,1.8,0.2,3.7-0.1,5.5c-0.6,4.8,1.6,5.9,6,5.9c4.1,0,5.1-1.4,5-5.3c-0.2-6.6,0.2-13.3,0-20
		c-0.1-3.6,2-3.6,4.5-3.6c2.5,0,4.7-0.1,4.5,3.5c-0.2,3.6,0,7.3,0,11C419.9,544,420,544,420,544z M364.7,551.6
		c-0.5-1.4,1.2-3.9-1.1-5c-1.4-0.7-3.3-0.6-4.7,0.5c-1.4,1.2-1.4,9.1,0,10.3c2,1.7,5.3,0.7,5.8-2
		C364.9,554.3,364.7,553.1,364.7,551.6z"/>
	<g>
		<linearGradient id="SVGID_1_" gradientUnits="userSpaceOnUse" x1="742.7597" y1="564.7297" x2="824.0609" y2="564.7297">
			<stop  offset="0.3631" style="stop-color:#3F63AC"/>
			<stop  offset="0.9441" style="stop-color:#FFFFFF"/>
		</linearGradient>
		<path class="st2" d="M822.5,561.1c-2.8,3.2-4,5.4,1.6,5.5c-1.9,1.9-3.6,1.3-5.1,1.3c-24.1,0.2-48.2,0.2-72.3,0.5
			c-3.1,0-3.9-0.9-3.9-3.9c0-2.9,0.9-3.5,3.7-3.5C771.5,561.1,796.6,561.1,822.5,561.1z"/>
		<linearGradient id="SVGID_2_" gradientUnits="userSpaceOnUse" x1="742.8477" y1="549.8809" x2="818.7838" y2="549.8809">
			<stop  offset="0.3631" style="stop-color:#3F63AC"/>
			<stop  offset="0.9441" style="stop-color:#FFFFFF"/>
		</linearGradient>
		<path class="st3" d="M818.8,553.5c-24.9,0-49-0.1-73.1,0.1c-2.8,0-3-1.2-2.8-3.3c0.2-1.7-1-4.1,2.6-4.1
			c20.9,0.2,41.9,0.3,62.8,0.4c1,0,2.8,0,2.5,0.8C808.8,555.3,815.7,550.6,818.8,553.5z"/>
		<linearGradient id="SVGID_3_" gradientUnits="userSpaceOnUse" x1="742.9037" y1="535.684" x2="804.5534" y2="535.684">
			<stop  offset="0.3631" style="stop-color:#3F63AC"/>
			<stop  offset="0.9441" style="stop-color:#FFFFFF"/>
		</linearGradient>
		<path class="st4" d="M803.5,532.3c-1.4,1.5-3.4,0.9-3.3,2.9c0.1,3.2,3.5,1,4.4,2.9c-1.1,1.4-2.7,0.8-4.1,0.8
			c-17.8,0.2-35.6,0.2-53.4,0.3c-2,0-4.4,0.8-4.2-2.9c0.1-2.7,0.2-4.2,3.6-4.1c9.2,0.3,18.5,0.2,27.8,0.2
			C783.7,532.3,793.2,532.3,803.5,532.3z"/>
	</g>
	<g>
		<linearGradient id="SVGID_4_" gradientUnits="userSpaceOnUse" x1="39.2181" y1="564.7189" x2="120.1557" y2="564.7189">
			<stop  offset="0" style="stop-color:#FFFFFF"/>
			<stop  offset="0.7318" style="stop-color:#3F63AC"/>
		</linearGradient>
		<path class="st5" d="M39.3,561.1c27.2,0,52.4,0.1,77.7-0.1c2.9,0,3.3,1.2,3.1,3.5c-0.1,1.9,0.7,3.9-2.7,3.9
			c-25.6-0.3-51.2-0.4-76.8-0.6c-0.3,0-0.6-0.2-1.4-0.6C41.7,565.9,43.7,564.4,39.3,561.1z"/>
		<linearGradient id="SVGID_5_" gradientUnits="userSpaceOnUse" x1="38.4832" y1="549.8598" x2="120.129" y2="549.8598">
			<stop  offset="0" style="stop-color:#FFFFFF"/>
			<stop  offset="0.7318" style="stop-color:#3F63AC"/>
		</linearGradient>
		<path class="st6" d="M38.5,553.5c1.9-2.7,9,0.3,5.1-7.2c24.7,0,49,0.1,73.3-0.1c3.5,0,3,1.9,3.2,4.1c0.2,2.7-0.8,3.3-3.4,3.3
			C90.8,553.4,64.8,553.5,38.5,553.5z"/>
		<linearGradient id="SVGID_6_" gradientUnits="userSpaceOnUse" x1="59.0256" y1="535.717" x2="119.9853" y2="535.717">
			<stop  offset="0" style="stop-color:#FFFFFF"/>
			<stop  offset="0.7318" style="stop-color:#3F63AC"/>
		</linearGradient>
		<path class="st7" d="M60.3,538.6c2.8-2,6.6-1.1,6-3.9c-0.6-2.6-4.1-0.4-7.2-2.4c20.2,0,39.3,0,58.4,0c2.5,0,2.7,1.2,2.5,3.1
			c-0.1,1.8,0.5,3.9-2.4,3.9c-3.7,0-7.3,0-11,0c-13.5-0.1-26.9-0.1-40.4-0.2C64.6,539,63,538.8,60.3,538.6z"/>
	</g>
	<path class="st0" d="M575.2,550.5c0.9,7.9-1,12.3-12.7,11.5c-7.2-0.5-14.6-0.2-21.8-0.3c-8.8-0.1-12.5-5.1-9.7-13.5
		c0.9-2.7,3.3-1.7,5.1-1.8c1.6-0.1,3.5-0.3,3.9,2c0.1,0.3,0,0.7,0,1c1,8.9,1,8.9,10.1,8.9c4.2,0,8.3,0,12.5,0c3.1,0,4.7-1.2,4.4-4.5
		c-0.1-2.2,0.2-4.3,0-6.5c-0.3-3.1,0.6-4.3,4-4.3c3.5,0,4.9,0.9,4.3,4.4C575.1,548.4,575.2,549.5,575.2,550.5z"/>
	<path class="st0" d="M609.1,544.5c0,3.3-0.3,6.7,0.1,10c0.4,4.3-1.8,6.4-5.5,6.9c-5.1,0.7-10.2,0.7-15.4,0.9
		c-1.1,0-2.8,0.3-2.7-1.9c0.1-2.1,1.4-1.6,2.7-1.7c11.6-0.4,11.6-0.5,11.7-12.1c0-4.5,0.3-9,0.1-13.5c-0.2-4.2,2.6-3.2,5-3.5
		c2.6-0.2,4.1,0.2,3.9,3.4c-0.3,3.8-0.1,7.6-0.1,11.5C609,544.5,609.1,544.5,609.1,544.5z"/>
	<path class="st0" d="M627.1,544.9c0.4,3.9-0.4,8.7,0.5,13.5c0.6,2.9-1.4,4.2-4.3,3.9c-2.3-0.2-5.2,0.8-5.1-3.4
		c0.3-8.6,0.4-17.3,0.2-25.9c-0.1-4.2,2.7-3.1,5-3.4c2.9-0.4,3.8,0.7,3.7,3.5C626.9,536.7,627.1,540.4,627.1,544.9z"/>
	<path class="st0" d="M395.2,367.4c-5.5,0.1-10.4-4-10.2-8.6c0.1-4.1,5.3-8.6,9.9-8.6c5.6,0,10.3,3.9,10.4,8.5
		C405.4,363.4,400.8,367.4,395.2,367.4z"/>
	<path class="st0" d="M419.9,367.4c-5.8,0-10-3.7-10-8.7c0-5.6,5.2-8.2,9.8-8.5c5.4-0.3,10.4,4.1,10.4,8.5
		C430.1,363.4,425.3,367.4,419.9,367.4z"/>
	<path class="st0" d="M508.1,546c0,4.2-0.2,8.3,0.1,12.5c0.3,4.3-2.7,3.7-5.3,3.8c-2.9,0.1-4.1-1.5-3.7-4c1.3-7.9,0.6-15.9,0.6-23.8
		c0-4,1.7-4.6,4.9-4.9c4-0.4,3.2,2.2,3.2,4.4c0,4,0,8,0,12C508,546,508.1,546,508.1,546z"/>
	<path class="st0" d="M317.1,545.4c0-4.2,0.2-8.3-0.1-12.5c-0.2-3.5,2.2-3.1,4.3-3.2c2.2-0.2,3.8,0,3.9,3c0.2,8.8-0.5,17.6,0.7,26.3
		c0.4,3.2-2.5,3.2-4.9,3.3c-2.6,0.1-4.2-0.5-4.1-3.5c0.1-4.5,0-9,0-13.4C316.9,545.4,317,545.4,317.1,545.4z"/>
	<path class="st0" d="M302.9,273.6c-3.5-0.2-7.3-1.6-8.9-6.1c-1.4-4.1,0.6-7,4.2-9c2.3-1.3,12.4,0.2,13.8,2.2c2,2.8,2.1,5.8,0.2,8.8
		C310.6,272.2,307.8,273.6,302.9,273.6z"/>
	<path class="st0" d="M593.5,543c0,2.5-0.3,5,0.1,7.4c0.8,4.5-1.3,5.2-5.2,5c-2.4-0.2-3.5-0.6-3.4-3.3c0.2-6.3,0.3-12.6,0.1-18.9
		c-0.1-3.7,2.2-3.4,4.5-3.5c2.4-0.2,4.2,0.2,4,3.4C593.2,536.4,593.4,539.7,593.5,543C593.4,543,593.4,543,593.5,543z"/>
	<path class="st0" d="M200.6,570.1c-1.6-0.4-3.7-0.3-3.7-2.1c0-2.4,2.3-2.4,4.1-2.4c1.5,0,3.6,0.5,3.5,2
		C204.5,569.9,202.1,569.7,200.6,570.1z"/>
	<path class="st0" d="M404,568c-0.9,1.6-2.4,2.3-4.1,2.1c-1.4-0.2-3.6-0.9-3.4-2.2c0.3-1.8,2.4-2.7,4.3-2.4
		C402.1,565.6,403.5,566.3,404,568z"/>
	<path class="st0" d="M214.1,567.8c-0.8,1.8-2.3,2.3-4,2.4c-1.7,0.1-2.9-1.3-3.1-2.7c-0.2-2.1,2-1.9,3.2-2.1
		C212,565.2,213.3,566.2,214.1,567.8z"/>
	<path class="st0" d="M394.1,567.5c-0.9,1.4-1.9,2.8-3.8,2.4c-1.3-0.3-3.4-0.3-3-2.3c0.4-1.7,2.1-2.5,3.9-2.1
		C392.3,565.8,394,565.6,394.1,567.5z"/>
	<path class="st0" d="M550.7,535c1.3,0.2,3.3-0.1,3.2,2c0,1.8-1.9,2.3-3.3,2.1c-1.3-0.2-3.6-0.2-3.6-1.8
		C546.9,535.3,549,535.2,550.7,535z"/>
	<path class="st0" d="M563.6,537.3c-0.7,1.5-2.2,1.9-3.6,1.8c-1.3-0.1-3.4-0.3-2.9-2.4c0.3-1.8,2.1-1.8,3.6-1.7
		C562,535.2,563.3,535.5,563.6,537.3z"/>
	<path class="st0" d="M139.1,535.1c1.3,0.2,3.4,0,3,2.1c-0.2,1.6-2.1,2-3.6,1.8c-1.3-0.2-3.4-0.3-3.2-2.3
		C135.6,535,137.6,535.2,139.1,535.1z"/>
	<path class="st0" d="M356.3,535.2c1.4,0.1,3.5,0,3.4,1.9c-0.1,1.7-2.2,2-3.5,1.9c-1.1-0.1-3.1,0-3.2-1.7
		C352.9,535.2,354.8,535.3,356.3,535.2z"/>
	<path class="st0" d="M148.5,539.3c-1.5-0.2-3.3-0.4-3.2-2.3c0.1-1.6,1.6-1.8,3-1.8c1.5,0.1,3.4,0.1,3.5,1.9
		C151.9,539,149.6,538.5,148.5,539.3z"/>
	<path class="st0" d="M365.1,535.2c1.9,0.1,3.7,0,3.8,1.9c0.1,1.6-1.7,1.9-2.9,2c-1.4,0.1-3.5-0.2-3.7-1.7
		C362,535.3,364.1,535.5,365.1,535.2z"/>
	<path class="st0" d="M808.3,537.8c-0.1,0.1-0.2,0.1-0.3,0.2c-0.1-0.2-0.2-0.3-0.3-0.5c0.1,0,0.3-0.1,0.4,0
		C808.2,537.6,808.3,537.7,808.3,537.8z"/>
	<path class="st1" d="M219,390.2c-1,0.2-0.9-0.4-0.9-1.1c0-0.1,0.2-0.3,0.2-0.4C218.6,389.3,218.8,389.8,219,390.2
		C219,390.3,219,390.2,219,390.2z"/>
	<path class="st8" d="M517.8,328.2c0.1,7.4-1.8,10.9-6.4,11.7c-4.3,0.7-7.8-0.9-9.2-5c-2.1-6.4-1.8-12.7,3-18.1
		c1.2-1.3,2.6-1.8,4.5-1.2c3.9,1.3,7.2,3.3,8.1,7.6C518.1,324.9,517.8,326.6,517.8,328.2z"/>
	<path class="st8" d="M597.1,328c0-8.7,2.7-12.1,9.1-11.6c0.2,0,0.3,0,0.5,0c5.5,0.7,8.5,6.6,7,15.4c-1.2,6.9-3.6,8.8-9.9,8.3
		C599.1,339.6,597.1,335.7,597.1,328z"/>
	<path class="st8" d="M359.2,203.4c0.7,0,1,0,1.3,0c4,0.1,9.1-0.2,9,5.1c0,5.1-5.2,5.1-9.1,5.4c-7.4,0.6-7.1,0.4-7.5-6.3
		C352.6,201.6,356.8,203.9,359.2,203.4z"/>
	<path class="st8" d="M297.6,203.4c7.1,0.1,10.3,2.1,10.2,5.8c-0.1,3.5-4.2,5.6-10.7,5.7c-6.5,0.1-3.2-4.8-3.8-7.5
		C292.4,203,295.4,203,297.6,203.4z"/>
	<path class="st8" d="M652.5,552.4c-1.3,1.9,1.9,5.9-3.1,5.8c-4.3-0.1-4.1-3.1-4.2-6.3c-0.1-3.4,0.9-5.6,4.5-5.5
		C654.7,546.5,651.1,550.5,652.5,552.4z"/>
	<path class="st8" d="M147.1,551.4c0,1.6,0.1,2.9,0,4.2c-0.2,2.2-2.4,3.4-3.7,2.9c-4.7-1.7-2.8-6.1-2.9-9.4c0-3,2.7-3,4.8-2.7
		C148.8,547,146.4,550,147.1,551.4z"/>
	<path class="st8" d="M176,551.2c0.3-2-1.3-5,3.1-5c3.6,0,3.7,1.7,3.5,4.3c-0.2,2.7,0.9,6.2-3.5,6.2
		C175.2,556.8,176.1,553.7,176,551.2z"/>
	<path class="st8" d="M462.6,554c-0.8,2.7,1.7,7.4-3.4,7.4c-5.1-0.1-3-4.7-3-7.4c0-2.6-2.3-7.3,2.8-7.4
		C464.7,546.3,461.8,551.3,462.6,554z"/>
	<path class="st8" d="M364.7,551.6c0,1.5,0.2,2.7,0,3.8c-0.5,2.6-3.7,3.7-5.8,2c-1.4-1.2-1.4-9.1,0-10.3c1.4-1.1,3.3-1.2,4.7-0.5
		C365.9,547.7,364.3,550.2,364.7,551.6z"/>
</g>
</svg>
